<mxfile modified="2023-11-20T09:40:19.319Z" host="Electron" agent="Mozilla/5.0 (Macintosh; Intel Mac OS X 10_15_7) AppleWebKit/537.36 (KHTML, like Gecko) draw.io/22.1.2 Chrome/114.0.5735.289 Electron/25.9.4 Safari/537.36" etag="pIOj8Iur36ICO1UEflBq" version="22.1.2" type="device">
  <diagram id="FGIKVRICuZljPPDlBpnD" name="Page-1">
    <mxGraphModel dx="2314" dy="1214" grid="1" gridSize="10" guides="1" tooltips="1" connect="1" arrows="1" fold="1" page="1" pageScale="1" pageWidth="850" pageHeight="1100" math="0" shadow="0">
      <root>
        <mxCell id="0" />
        <mxCell id="1" parent="0" />
        <mxCell id="Gk3vsJrQaXJPjO9UwzMO-1" value="" style="rounded=1;whiteSpace=wrap;html=1;fontSize=15;align=center;fillColor=#f5f5f5;strokeColor=none;fontColor=#333333;" parent="1" vertex="1">
          <mxGeometry x="591" y="68" width="102" height="682" as="geometry" />
        </mxCell>
        <mxCell id="Gk3vsJrQaXJPjO9UwzMO-2" value="" style="rounded=1;whiteSpace=wrap;html=1;fontSize=15;align=center;fillColor=#f5f5f5;strokeColor=none;fontColor=#333333;" parent="1" vertex="1">
          <mxGeometry x="290" y="68" width="102" height="672" as="geometry" />
        </mxCell>
        <mxCell id="Gk3vsJrQaXJPjO9UwzMO-3" value="" style="rounded=1;whiteSpace=wrap;html=1;fontSize=15;align=center;fillColor=#f5f5f5;strokeColor=none;fontColor=#333333;" parent="1" vertex="1">
          <mxGeometry y="68" width="102" height="672" as="geometry" />
        </mxCell>
        <mxCell id="Gk3vsJrQaXJPjO9UwzMO-18" value="" style="group" parent="1" vertex="1" connectable="0">
          <mxGeometry x="116" y="500" width="176" height="60" as="geometry" />
        </mxCell>
        <mxCell id="Gk3vsJrQaXJPjO9UwzMO-19" value="&lt;div style=&quot;text-align: center ; font-size: 14px&quot;&gt;8&lt;/div&gt;" style="ellipse;whiteSpace=wrap;html=1;aspect=fixed;fillColor=#BD3C39;fontFamily=Helvetica;align=center;strokeColor=none;fontSize=14;verticalAlign=middle;horizontal=1;spacingTop=0;spacingRight=0;spacingLeft=0;fontColor=#FFFFFF;spacing=0;labelPosition=center;verticalLabelPosition=middle;spacingBottom=2;" parent="Gk3vsJrQaXJPjO9UwzMO-18" vertex="1">
          <mxGeometry y="12.857142857142858" width="24.068376068376068" height="24.068376068376068" as="geometry" />
        </mxCell>
        <mxCell id="Gk3vsJrQaXJPjO9UwzMO-20" value="&lt;p style=&quot;font-size: 13px&quot;&gt;Commerce returns a Cart object.&lt;/p&gt;" style="text;html=1;strokeColor=none;fillColor=none;align=left;verticalAlign=middle;whiteSpace=wrap;rounded=0;fontFamily=Helvetica;fontSize=13;fontColor=#000000;spacing=0;labelPosition=center;verticalLabelPosition=middle;" parent="Gk3vsJrQaXJPjO9UwzMO-18" vertex="1">
          <mxGeometry x="33.5954415954416" y="-1" width="142.4045584045584" height="60" as="geometry" />
        </mxCell>
        <mxCell id="Gk3vsJrQaXJPjO9UwzMO-21" value="" style="group" parent="1" vertex="1" connectable="0">
          <mxGeometry x="115.5" y="425" width="143" height="42" as="geometry" />
        </mxCell>
        <mxCell id="Gk3vsJrQaXJPjO9UwzMO-22" value="&lt;div style=&quot;text-align: center ; font-size: 14px&quot;&gt;7&lt;/div&gt;" style="ellipse;whiteSpace=wrap;html=1;aspect=fixed;fillColor=#BD3C39;fontFamily=Helvetica;align=center;strokeColor=none;fontSize=14;verticalAlign=middle;horizontal=1;spacingTop=0;spacingRight=0;spacingLeft=0;fontColor=#FFFFFF;spacing=0;labelPosition=center;verticalLabelPosition=middle;spacingBottom=2;" parent="Gk3vsJrQaXJPjO9UwzMO-21" vertex="1">
          <mxGeometry y="9" width="24" height="24" as="geometry" />
        </mxCell>
        <mxCell id="Gk3vsJrQaXJPjO9UwzMO-23" value="&lt;p style=&quot;font-size: 13px&quot;&gt;Set the payment method and provide the nonce.&lt;/p&gt;" style="text;html=1;strokeColor=none;fillColor=none;align=left;verticalAlign=middle;whiteSpace=wrap;rounded=0;fontFamily=Helvetica;fontSize=13;fontColor=#000000;spacing=0;labelPosition=center;verticalLabelPosition=middle;" parent="Gk3vsJrQaXJPjO9UwzMO-21" vertex="1">
          <mxGeometry x="33" width="110" height="42" as="geometry" />
        </mxCell>
        <mxCell id="Gk3vsJrQaXJPjO9UwzMO-24" value="" style="edgeStyle=orthogonalEdgeStyle;rounded=0;html=1;jettySize=auto;orthogonalLoop=1;strokeColor=#CC0000;strokeWidth=2;sourcePerimeterSpacing=8;dashed=1;dashPattern=1 1;endArrow=open;endFill=0;targetPerimeterSpacing=8;" parent="1" edge="1">
          <mxGeometry relative="1" as="geometry">
            <Array as="points">
              <mxPoint x="230" y="475" />
              <mxPoint x="230" y="475" />
            </Array>
            <mxPoint x="87" y="475" as="sourcePoint" />
            <mxPoint x="309" y="475" as="targetPoint" />
          </mxGeometry>
        </mxCell>
        <mxCell id="Gk3vsJrQaXJPjO9UwzMO-25" value="" style="edgeStyle=orthogonalEdgeStyle;rounded=0;html=1;dashed=1;dashPattern=1 1;sourcePerimeterSpacing=8;endArrow=none;endFill=0;jettySize=auto;orthogonalLoop=1;strokeColor=#CC0000;strokeWidth=2;curved=1;startArrow=open;startFill=0;fontFamily=Helvetica;fontSize=11;fontColor=#000000;align=center;targetPerimeterSpacing=8;endSize=6;startSize=6;" parent="1" edge="1">
          <mxGeometry relative="1" as="geometry">
            <Array as="points" />
            <mxPoint x="87" y="495" as="sourcePoint" />
            <mxPoint x="307" y="495" as="targetPoint" />
          </mxGeometry>
        </mxCell>
        <mxCell id="Gk3vsJrQaXJPjO9UwzMO-29" value="" style="group" parent="1" vertex="1" connectable="0">
          <mxGeometry x="404.5" y="349" width="164" height="42" as="geometry" />
        </mxCell>
        <mxCell id="Gk3vsJrQaXJPjO9UwzMO-30" value="&lt;div style=&quot;text-align: center ; font-size: 14px&quot;&gt;6&lt;/div&gt;" style="ellipse;whiteSpace=wrap;html=1;aspect=fixed;fillColor=#BD3C39;fontFamily=Helvetica;align=center;strokeColor=none;fontSize=14;verticalAlign=middle;horizontal=1;spacingTop=0;spacingRight=0;spacingLeft=0;fontColor=#FFFFFF;spacing=0;labelPosition=center;verticalLabelPosition=middle;spacingBottom=2;" parent="Gk3vsJrQaXJPjO9UwzMO-29" vertex="1">
          <mxGeometry y="10" width="24" height="24" as="geometry" />
        </mxCell>
        <mxCell id="Gk3vsJrQaXJPjO9UwzMO-31" value="&lt;p style=&quot;font-size: 13px&quot;&gt;Braintree returns a payment nonce.&lt;/p&gt;" style="text;html=1;strokeColor=none;fillColor=none;align=left;verticalAlign=middle;whiteSpace=wrap;rounded=0;fontFamily=Helvetica;fontSize=13;fontColor=#000000;spacing=0;labelPosition=center;verticalLabelPosition=middle;" parent="Gk3vsJrQaXJPjO9UwzMO-29" vertex="1">
          <mxGeometry x="32" width="132" height="42" as="geometry" />
        </mxCell>
        <mxCell id="Gk3vsJrQaXJPjO9UwzMO-35" value="" style="group" parent="1" vertex="1" connectable="0">
          <mxGeometry x="115.5" y="177" width="142" height="42" as="geometry" />
        </mxCell>
        <mxCell id="Gk3vsJrQaXJPjO9UwzMO-36" value="&lt;p style=&quot;font-size: 13px&quot;&gt;Commerce forwards the token.&lt;/p&gt;" style="text;html=1;strokeColor=none;fillColor=none;align=left;verticalAlign=middle;whiteSpace=wrap;rounded=0;fontFamily=Helvetica;fontSize=13;fontColor=#000000;spacing=0;labelPosition=center;verticalLabelPosition=middle;" parent="Gk3vsJrQaXJPjO9UwzMO-35" vertex="1">
          <mxGeometry x="32" width="110" height="42" as="geometry" />
        </mxCell>
        <mxCell id="Gk3vsJrQaXJPjO9UwzMO-37" value="&lt;div style=&quot;text-align: center ; font-size: 14px&quot;&gt;4&lt;/div&gt;" style="ellipse;whiteSpace=wrap;html=1;aspect=fixed;fillColor=#BD3C39;fontFamily=Helvetica;align=center;strokeColor=none;fontSize=14;verticalAlign=middle;horizontal=1;spacingTop=0;spacingRight=0;spacingLeft=0;fontColor=#FFFFFF;spacing=0;labelPosition=center;verticalLabelPosition=middle;spacingBottom=2;" parent="Gk3vsJrQaXJPjO9UwzMO-35" vertex="1">
          <mxGeometry y="9" width="24" height="24" as="geometry" />
        </mxCell>
        <mxCell id="Gk3vsJrQaXJPjO9UwzMO-38" value="" style="group" parent="1" vertex="1" connectable="0">
          <mxGeometry x="115.5" y="97" width="142" height="42" as="geometry" />
        </mxCell>
        <mxCell id="Gk3vsJrQaXJPjO9UwzMO-39" value="&lt;p style=&quot;font-size: 13px&quot;&gt;Run the create&lt;br&gt;BraintreeClientToken mutation.&lt;/p&gt;" style="text;html=1;strokeColor=none;fillColor=none;align=left;verticalAlign=middle;whiteSpace=wrap;rounded=0;fontFamily=Helvetica;fontSize=13;fontColor=#000000;spacing=0;labelPosition=center;verticalLabelPosition=middle;" parent="Gk3vsJrQaXJPjO9UwzMO-38" vertex="1">
          <mxGeometry x="32" width="110" height="42" as="geometry" />
        </mxCell>
        <mxCell id="Gk3vsJrQaXJPjO9UwzMO-40" value="&lt;div style=&quot;text-align: center ; font-size: 14px&quot;&gt;1&lt;/div&gt;" style="ellipse;whiteSpace=wrap;html=1;aspect=fixed;fillColor=#BD3C39;fontFamily=Helvetica;align=center;strokeColor=none;fontSize=14;verticalAlign=middle;horizontal=1;spacingTop=0;spacingRight=0;spacingLeft=0;fontColor=#FFFFFF;spacing=0;labelPosition=center;verticalLabelPosition=middle;spacingBottom=2;" parent="Gk3vsJrQaXJPjO9UwzMO-38" vertex="1">
          <mxGeometry y="11" width="24" height="24" as="geometry" />
        </mxCell>
        <mxCell id="Gk3vsJrQaXJPjO9UwzMO-41" value="" style="edgeStyle=orthogonalEdgeStyle;rounded=0;html=1;jettySize=auto;orthogonalLoop=1;strokeColor=#CC0000;strokeWidth=2;sourcePerimeterSpacing=8;dashed=1;dashPattern=1 1;endArrow=open;endFill=0;targetPerimeterSpacing=8;" parent="1" edge="1">
          <mxGeometry relative="1" as="geometry">
            <Array as="points">
              <mxPoint x="230" y="148" />
              <mxPoint x="230" y="148" />
            </Array>
            <mxPoint x="87" y="148" as="sourcePoint" />
            <mxPoint x="309" y="148" as="targetPoint" />
          </mxGeometry>
        </mxCell>
        <mxCell id="Gk3vsJrQaXJPjO9UwzMO-42" value="" style="edgeStyle=orthogonalEdgeStyle;rounded=0;html=1;dashed=1;dashPattern=1 1;sourcePerimeterSpacing=8;endArrow=none;endFill=0;jettySize=auto;orthogonalLoop=1;strokeColor=#CC0000;strokeWidth=2;curved=1;startArrow=open;startFill=0;fontFamily=Helvetica;fontSize=11;fontColor=#000000;align=center;targetPerimeterSpacing=8;endSize=6;startSize=6;" parent="1" edge="1">
          <mxGeometry relative="1" as="geometry">
            <Array as="points" />
            <mxPoint x="87" y="168" as="sourcePoint" />
            <mxPoint x="307" y="168" as="targetPoint" />
          </mxGeometry>
        </mxCell>
        <mxCell id="Gk3vsJrQaXJPjO9UwzMO-44" value="" style="edgeStyle=orthogonalEdgeStyle;rounded=0;html=1;dashed=1;dashPattern=1 1;sourcePerimeterSpacing=8;endArrow=none;endFill=0;jettySize=auto;orthogonalLoop=1;strokeColor=#CC0000;strokeWidth=2;curved=1;startArrow=open;startFill=0;fontFamily=Helvetica;fontSize=11;fontColor=#000000;align=center;targetPerimeterSpacing=8;endSize=6;startSize=6;exitX=0.882;exitY=0.4;exitDx=0;exitDy=0;exitPerimeter=0;entryX=-0.016;entryY=0.393;entryDx=0;entryDy=0;entryPerimeter=0;" parent="1" edge="1">
          <mxGeometry relative="1" as="geometry">
            <Array as="points" />
            <mxPoint x="84.03448275862092" y="345" as="sourcePoint" />
            <mxPoint x="589.344827586207" y="345" as="targetPoint" />
          </mxGeometry>
        </mxCell>
        <mxCell id="Gk3vsJrQaXJPjO9UwzMO-52" value="&lt;h2 style=&quot;font-size: 15px&quot;&gt;Client&lt;br style=&quot;font-size: 15px&quot;&gt;integration&lt;/h2&gt;" style="text;html=1;resizable=0;autosize=1;align=center;verticalAlign=middle;points=[];fillColor=none;strokeColor=none;rounded=0;fontSize=15;" parent="1" vertex="1">
          <mxGeometry x="0.5" width="100" height="70" as="geometry" />
        </mxCell>
        <mxCell id="Gk3vsJrQaXJPjO9UwzMO-53" value="&lt;h2 style=&quot;font-size: 15px;&quot;&gt;Adobe Commerce&lt;/h2&gt;" style="text;html=1;resizable=0;autosize=1;align=center;verticalAlign=middle;points=[];fillColor=none;strokeColor=none;rounded=0;fontSize=15;" parent="1" vertex="1">
          <mxGeometry x="265.5" y="5" width="150" height="60" as="geometry" />
        </mxCell>
        <mxCell id="Gk3vsJrQaXJPjO9UwzMO-54" value="&lt;div style=&quot;text-align: center ; font-size: 14px&quot;&gt;&lt;font style=&quot;font-size: 14px ; line-height: 100%&quot;&gt;5&lt;/font&gt;&lt;/div&gt;" style="ellipse;whiteSpace=wrap;html=1;aspect=fixed;fillColor=#BD3C39;fontFamily=Helvetica;align=center;strokeColor=none;fontSize=14;verticalAlign=middle;horizontal=1;spacingTop=0;spacingRight=0;spacingLeft=0;fontColor=#FFFFFF;spacing=0;labelPosition=center;verticalLabelPosition=middle;spacingBottom=2;" parent="1" vertex="1">
          <mxGeometry x="115.5" y="279" width="24" height="24" as="geometry" />
        </mxCell>
        <mxCell id="Gk3vsJrQaXJPjO9UwzMO-55" value="&lt;p style=&quot;font-size: 13px&quot;&gt;The client sends payment info directly to Braintree.&lt;/p&gt;" style="text;html=1;strokeColor=none;fillColor=none;align=left;verticalAlign=middle;whiteSpace=wrap;rounded=0;fontFamily=Helvetica;fontSize=13;fontColor=#000000;spacing=0;labelPosition=center;verticalLabelPosition=middle;" parent="1" vertex="1">
          <mxGeometry x="148" y="268" width="139" height="42" as="geometry" />
        </mxCell>
        <mxCell id="Gk3vsJrQaXJPjO9UwzMO-59" value="&lt;h2 style=&quot;font-size: 15px&quot;&gt;Braintree&lt;/h2&gt;" style="text;html=1;resizable=0;autosize=1;align=center;verticalAlign=middle;points=[];fillColor=none;strokeColor=none;rounded=0;fontSize=15;fontColor=#000000;" parent="1" vertex="1">
          <mxGeometry x="602" y="10" width="80" height="50" as="geometry" />
        </mxCell>
        <mxCell id="qpCh0MkbTUWykfH9qEjh-1" value="" style="shape=image;verticalLabelPosition=bottom;labelBackgroundColor=#ffffff;verticalAlign=top;aspect=fixed;imageAspect=0;image=data:image/svg+xml,PHN2ZyB4bWxucz0iaHR0cDovL3d3dy53My5vcmcvMjAwMC9zdmciIHZpZXdCb3g9IjAgMCA4MCA4MCIgZmlsbD0iIzAwMDAwMCI+PHBhdGggc3R5bGU9ImxpbmUtaGVpZ2h0Om5vcm1hbDt0ZXh0LWluZGVudDowO3RleHQtYWxpZ246c3RhcnQ7dGV4dC1kZWNvcmF0aW9uLWxpbmU6bm9uZTt0ZXh0LWRlY29yYXRpb24tc3R5bGU6c29saWQ7dGV4dC1kZWNvcmF0aW9uLWNvbG9yOiMwMDA7dGV4dC10cmFuc2Zvcm06bm9uZTtibG9jay1wcm9ncmVzc2lvbjp0Yjtpc29sYXRpb246YXV0bzttaXgtYmxlbmQtbW9kZTpub3JtYWwiIGQ9Ik0gMTEgMTYgQyA4LjI1MDQ4MzkgMTYgNiAxOC4yNTA0ODQgNiAyMSBMIDYgNTkgQyA2IDYxLjc0OTUxNiA4LjI1MDQ4MzkgNjQgMTEgNjQgTCA1MS41NjA1NDcgNjQgQyA1NS4yNDQxMSA3Ni43ODQxOTYgNjQuMjIwMTc1IDc5LjgwMjI5OCA2NC42OTcyNjYgNzkuOTUzMTI1IEMgNjQuNzk2MjY2IDc5Ljk4NDEyNSA2NC44OTggODAgNjUgODAgQyA2NS4xMDIgODAgNjUuMjAyNzgxIDc5Ljk4MzEyNSA2NS4zMDA3ODEgNzkuOTUzMTI1IEMgNjUuOTAxNzgxIDc5Ljc2MzEyNSA4MCA3NS4wNDExNzIgODAgNTEuOTUxMTcyIEMgODAgNTEuMzk4MTcyIDc5LjU1MiA1MC45NTExNzIgNzkgNTAuOTUxMTcyIEMgNzcuMjE2NTYyIDUwLjk1MTE3MiA3NS41MzY5NzEgNTAuNzkzODczIDc0IDUwLjU1ODU5NCBMIDc0IDIxIEMgNzQgMTguMjUwNDg0IDcxLjc0OTUxNiAxNiA2OSAxNiBMIDExIDE2IHogTSAxMSAxOCBMIDY5IDE4IEMgNzAuNjY4NDg0IDE4IDcyIDE5LjMzMTUxNiA3MiAyMSBMIDcyIDI2IEwgOCAyNiBMIDggMjEgQyA4IDE5LjMzMTUxNiA5LjMzMTUxNjEgMTggMTEgMTggeiBNIDggMzAgTCA3MiAzMCBMIDcyIDUwLjE4MTY0MSBDIDY4LjA2NTkxNiA0OS4zNDQxNCA2NS40NzgzNzcgNDguMTIwNjk0IDY1LjQzOTQ1MyA0OC4xMDE1NjIgQyA2NS4xNjI0NTMgNDcuOTY2NTYzIDY0LjgzNzU5NCA0Ny45NjQ1NjMgNjQuNTU4NTk0IDQ4LjEwMTU2MiBDIDY0LjUwMDU5NCA0OC4xMzA1NjMgNTguNjc3MDQ3IDUwLjk0OTIxOSA1MC45OTgwNDcgNTAuOTQ5MjE5IEMgNTAuNDQ2MDQ3IDUwLjk0OTIxOSA0OS45OTgwNDcgNTEuMzk3MjE5IDQ5Ljk5ODA0NyA1MS45NDkyMTkgQyA0OS45OTgwNDcgNTUuNzg5NzY4IDUwLjM5NTc1MiA1OS4xMTIwNTcgNTEuMDQ4ODI4IDYyIEwgMTEgNjIgQyA5LjMzMTUxNjEgNjIgOCA2MC42Njg0ODQgOCA1OSBMIDggMzAgeiBNIDEyIDM1IEEgMSAxIDAgMCAwIDExIDM2IEEgMSAxIDAgMCAwIDEyIDM3IEEgMSAxIDAgMCAwIDEzIDM2IEEgMSAxIDAgMCAwIDEyIDM1IHogTSAxNiAzNSBBIDEgMSAwIDAgMCAxNSAzNiBBIDEgMSAwIDAgMCAxNiAzNyBBIDEgMSAwIDAgMCAxNyAzNiBBIDEgMSAwIDAgMCAxNiAzNSB6IE0gMjAgMzUgQSAxIDEgMCAwIDAgMTkgMzYgQSAxIDEgMCAwIDAgMjAgMzcgQSAxIDEgMCAwIDAgMjEgMzYgQSAxIDEgMCAwIDAgMjAgMzUgeiBNIDI0IDM1IEEgMSAxIDAgMCAwIDIzIDM2IEEgMSAxIDAgMCAwIDI0IDM3IEEgMSAxIDAgMCAwIDI1IDM2IEEgMSAxIDAgMCAwIDI0IDM1IHogTSAyOCAzNSBBIDEgMSAwIDAgMCAyNyAzNiBBIDEgMSAwIDAgMCAyOCAzNyBBIDEgMSAwIDAgMCAyOSAzNiBBIDEgMSAwIDAgMCAyOCAzNSB6IE0gMzIgMzUgQSAxIDEgMCAwIDAgMzEgMzYgQSAxIDEgMCAwIDAgMzIgMzcgQSAxIDEgMCAwIDAgMzMgMzYgQSAxIDEgMCAwIDAgMzIgMzUgeiBNIDM2IDM1IEEgMSAxIDAgMCAwIDM1IDM2IEEgMSAxIDAgMCAwIDM2IDM3IEEgMSAxIDAgMCAwIDM3IDM2IEEgMSAxIDAgMCAwIDM2IDM1IHogTSA2NSA1MC4xMDE1NjIgQyA2Ni40ODEgNTAuNzU2NTYzIDcxLjQ4NTIzNCA1Mi43NDM1NDcgNzcuOTkwMjM0IDUyLjkzNTU0NyBDIDc3LjYzNjIzNCA3Mi4wOTk1NDcgNjcgNzcuMTU2NSA2NSA3Ny45Mzc1IEMgNjMgNzcuMTU2NSA1Mi4zNjM3NjYgNzIuMDk5NTQ3IDUyLjAwOTc2NiA1Mi45MzU1NDcgQyA1OC41MTQ3NjYgNTIuNzQzNTQ3IDYzLjUxOSA1MC43NTY1NjMgNjUgNTAuMTAxNTYyIHogTSA3NC4wODc4OTEgNTYuMDAzOTA2IEMgNzMuNTMyODkxIDU1Ljk1MjkwNiA3My4wNTA5MDYgNTYuMzYyMTA5IDczLjAwMzkwNiA1Ni45MTIxMDkgTCA3Mi45OTQxNDEgNTcuMDI5Mjk3IEMgNzIuOTU1MTQxIDU3LjU4MDI5NyA3My4zNzA4NzUgNTguMDYwNjA5IDczLjkyMTg3NSA1OC4wOTk2MDkgQyA3My45NDU4NzUgNTguMTAwNjA5IDczLjk2ODE4NyA1OC4xMDE1NjIgNzMuOTkyMTg4IDU4LjEwMTU2MiBDIDc0LjUxMjE4NyA1OC4xMDE1NjMgNzQuOTUyMjM0IDU3LjY5Nzg3NSA3NC45OTAyMzQgNTcuMTcxODc1IEwgNzQuOTk2MDk0IDU3LjA4NTkzOCBDIDc1LjA0NDA5NCA1Ni41MzU5MzggNzQuNjM3ODkxIDU2LjA1MTkwNiA3NC4wODc4OTEgNTYuMDAzOTA2IHogTSA3My4xNjAxNTYgNjAuMTkzMzU5IEMgNzIuNzczMDYyIDYwLjI3MjA2MyA3Mi40Mzk3NSA2MC41ODYyODEgNzIuMzQzNzUgNjAuOTg4MjgxIEMgNzIuMjE1NzUgNjEuNTI1MjgxIDcyLjU1MDkzOCA2Mi4wNDI4NzUgNzMuMDg1OTM4IDYyLjE3MTg3NSBDIDczLjE2MTkzNyA2Mi4xODk4NzUgNzMuMjM3NSA2Mi4xOTkyMTkgNzMuMzEyNSA2Mi4xOTkyMTkgQyA3My43Njc1IDYyLjE5OTIxOSA3NC4xODQ4NzUgNjEuODc0MDYzIDc0LjI5Njg3NSA2MS40MTQwNjIgQyA3NC4yOTc4NzUgNjEuNDEyMDYyIDc0LjMxMTUgNjEuMzUzNTYzIDc0LjMxMjUgNjEuMzUxNTYyIEMgNzQuNDM4NSA2MC44MTQ1NjIgNzQuMDk1NTk0IDYwLjMyNjIxOSA3My41NTg1OTQgNjAuMTk5MjE5IEMgNzMuNDI0NTk0IDYwLjE2NzQ2OSA3My4yODkxODcgNjAuMTY3MTI1IDczLjE2MDE1NiA2MC4xOTMzNTkgeiBNIDcyLjAzMTI1IDY0LjA4MjAzMSBDIDcxLjY0MTQ4NCA2NC4wNzcwNjIgNzEuMjY3MzEzIDY0LjMwMjE0MSA3MS4xMDE1NjIgNjQuNjgxNjQxIEwgNzEuMDU4NTk0IDY0Ljc4MTI1IEMgNzAuODQwNTk0IDY1LjI4OTI1IDcxLjA3NjAzMSA2NS44NzY3NSA3MS41ODIwMzEgNjYuMDkzNzUgQyA3MS43MTEwMzEgNjYuMTQ5NzUgNzEuODQ1NTYyIDY2LjE3NTc4MSA3MS45NzY1NjIgNjYuMTc1NzgxIEMgNzIuMzY0NTYzIDY2LjE3NTc4MSA3Mi43MzQ0ODQgNjUuOTQ5MzEzIDcyLjg5NjQ4NCA2NS41NzAzMTIgTCA3Mi45MzM1OTQgNjUuNDg0Mzc1IEMgNzMuMTU1NTk0IDY0Ljk3ODM3NSA3Mi45MjU5MjIgNjQuMzg4OTY5IDcyLjQxOTkyMiA2NC4xNjc5NjkgQyA3Mi4yOTM0MjIgNjQuMTEyNDY5IDcyLjE2MTE3MiA2NC4wODM2ODcgNzIuMDMxMjUgNjQuMDgyMDMxIHogTSA2OS44MzIwMzEgNjcuNzY5NTMxIEMgNjkuNTgxMDMxIDY3LjgxODY1NiA2OS4zNDc4NTkgNjcuOTYyNDA2IDY5LjE5MzM1OSA2OC4xOTE0MDYgTCA2OS4xMzQ3NjYgNjguMjc5Mjk3IEMgNjguODI4NzY2IDY4LjczOTI5NyA2OC45NTMxMDkgNjkuMzYxOTY5IDY5LjQxMjEwOSA2OS42Njc5NjkgQyA2OS41ODMxMDkgNjkuNzgxOTY5IDY5Ljc3NTc5NyA2OS44MzQ5ODQgNjkuOTY2Nzk3IDY5LjgzMzk4NCBDIDcwLjI4OTc5NyA2OS44MzM5ODQgNzAuNjA1ODI4IDY5LjY3NzY3MiA3MC43OTg4MjggNjkuMzg4NjcyIEwgNzAuODUzNTE2IDY5LjMwODU5NCBDIDcxLjE2MTUxNiA2OC44NTA1OTQgNzEuMDQwMDMxIDY4LjIyODkyMiA3MC41ODIwMzEgNjcuOTE5OTIyIEMgNzAuMzUyNTMxIDY3Ljc2NjQyMiA3MC4wODMwMzEgNjcuNzIwNDA2IDY5LjgzMjAzMSA2Ny43Njk1MzEgeiBNIDY3LjMyNjE3MiA3MS4wMzcxMDkgQyA2Ny4wNjIxNzIgNzEuMDQ3ODU5IDY2Ljc5ODQ2OSA3MS4xNTYwMTYgNjYuNjA1NDY5IDcxLjM1MzUxNiBDIDY2LjIxNDQ2OSA3MS43NDQ1MTYgNjYuMjE0NDY5IDcyLjM3NjU3OCA2Ni42MDU0NjkgNzIuNzY3NTc4IEMgNjYuODAxNDY5IDcyLjk2MjU3OCA2Ny4wNTY1IDczLjA2MDU0NyA2Ny4zMTI1IDczLjA2MDU0NyBDIDY3LjU2ODUgNzMuMDYwNTQ3IDY3LjgyNDUzMSA3Mi45NjI1NzggNjguMDE5NTMxIDcyLjc2NzU3OCBMIDY4LjA5OTYwOSA3Mi42ODc1IEMgNjguNDg1NjA5IDcyLjI5MzUgNjguNDQ3NzM0IDcxLjY5MzY0MSA2OC4wNTI3MzQgNzEuMzA2NjQxIEMgNjcuODU1NzM0IDcxLjExMzE0MSA2Ny41OTAxNzIgNzEuMDI2MzU5IDY3LjMyNjE3MiA3MS4wMzcxMDkgeiIgZm9udC13ZWlnaHQ9IjQwMCIgZm9udC1mYW1pbHk9InNhbnMtc2VyaWYiIHdoaXRlLXNwYWNlPSJub3JtYWwiIG92ZXJmbG93PSJ2aXNpYmxlIiBmaWxsPSIjMDAwMDAwIi8+PC9zdmc+;" parent="1" vertex="1">
          <mxGeometry x="612" y="300.5" width="60" height="60" as="geometry" />
        </mxCell>
        <mxCell id="qpCh0MkbTUWykfH9qEjh-2" value="" style="shape=image;verticalLabelPosition=bottom;labelBackgroundColor=#ffffff;verticalAlign=top;aspect=fixed;imageAspect=0;image=data:image/svg+xml,PHN2ZyB4bWxucz0iaHR0cDovL3d3dy53My5vcmcvMjAwMC9zdmciIHZpZXdCb3g9IjAgMCA4MCA4MCIgZmlsbD0iIzAwMDAwMCI+PHBhdGggc3R5bGU9ImxpbmUtaGVpZ2h0Om5vcm1hbDt0ZXh0LWluZGVudDowO3RleHQtYWxpZ246c3RhcnQ7dGV4dC1kZWNvcmF0aW9uLWxpbmU6bm9uZTt0ZXh0LWRlY29yYXRpb24tc3R5bGU6c29saWQ7dGV4dC1kZWNvcmF0aW9uLWNvbG9yOiMwMDA7dGV4dC10cmFuc2Zvcm06bm9uZTtibG9jay1wcm9ncmVzc2lvbjp0Yjtpc29sYXRpb246YXV0bzttaXgtYmxlbmQtbW9kZTpub3JtYWwiIGQ9Ik0gMTEgMTYgQyA4LjI1MDQ4MzkgMTYgNiAxOC4yNTA0ODQgNiAyMSBMIDYgNTkgQyA2IDYxLjc0OTUxNiA4LjI1MDQ4MzkgNjQgMTEgNjQgTCA1MS41NjA1NDcgNjQgQyA1NS4yNDQxMSA3Ni43ODQxOTYgNjQuMjIwMTc1IDc5LjgwMjI5OCA2NC42OTcyNjYgNzkuOTUzMTI1IEMgNjQuNzk2MjY2IDc5Ljk4NDEyNSA2NC44OTggODAgNjUgODAgQyA2NS4xMDIgODAgNjUuMjAyNzgxIDc5Ljk4MzEyNSA2NS4zMDA3ODEgNzkuOTUzMTI1IEMgNjUuOTAxNzgxIDc5Ljc2MzEyNSA4MCA3NS4wNDExNzIgODAgNTEuOTUxMTcyIEMgODAgNTEuMzk4MTcyIDc5LjU1MiA1MC45NTExNzIgNzkgNTAuOTUxMTcyIEMgNzcuMjE2NTYyIDUwLjk1MTE3MiA3NS41MzY5NzEgNTAuNzkzODczIDc0IDUwLjU1ODU5NCBMIDc0IDIxIEMgNzQgMTguMjUwNDg0IDcxLjc0OTUxNiAxNiA2OSAxNiBMIDExIDE2IHogTSAxMSAxOCBMIDY5IDE4IEMgNzAuNjY4NDg0IDE4IDcyIDE5LjMzMTUxNiA3MiAyMSBMIDcyIDI2IEwgOCAyNiBMIDggMjEgQyA4IDE5LjMzMTUxNiA5LjMzMTUxNjEgMTggMTEgMTggeiBNIDggMzAgTCA3MiAzMCBMIDcyIDUwLjE4MTY0MSBDIDY4LjA2NTkxNiA0OS4zNDQxNCA2NS40NzgzNzcgNDguMTIwNjk0IDY1LjQzOTQ1MyA0OC4xMDE1NjIgQyA2NS4xNjI0NTMgNDcuOTY2NTYzIDY0LjgzNzU5NCA0Ny45NjQ1NjMgNjQuNTU4NTk0IDQ4LjEwMTU2MiBDIDY0LjUwMDU5NCA0OC4xMzA1NjMgNTguNjc3MDQ3IDUwLjk0OTIxOSA1MC45OTgwNDcgNTAuOTQ5MjE5IEMgNTAuNDQ2MDQ3IDUwLjk0OTIxOSA0OS45OTgwNDcgNTEuMzk3MjE5IDQ5Ljk5ODA0NyA1MS45NDkyMTkgQyA0OS45OTgwNDcgNTUuNzg5NzY4IDUwLjM5NTc1MiA1OS4xMTIwNTcgNTEuMDQ4ODI4IDYyIEwgMTEgNjIgQyA5LjMzMTUxNjEgNjIgOCA2MC42Njg0ODQgOCA1OSBMIDggMzAgeiBNIDEyIDM1IEEgMSAxIDAgMCAwIDExIDM2IEEgMSAxIDAgMCAwIDEyIDM3IEEgMSAxIDAgMCAwIDEzIDM2IEEgMSAxIDAgMCAwIDEyIDM1IHogTSAxNiAzNSBBIDEgMSAwIDAgMCAxNSAzNiBBIDEgMSAwIDAgMCAxNiAzNyBBIDEgMSAwIDAgMCAxNyAzNiBBIDEgMSAwIDAgMCAxNiAzNSB6IE0gMjAgMzUgQSAxIDEgMCAwIDAgMTkgMzYgQSAxIDEgMCAwIDAgMjAgMzcgQSAxIDEgMCAwIDAgMjEgMzYgQSAxIDEgMCAwIDAgMjAgMzUgeiBNIDI0IDM1IEEgMSAxIDAgMCAwIDIzIDM2IEEgMSAxIDAgMCAwIDI0IDM3IEEgMSAxIDAgMCAwIDI1IDM2IEEgMSAxIDAgMCAwIDI0IDM1IHogTSAyOCAzNSBBIDEgMSAwIDAgMCAyNyAzNiBBIDEgMSAwIDAgMCAyOCAzNyBBIDEgMSAwIDAgMCAyOSAzNiBBIDEgMSAwIDAgMCAyOCAzNSB6IE0gMzIgMzUgQSAxIDEgMCAwIDAgMzEgMzYgQSAxIDEgMCAwIDAgMzIgMzcgQSAxIDEgMCAwIDAgMzMgMzYgQSAxIDEgMCAwIDAgMzIgMzUgeiBNIDM2IDM1IEEgMSAxIDAgMCAwIDM1IDM2IEEgMSAxIDAgMCAwIDM2IDM3IEEgMSAxIDAgMCAwIDM3IDM2IEEgMSAxIDAgMCAwIDM2IDM1IHogTSA2NSA1MC4xMDE1NjIgQyA2Ni40ODEgNTAuNzU2NTYzIDcxLjQ4NTIzNCA1Mi43NDM1NDcgNzcuOTkwMjM0IDUyLjkzNTU0NyBDIDc3LjYzNjIzNCA3Mi4wOTk1NDcgNjcgNzcuMTU2NSA2NSA3Ny45Mzc1IEMgNjMgNzcuMTU2NSA1Mi4zNjM3NjYgNzIuMDk5NTQ3IDUyLjAwOTc2NiA1Mi45MzU1NDcgQyA1OC41MTQ3NjYgNTIuNzQzNTQ3IDYzLjUxOSA1MC43NTY1NjMgNjUgNTAuMTAxNTYyIHogTSA3NC4wODc4OTEgNTYuMDAzOTA2IEMgNzMuNTMyODkxIDU1Ljk1MjkwNiA3My4wNTA5MDYgNTYuMzYyMTA5IDczLjAwMzkwNiA1Ni45MTIxMDkgTCA3Mi45OTQxNDEgNTcuMDI5Mjk3IEMgNzIuOTU1MTQxIDU3LjU4MDI5NyA3My4zNzA4NzUgNTguMDYwNjA5IDczLjkyMTg3NSA1OC4wOTk2MDkgQyA3My45NDU4NzUgNTguMTAwNjA5IDczLjk2ODE4NyA1OC4xMDE1NjIgNzMuOTkyMTg4IDU4LjEwMTU2MiBDIDc0LjUxMjE4NyA1OC4xMDE1NjMgNzQuOTUyMjM0IDU3LjY5Nzg3NSA3NC45OTAyMzQgNTcuMTcxODc1IEwgNzQuOTk2MDk0IDU3LjA4NTkzOCBDIDc1LjA0NDA5NCA1Ni41MzU5MzggNzQuNjM3ODkxIDU2LjA1MTkwNiA3NC4wODc4OTEgNTYuMDAzOTA2IHogTSA3My4xNjAxNTYgNjAuMTkzMzU5IEMgNzIuNzczMDYyIDYwLjI3MjA2MyA3Mi40Mzk3NSA2MC41ODYyODEgNzIuMzQzNzUgNjAuOTg4MjgxIEMgNzIuMjE1NzUgNjEuNTI1MjgxIDcyLjU1MDkzOCA2Mi4wNDI4NzUgNzMuMDg1OTM4IDYyLjE3MTg3NSBDIDczLjE2MTkzNyA2Mi4xODk4NzUgNzMuMjM3NSA2Mi4xOTkyMTkgNzMuMzEyNSA2Mi4xOTkyMTkgQyA3My43Njc1IDYyLjE5OTIxOSA3NC4xODQ4NzUgNjEuODc0MDYzIDc0LjI5Njg3NSA2MS40MTQwNjIgQyA3NC4yOTc4NzUgNjEuNDEyMDYyIDc0LjMxMTUgNjEuMzUzNTYzIDc0LjMxMjUgNjEuMzUxNTYyIEMgNzQuNDM4NSA2MC44MTQ1NjIgNzQuMDk1NTk0IDYwLjMyNjIxOSA3My41NTg1OTQgNjAuMTk5MjE5IEMgNzMuNDI0NTk0IDYwLjE2NzQ2OSA3My4yODkxODcgNjAuMTY3MTI1IDczLjE2MDE1NiA2MC4xOTMzNTkgeiBNIDcyLjAzMTI1IDY0LjA4MjAzMSBDIDcxLjY0MTQ4NCA2NC4wNzcwNjIgNzEuMjY3MzEzIDY0LjMwMjE0MSA3MS4xMDE1NjIgNjQuNjgxNjQxIEwgNzEuMDU4NTk0IDY0Ljc4MTI1IEMgNzAuODQwNTk0IDY1LjI4OTI1IDcxLjA3NjAzMSA2NS44NzY3NSA3MS41ODIwMzEgNjYuMDkzNzUgQyA3MS43MTEwMzEgNjYuMTQ5NzUgNzEuODQ1NTYyIDY2LjE3NTc4MSA3MS45NzY1NjIgNjYuMTc1NzgxIEMgNzIuMzY0NTYzIDY2LjE3NTc4MSA3Mi43MzQ0ODQgNjUuOTQ5MzEzIDcyLjg5NjQ4NCA2NS41NzAzMTIgTCA3Mi45MzM1OTQgNjUuNDg0Mzc1IEMgNzMuMTU1NTk0IDY0Ljk3ODM3NSA3Mi45MjU5MjIgNjQuMzg4OTY5IDcyLjQxOTkyMiA2NC4xNjc5NjkgQyA3Mi4yOTM0MjIgNjQuMTEyNDY5IDcyLjE2MTE3MiA2NC4wODM2ODcgNzIuMDMxMjUgNjQuMDgyMDMxIHogTSA2OS44MzIwMzEgNjcuNzY5NTMxIEMgNjkuNTgxMDMxIDY3LjgxODY1NiA2OS4zNDc4NTkgNjcuOTYyNDA2IDY5LjE5MzM1OSA2OC4xOTE0MDYgTCA2OS4xMzQ3NjYgNjguMjc5Mjk3IEMgNjguODI4NzY2IDY4LjczOTI5NyA2OC45NTMxMDkgNjkuMzYxOTY5IDY5LjQxMjEwOSA2OS42Njc5NjkgQyA2OS41ODMxMDkgNjkuNzgxOTY5IDY5Ljc3NTc5NyA2OS44MzQ5ODQgNjkuOTY2Nzk3IDY5LjgzMzk4NCBDIDcwLjI4OTc5NyA2OS44MzM5ODQgNzAuNjA1ODI4IDY5LjY3NzY3MiA3MC43OTg4MjggNjkuMzg4NjcyIEwgNzAuODUzNTE2IDY5LjMwODU5NCBDIDcxLjE2MTUxNiA2OC44NTA1OTQgNzEuMDQwMDMxIDY4LjIyODkyMiA3MC41ODIwMzEgNjcuOTE5OTIyIEMgNzAuMzUyNTMxIDY3Ljc2NjQyMiA3MC4wODMwMzEgNjcuNzIwNDA2IDY5LjgzMjAzMSA2Ny43Njk1MzEgeiBNIDY3LjMyNjE3MiA3MS4wMzcxMDkgQyA2Ny4wNjIxNzIgNzEuMDQ3ODU5IDY2Ljc5ODQ2OSA3MS4xNTYwMTYgNjYuNjA1NDY5IDcxLjM1MzUxNiBDIDY2LjIxNDQ2OSA3MS43NDQ1MTYgNjYuMjE0NDY5IDcyLjM3NjU3OCA2Ni42MDU0NjkgNzIuNzY3NTc4IEMgNjYuODAxNDY5IDcyLjk2MjU3OCA2Ny4wNTY1IDczLjA2MDU0NyA2Ny4zMTI1IDczLjA2MDU0NyBDIDY3LjU2ODUgNzMuMDYwNTQ3IDY3LjgyNDUzMSA3Mi45NjI1NzggNjguMDE5NTMxIDcyLjc2NzU3OCBMIDY4LjA5OTYwOSA3Mi42ODc1IEMgNjguNDg1NjA5IDcyLjI5MzUgNjguNDQ3NzM0IDcxLjY5MzY0MSA2OC4wNTI3MzQgNzEuMzA2NjQxIEMgNjcuODU1NzM0IDcxLjExMzE0MSA2Ny41OTAxNzIgNzEuMDI2MzU5IDY3LjMyNjE3MiA3MS4wMzcxMDkgeiIgZm9udC13ZWlnaHQ9IjQwMCIgZm9udC1mYW1pbHk9InNhbnMtc2VyaWYiIHdoaXRlLXNwYWNlPSJub3JtYWwiIG92ZXJmbG93PSJ2aXNpYmxlIiBmaWxsPSIjMDAwMDAwIi8+PC9zdmc+;" parent="1" vertex="1">
          <mxGeometry x="612" y="613" width="60" height="60" as="geometry" />
        </mxCell>
        <mxCell id="qpCh0MkbTUWykfH9qEjh-14" value="" style="group" parent="1" vertex="1" connectable="0">
          <mxGeometry x="118" y="657.5" width="176" height="60" as="geometry" />
        </mxCell>
        <mxCell id="qpCh0MkbTUWykfH9qEjh-15" value="&lt;div style=&quot;text-align: center ; font-size: 14px&quot;&gt;12&lt;/div&gt;" style="ellipse;whiteSpace=wrap;html=1;aspect=fixed;fillColor=#BD3C39;fontFamily=Helvetica;align=center;strokeColor=none;fontSize=14;verticalAlign=middle;horizontal=1;spacingTop=0;spacingRight=0;spacingLeft=0;fontColor=#FFFFFF;spacing=0;labelPosition=center;verticalLabelPosition=middle;spacingBottom=2;" parent="qpCh0MkbTUWykfH9qEjh-14" vertex="1">
          <mxGeometry y="12.857142857142858" width="24.068376068376068" height="24.068376068376068" as="geometry" />
        </mxCell>
        <mxCell id="qpCh0MkbTUWykfH9qEjh-16" value="&lt;p style=&quot;font-size: 13px&quot;&gt;Commerce creates an order.&lt;/p&gt;" style="text;html=1;strokeColor=none;fillColor=none;align=left;verticalAlign=middle;whiteSpace=wrap;rounded=0;fontFamily=Helvetica;fontSize=13;fontColor=#000000;spacing=0;labelPosition=center;verticalLabelPosition=middle;" parent="qpCh0MkbTUWykfH9qEjh-14" vertex="1">
          <mxGeometry x="33.5954415954416" y="-1" width="142.4045584045584" height="60" as="geometry" />
        </mxCell>
        <mxCell id="qpCh0MkbTUWykfH9qEjh-17" value="" style="group" parent="1" vertex="1" connectable="0">
          <mxGeometry x="117.5" y="582.5" width="143" height="42" as="geometry" />
        </mxCell>
        <mxCell id="qpCh0MkbTUWykfH9qEjh-18" value="&lt;div style=&quot;text-align: center ; font-size: 14px&quot;&gt;9&lt;/div&gt;" style="ellipse;whiteSpace=wrap;html=1;aspect=fixed;fillColor=#BD3C39;fontFamily=Helvetica;align=center;strokeColor=none;fontSize=14;verticalAlign=middle;horizontal=1;spacingTop=0;spacingRight=0;spacingLeft=0;fontColor=#FFFFFF;spacing=0;labelPosition=center;verticalLabelPosition=middle;spacingBottom=2;" parent="qpCh0MkbTUWykfH9qEjh-17" vertex="1">
          <mxGeometry y="9" width="24" height="24" as="geometry" />
        </mxCell>
        <mxCell id="qpCh0MkbTUWykfH9qEjh-19" value="&lt;p style=&quot;font-size: 13px&quot;&gt;Run the placeOrder mutation.&lt;/p&gt;" style="text;html=1;strokeColor=none;fillColor=none;align=left;verticalAlign=middle;whiteSpace=wrap;rounded=0;fontFamily=Helvetica;fontSize=13;fontColor=#000000;spacing=0;labelPosition=center;verticalLabelPosition=middle;" parent="qpCh0MkbTUWykfH9qEjh-17" vertex="1">
          <mxGeometry x="33" width="110" height="42" as="geometry" />
        </mxCell>
        <mxCell id="qpCh0MkbTUWykfH9qEjh-20" value="" style="edgeStyle=orthogonalEdgeStyle;rounded=0;html=1;jettySize=auto;orthogonalLoop=1;strokeColor=#CC0000;strokeWidth=2;sourcePerimeterSpacing=8;dashed=1;dashPattern=1 1;endArrow=open;endFill=0;targetPerimeterSpacing=8;" parent="1" edge="1">
          <mxGeometry relative="1" as="geometry">
            <Array as="points">
              <mxPoint x="232" y="632.5" />
              <mxPoint x="232" y="632.5" />
            </Array>
            <mxPoint x="89.27586206896558" y="632.8103448275863" as="sourcePoint" />
            <mxPoint x="311.344827586207" y="632.8103448275863" as="targetPoint" />
          </mxGeometry>
        </mxCell>
        <mxCell id="qpCh0MkbTUWykfH9qEjh-21" value="" style="edgeStyle=orthogonalEdgeStyle;rounded=0;html=1;dashed=1;dashPattern=1 1;sourcePerimeterSpacing=8;endArrow=none;endFill=0;jettySize=auto;orthogonalLoop=1;strokeColor=#CC0000;strokeWidth=2;curved=1;startArrow=open;startFill=0;fontFamily=Helvetica;fontSize=11;fontColor=#000000;align=center;targetPerimeterSpacing=8;endSize=6;startSize=6;" parent="1" edge="1">
          <mxGeometry relative="1" as="geometry">
            <Array as="points" />
            <mxPoint x="89" y="652.5" as="sourcePoint" />
            <mxPoint x="308.99999999999955" y="652.5" as="targetPoint" />
          </mxGeometry>
        </mxCell>
        <mxCell id="qpCh0MkbTUWykfH9qEjh-22" value="" style="group" parent="1" vertex="1" connectable="0">
          <mxGeometry x="406.5" y="655" width="176" height="60" as="geometry" />
        </mxCell>
        <mxCell id="qpCh0MkbTUWykfH9qEjh-23" value="&lt;div style=&quot;text-align: center ; font-size: 14px&quot;&gt;11&lt;/div&gt;" style="ellipse;whiteSpace=wrap;html=1;aspect=fixed;fillColor=#BD3C39;fontFamily=Helvetica;align=center;strokeColor=none;fontSize=14;verticalAlign=middle;horizontal=1;spacingTop=0;spacingRight=0;spacingLeft=0;fontColor=#FFFFFF;spacing=0;labelPosition=center;verticalLabelPosition=middle;spacingBottom=2;" parent="qpCh0MkbTUWykfH9qEjh-22" vertex="1">
          <mxGeometry y="12.857142857142858" width="24.068376068376068" height="24.068376068376068" as="geometry" />
        </mxCell>
        <mxCell id="qpCh0MkbTUWykfH9qEjh-24" value="&lt;p style=&quot;font-size: 13px&quot;&gt;Braintree sends the response to Commerce.&lt;/p&gt;" style="text;html=1;strokeColor=none;fillColor=none;align=left;verticalAlign=middle;whiteSpace=wrap;rounded=0;fontFamily=Helvetica;fontSize=13;fontColor=#000000;spacing=0;labelPosition=center;verticalLabelPosition=middle;" parent="qpCh0MkbTUWykfH9qEjh-22" vertex="1">
          <mxGeometry x="33.5954415954416" y="-1" width="142.4045584045584" height="60" as="geometry" />
        </mxCell>
        <mxCell id="qpCh0MkbTUWykfH9qEjh-25" value="" style="group" parent="1" vertex="1" connectable="0">
          <mxGeometry x="406" y="580" width="180" height="42" as="geometry" />
        </mxCell>
        <mxCell id="qpCh0MkbTUWykfH9qEjh-26" value="&lt;div style=&quot;text-align: center ; font-size: 14px&quot;&gt;10&lt;/div&gt;" style="ellipse;whiteSpace=wrap;html=1;aspect=fixed;fillColor=#BD3C39;fontFamily=Helvetica;align=center;strokeColor=none;fontSize=14;verticalAlign=middle;horizontal=1;spacingTop=0;spacingRight=0;spacingLeft=0;fontColor=#FFFFFF;spacing=0;labelPosition=center;verticalLabelPosition=middle;spacingBottom=2;" parent="qpCh0MkbTUWykfH9qEjh-25" vertex="1">
          <mxGeometry y="9" width="24" height="24" as="geometry" />
        </mxCell>
        <mxCell id="qpCh0MkbTUWykfH9qEjh-27" value="&lt;p style=&quot;font-size: 13px&quot;&gt;Commerce sends an authorization request.&lt;/p&gt;" style="text;html=1;strokeColor=none;fillColor=none;align=left;verticalAlign=middle;whiteSpace=wrap;rounded=0;fontFamily=Helvetica;fontSize=13;fontColor=#000000;spacing=0;labelPosition=center;verticalLabelPosition=middle;" parent="qpCh0MkbTUWykfH9qEjh-25" vertex="1">
          <mxGeometry x="33" width="147" height="42" as="geometry" />
        </mxCell>
        <mxCell id="qpCh0MkbTUWykfH9qEjh-28" value="" style="edgeStyle=orthogonalEdgeStyle;rounded=0;html=1;jettySize=auto;orthogonalLoop=1;strokeColor=#CC0000;strokeWidth=2;sourcePerimeterSpacing=8;dashed=1;dashPattern=1 1;endArrow=open;endFill=0;targetPerimeterSpacing=8;" parent="1" edge="1">
          <mxGeometry relative="1" as="geometry">
            <Array as="points">
              <mxPoint x="520.5" y="630" />
              <mxPoint x="520.5" y="630" />
            </Array>
            <mxPoint x="377.55172413793116" y="630.051724137931" as="sourcePoint" />
            <mxPoint x="599.6206896551726" y="630.051724137931" as="targetPoint" />
          </mxGeometry>
        </mxCell>
        <mxCell id="qpCh0MkbTUWykfH9qEjh-29" value="" style="edgeStyle=orthogonalEdgeStyle;rounded=0;html=1;dashed=1;dashPattern=1 1;sourcePerimeterSpacing=8;endArrow=none;endFill=0;jettySize=auto;orthogonalLoop=1;strokeColor=#CC0000;strokeWidth=2;curved=1;startArrow=open;startFill=0;fontFamily=Helvetica;fontSize=11;fontColor=#000000;align=center;targetPerimeterSpacing=8;endSize=6;startSize=6;" parent="1" edge="1">
          <mxGeometry relative="1" as="geometry">
            <Array as="points" />
            <mxPoint x="377.5" y="650" as="sourcePoint" />
            <mxPoint x="597.4999999999995" y="650" as="targetPoint" />
          </mxGeometry>
        </mxCell>
        <mxCell id="qpCh0MkbTUWykfH9qEjh-33" value="" style="edgeStyle=orthogonalEdgeStyle;rounded=0;html=1;jettySize=auto;orthogonalLoop=1;strokeColor=#CC0000;strokeWidth=2;sourcePerimeterSpacing=8;dashed=1;dashPattern=1 1;endArrow=open;endFill=0;targetPerimeterSpacing=8;exitX=0.882;exitY=0.381;exitDx=0;exitDy=0;exitPerimeter=0;" parent="1" source="Gk3vsJrQaXJPjO9UwzMO-3" edge="1">
          <mxGeometry relative="1" as="geometry">
            <mxPoint x="109" y="323.4999999999999" as="sourcePoint" />
            <mxPoint x="600" y="324" as="targetPoint" />
            <Array as="points" />
          </mxGeometry>
        </mxCell>
        <mxCell id="qpCh0MkbTUWykfH9qEjh-35" value="" style="shape=image;verticalLabelPosition=bottom;labelBackgroundColor=#ffffff;verticalAlign=top;aspect=fixed;imageAspect=0;image=data:image/svg+xml,PHN2ZyB4bWxucz0iaHR0cDovL3d3dy53My5vcmcvMjAwMC9zdmciIHZpZXdCb3g9IjAgMCA4MCA4MCIgZmlsbD0iIzAwMDAwMCI+PHBhdGggc3R5bGU9ImxpbmUtaGVpZ2h0Om5vcm1hbDt0ZXh0LWluZGVudDowO3RleHQtYWxpZ246c3RhcnQ7dGV4dC1kZWNvcmF0aW9uLWxpbmU6bm9uZTt0ZXh0LWRlY29yYXRpb24tc3R5bGU6c29saWQ7dGV4dC1kZWNvcmF0aW9uLWNvbG9yOiMwMDA7dGV4dC10cmFuc2Zvcm06bm9uZTtibG9jay1wcm9ncmVzc2lvbjp0Yjtpc29sYXRpb246YXV0bzttaXgtYmxlbmQtbW9kZTpub3JtYWwiIGQ9Ik0gMTEgMTYgQyA4LjI1MDQ4MzkgMTYgNiAxOC4yNTA0ODQgNiAyMSBMIDYgNTkgQyA2IDYxLjc0OTUxNiA4LjI1MDQ4MzkgNjQgMTEgNjQgTCA1MS41NjA1NDcgNjQgQyA1NS4yNDQxMSA3Ni43ODQxOTYgNjQuMjIwMTc1IDc5LjgwMjI5OCA2NC42OTcyNjYgNzkuOTUzMTI1IEMgNjQuNzk2MjY2IDc5Ljk4NDEyNSA2NC44OTggODAgNjUgODAgQyA2NS4xMDIgODAgNjUuMjAyNzgxIDc5Ljk4MzEyNSA2NS4zMDA3ODEgNzkuOTUzMTI1IEMgNjUuOTAxNzgxIDc5Ljc2MzEyNSA4MCA3NS4wNDExNzIgODAgNTEuOTUxMTcyIEMgODAgNTEuMzk4MTcyIDc5LjU1MiA1MC45NTExNzIgNzkgNTAuOTUxMTcyIEMgNzcuMjE2NTYyIDUwLjk1MTE3MiA3NS41MzY5NzEgNTAuNzkzODczIDc0IDUwLjU1ODU5NCBMIDc0IDIxIEMgNzQgMTguMjUwNDg0IDcxLjc0OTUxNiAxNiA2OSAxNiBMIDExIDE2IHogTSAxMSAxOCBMIDY5IDE4IEMgNzAuNjY4NDg0IDE4IDcyIDE5LjMzMTUxNiA3MiAyMSBMIDcyIDI2IEwgOCAyNiBMIDggMjEgQyA4IDE5LjMzMTUxNiA5LjMzMTUxNjEgMTggMTEgMTggeiBNIDggMzAgTCA3MiAzMCBMIDcyIDUwLjE4MTY0MSBDIDY4LjA2NTkxNiA0OS4zNDQxNCA2NS40NzgzNzcgNDguMTIwNjk0IDY1LjQzOTQ1MyA0OC4xMDE1NjIgQyA2NS4xNjI0NTMgNDcuOTY2NTYzIDY0LjgzNzU5NCA0Ny45NjQ1NjMgNjQuNTU4NTk0IDQ4LjEwMTU2MiBDIDY0LjUwMDU5NCA0OC4xMzA1NjMgNTguNjc3MDQ3IDUwLjk0OTIxOSA1MC45OTgwNDcgNTAuOTQ5MjE5IEMgNTAuNDQ2MDQ3IDUwLjk0OTIxOSA0OS45OTgwNDcgNTEuMzk3MjE5IDQ5Ljk5ODA0NyA1MS45NDkyMTkgQyA0OS45OTgwNDcgNTUuNzg5NzY4IDUwLjM5NTc1MiA1OS4xMTIwNTcgNTEuMDQ4ODI4IDYyIEwgMTEgNjIgQyA5LjMzMTUxNjEgNjIgOCA2MC42Njg0ODQgOCA1OSBMIDggMzAgeiBNIDEyIDM1IEEgMSAxIDAgMCAwIDExIDM2IEEgMSAxIDAgMCAwIDEyIDM3IEEgMSAxIDAgMCAwIDEzIDM2IEEgMSAxIDAgMCAwIDEyIDM1IHogTSAxNiAzNSBBIDEgMSAwIDAgMCAxNSAzNiBBIDEgMSAwIDAgMCAxNiAzNyBBIDEgMSAwIDAgMCAxNyAzNiBBIDEgMSAwIDAgMCAxNiAzNSB6IE0gMjAgMzUgQSAxIDEgMCAwIDAgMTkgMzYgQSAxIDEgMCAwIDAgMjAgMzcgQSAxIDEgMCAwIDAgMjEgMzYgQSAxIDEgMCAwIDAgMjAgMzUgeiBNIDI0IDM1IEEgMSAxIDAgMCAwIDIzIDM2IEEgMSAxIDAgMCAwIDI0IDM3IEEgMSAxIDAgMCAwIDI1IDM2IEEgMSAxIDAgMCAwIDI0IDM1IHogTSAyOCAzNSBBIDEgMSAwIDAgMCAyNyAzNiBBIDEgMSAwIDAgMCAyOCAzNyBBIDEgMSAwIDAgMCAyOSAzNiBBIDEgMSAwIDAgMCAyOCAzNSB6IE0gMzIgMzUgQSAxIDEgMCAwIDAgMzEgMzYgQSAxIDEgMCAwIDAgMzIgMzcgQSAxIDEgMCAwIDAgMzMgMzYgQSAxIDEgMCAwIDAgMzIgMzUgeiBNIDM2IDM1IEEgMSAxIDAgMCAwIDM1IDM2IEEgMSAxIDAgMCAwIDM2IDM3IEEgMSAxIDAgMCAwIDM3IDM2IEEgMSAxIDAgMCAwIDM2IDM1IHogTSA2NSA1MC4xMDE1NjIgQyA2Ni40ODEgNTAuNzU2NTYzIDcxLjQ4NTIzNCA1Mi43NDM1NDcgNzcuOTkwMjM0IDUyLjkzNTU0NyBDIDc3LjYzNjIzNCA3Mi4wOTk1NDcgNjcgNzcuMTU2NSA2NSA3Ny45Mzc1IEMgNjMgNzcuMTU2NSA1Mi4zNjM3NjYgNzIuMDk5NTQ3IDUyLjAwOTc2NiA1Mi45MzU1NDcgQyA1OC41MTQ3NjYgNTIuNzQzNTQ3IDYzLjUxOSA1MC43NTY1NjMgNjUgNTAuMTAxNTYyIHogTSA3NC4wODc4OTEgNTYuMDAzOTA2IEMgNzMuNTMyODkxIDU1Ljk1MjkwNiA3My4wNTA5MDYgNTYuMzYyMTA5IDczLjAwMzkwNiA1Ni45MTIxMDkgTCA3Mi45OTQxNDEgNTcuMDI5Mjk3IEMgNzIuOTU1MTQxIDU3LjU4MDI5NyA3My4zNzA4NzUgNTguMDYwNjA5IDczLjkyMTg3NSA1OC4wOTk2MDkgQyA3My45NDU4NzUgNTguMTAwNjA5IDczLjk2ODE4NyA1OC4xMDE1NjIgNzMuOTkyMTg4IDU4LjEwMTU2MiBDIDc0LjUxMjE4NyA1OC4xMDE1NjMgNzQuOTUyMjM0IDU3LjY5Nzg3NSA3NC45OTAyMzQgNTcuMTcxODc1IEwgNzQuOTk2MDk0IDU3LjA4NTkzOCBDIDc1LjA0NDA5NCA1Ni41MzU5MzggNzQuNjM3ODkxIDU2LjA1MTkwNiA3NC4wODc4OTEgNTYuMDAzOTA2IHogTSA3My4xNjAxNTYgNjAuMTkzMzU5IEMgNzIuNzczMDYyIDYwLjI3MjA2MyA3Mi40Mzk3NSA2MC41ODYyODEgNzIuMzQzNzUgNjAuOTg4MjgxIEMgNzIuMjE1NzUgNjEuNTI1MjgxIDcyLjU1MDkzOCA2Mi4wNDI4NzUgNzMuMDg1OTM4IDYyLjE3MTg3NSBDIDczLjE2MTkzNyA2Mi4xODk4NzUgNzMuMjM3NSA2Mi4xOTkyMTkgNzMuMzEyNSA2Mi4xOTkyMTkgQyA3My43Njc1IDYyLjE5OTIxOSA3NC4xODQ4NzUgNjEuODc0MDYzIDc0LjI5Njg3NSA2MS40MTQwNjIgQyA3NC4yOTc4NzUgNjEuNDEyMDYyIDc0LjMxMTUgNjEuMzUzNTYzIDc0LjMxMjUgNjEuMzUxNTYyIEMgNzQuNDM4NSA2MC44MTQ1NjIgNzQuMDk1NTk0IDYwLjMyNjIxOSA3My41NTg1OTQgNjAuMTk5MjE5IEMgNzMuNDI0NTk0IDYwLjE2NzQ2OSA3My4yODkxODcgNjAuMTY3MTI1IDczLjE2MDE1NiA2MC4xOTMzNTkgeiBNIDcyLjAzMTI1IDY0LjA4MjAzMSBDIDcxLjY0MTQ4NCA2NC4wNzcwNjIgNzEuMjY3MzEzIDY0LjMwMjE0MSA3MS4xMDE1NjIgNjQuNjgxNjQxIEwgNzEuMDU4NTk0IDY0Ljc4MTI1IEMgNzAuODQwNTk0IDY1LjI4OTI1IDcxLjA3NjAzMSA2NS44NzY3NSA3MS41ODIwMzEgNjYuMDkzNzUgQyA3MS43MTEwMzEgNjYuMTQ5NzUgNzEuODQ1NTYyIDY2LjE3NTc4MSA3MS45NzY1NjIgNjYuMTc1NzgxIEMgNzIuMzY0NTYzIDY2LjE3NTc4MSA3Mi43MzQ0ODQgNjUuOTQ5MzEzIDcyLjg5NjQ4NCA2NS41NzAzMTIgTCA3Mi45MzM1OTQgNjUuNDg0Mzc1IEMgNzMuMTU1NTk0IDY0Ljk3ODM3NSA3Mi45MjU5MjIgNjQuMzg4OTY5IDcyLjQxOTkyMiA2NC4xNjc5NjkgQyA3Mi4yOTM0MjIgNjQuMTEyNDY5IDcyLjE2MTE3MiA2NC4wODM2ODcgNzIuMDMxMjUgNjQuMDgyMDMxIHogTSA2OS44MzIwMzEgNjcuNzY5NTMxIEMgNjkuNTgxMDMxIDY3LjgxODY1NiA2OS4zNDc4NTkgNjcuOTYyNDA2IDY5LjE5MzM1OSA2OC4xOTE0MDYgTCA2OS4xMzQ3NjYgNjguMjc5Mjk3IEMgNjguODI4NzY2IDY4LjczOTI5NyA2OC45NTMxMDkgNjkuMzYxOTY5IDY5LjQxMjEwOSA2OS42Njc5NjkgQyA2OS41ODMxMDkgNjkuNzgxOTY5IDY5Ljc3NTc5NyA2OS44MzQ5ODQgNjkuOTY2Nzk3IDY5LjgzMzk4NCBDIDcwLjI4OTc5NyA2OS44MzM5ODQgNzAuNjA1ODI4IDY5LjY3NzY3MiA3MC43OTg4MjggNjkuMzg4NjcyIEwgNzAuODUzNTE2IDY5LjMwODU5NCBDIDcxLjE2MTUxNiA2OC44NTA1OTQgNzEuMDQwMDMxIDY4LjIyODkyMiA3MC41ODIwMzEgNjcuOTE5OTIyIEMgNzAuMzUyNTMxIDY3Ljc2NjQyMiA3MC4wODMwMzEgNjcuNzIwNDA2IDY5LjgzMjAzMSA2Ny43Njk1MzEgeiBNIDY3LjMyNjE3MiA3MS4wMzcxMDkgQyA2Ny4wNjIxNzIgNzEuMDQ3ODU5IDY2Ljc5ODQ2OSA3MS4xNTYwMTYgNjYuNjA1NDY5IDcxLjM1MzUxNiBDIDY2LjIxNDQ2OSA3MS43NDQ1MTYgNjYuMjE0NDY5IDcyLjM3NjU3OCA2Ni42MDU0NjkgNzIuNzY3NTc4IEMgNjYuODAxNDY5IDcyLjk2MjU3OCA2Ny4wNTY1IDczLjA2MDU0NyA2Ny4zMTI1IDczLjA2MDU0NyBDIDY3LjU2ODUgNzMuMDYwNTQ3IDY3LjgyNDUzMSA3Mi45NjI1NzggNjguMDE5NTMxIDcyLjc2NzU3OCBMIDY4LjA5OTYwOSA3Mi42ODc1IEMgNjguNDg1NjA5IDcyLjI5MzUgNjguNDQ3NzM0IDcxLjY5MzY0MSA2OC4wNTI3MzQgNzEuMzA2NjQxIEMgNjcuODU1NzM0IDcxLjExMzE0MSA2Ny41OTAxNzIgNzEuMDI2MzU5IDY3LjMyNjE3MiA3MS4wMzcxMDkgeiIgZm9udC13ZWlnaHQ9IjQwMCIgZm9udC1mYW1pbHk9InNhbnMtc2VyaWYiIHdoaXRlLXNwYWNlPSJub3JtYWwiIG92ZXJmbG93PSJ2aXNpYmxlIiBmaWxsPSIjMDAwMDAwIi8+PC9zdmc+;" parent="1" vertex="1">
          <mxGeometry x="608.5" y="130.8636474609375" width="60" height="60" as="geometry" />
        </mxCell>
        <mxCell id="qpCh0MkbTUWykfH9qEjh-36" value="" style="group" parent="1" vertex="1" connectable="0">
          <mxGeometry x="403" y="172.8636474609375" width="176" height="60" as="geometry" />
        </mxCell>
        <mxCell id="qpCh0MkbTUWykfH9qEjh-37" value="&lt;div style=&quot;text-align: center ; font-size: 14px&quot;&gt;3&lt;/div&gt;" style="ellipse;whiteSpace=wrap;html=1;aspect=fixed;fillColor=#BD3C39;fontFamily=Helvetica;align=center;strokeColor=none;fontSize=14;verticalAlign=middle;horizontal=1;spacingTop=0;spacingRight=0;spacingLeft=0;fontColor=#FFFFFF;spacing=0;labelPosition=center;verticalLabelPosition=middle;spacingBottom=2;" parent="qpCh0MkbTUWykfH9qEjh-36" vertex="1">
          <mxGeometry y="12.857142857142858" width="24.068376068376068" height="24.068376068376068" as="geometry" />
        </mxCell>
        <mxCell id="qpCh0MkbTUWykfH9qEjh-38" value="&lt;p style=&quot;font-size: 13px&quot;&gt;Braintree sends the token to Commerce.&lt;/p&gt;" style="text;html=1;strokeColor=none;fillColor=none;align=left;verticalAlign=middle;whiteSpace=wrap;rounded=0;fontFamily=Helvetica;fontSize=13;fontColor=#000000;spacing=0;labelPosition=center;verticalLabelPosition=middle;" parent="qpCh0MkbTUWykfH9qEjh-36" vertex="1">
          <mxGeometry x="33.5954415954416" y="-1" width="142.4045584045584" height="60" as="geometry" />
        </mxCell>
        <mxCell id="qpCh0MkbTUWykfH9qEjh-39" value="" style="group" parent="1" vertex="1" connectable="0">
          <mxGeometry x="402.5" y="97.8636474609375" width="180" height="42" as="geometry" />
        </mxCell>
        <mxCell id="qpCh0MkbTUWykfH9qEjh-40" value="&lt;div style=&quot;text-align: center ; font-size: 14px&quot;&gt;2&lt;/div&gt;" style="ellipse;whiteSpace=wrap;html=1;aspect=fixed;fillColor=#BD3C39;fontFamily=Helvetica;align=center;strokeColor=none;fontSize=14;verticalAlign=middle;horizontal=1;spacingTop=0;spacingRight=0;spacingLeft=0;fontColor=#FFFFFF;spacing=0;labelPosition=center;verticalLabelPosition=middle;spacingBottom=2;" parent="qpCh0MkbTUWykfH9qEjh-39" vertex="1">
          <mxGeometry y="9" width="24" height="24" as="geometry" />
        </mxCell>
        <mxCell id="qpCh0MkbTUWykfH9qEjh-41" value="&lt;p style=&quot;font-size: 13px&quot;&gt;Commerce forwards the token request.&lt;/p&gt;" style="text;html=1;strokeColor=none;fillColor=none;align=left;verticalAlign=middle;whiteSpace=wrap;rounded=0;fontFamily=Helvetica;fontSize=13;fontColor=#000000;spacing=0;labelPosition=center;verticalLabelPosition=middle;" parent="qpCh0MkbTUWykfH9qEjh-39" vertex="1">
          <mxGeometry x="33" width="147" height="42" as="geometry" />
        </mxCell>
        <mxCell id="qpCh0MkbTUWykfH9qEjh-42" value="" style="edgeStyle=orthogonalEdgeStyle;rounded=0;html=1;jettySize=auto;orthogonalLoop=1;strokeColor=#CC0000;strokeWidth=2;sourcePerimeterSpacing=8;dashed=1;dashPattern=1 1;endArrow=open;endFill=0;targetPerimeterSpacing=8;" parent="1" edge="1">
          <mxGeometry relative="1" as="geometry">
            <Array as="points">
              <mxPoint x="517" y="147.8636474609375" />
              <mxPoint x="517" y="147.8636474609375" />
            </Array>
            <mxPoint x="374.5" y="147.8636474609375" as="sourcePoint" />
            <mxPoint x="596.5" y="147.8636474609375" as="targetPoint" />
          </mxGeometry>
        </mxCell>
        <mxCell id="qpCh0MkbTUWykfH9qEjh-43" value="" style="edgeStyle=orthogonalEdgeStyle;rounded=0;html=1;dashed=1;dashPattern=1 1;sourcePerimeterSpacing=8;endArrow=none;endFill=0;jettySize=auto;orthogonalLoop=1;strokeColor=#CC0000;strokeWidth=2;curved=1;startArrow=open;startFill=0;fontFamily=Helvetica;fontSize=11;fontColor=#000000;align=center;targetPerimeterSpacing=8;endSize=6;startSize=6;" parent="1" edge="1">
          <mxGeometry relative="1" as="geometry">
            <Array as="points" />
            <mxPoint x="374" y="167.8636474609375" as="sourcePoint" />
            <mxPoint x="593.9999999999995" y="167.8636474609375" as="targetPoint" />
          </mxGeometry>
        </mxCell>
        <mxCell id="oXmed51vgdk_MXoM8xgo-1" value="" style="shape=image;aspect=fixed;image=data:image/png,iVBORw0KGgoAAAANSUhEUgAACY0AAArlCAMAAACGGuVrAAAABGdBTUEAALGPC/xhBQAACklpQ0NQc1JHQiBJRUM2MTk2Ni0yLjEAAEiJnVN3WJP3Fj7f92UPVkLY8LGXbIEAIiOsCMgQWaIQkgBhhBASQMWFiApWFBURnEhVxILVCkidiOKgKLhnQYqIWotVXDjuH9yntX167+3t+9f7vOec5/zOec8PgBESJpHmomoAOVKFPDrYH49PSMTJvYACFUjgBCAQ5svCZwXFAADwA3l4fnSwP/wBr28AAgBw1S4kEsfh/4O6UCZXACCRAOAiEucLAZBSAMguVMgUAMgYALBTs2QKAJQAAGx5fEIiAKoNAOz0ST4FANipk9wXANiiHKkIAI0BAJkoRyQCQLsAYFWBUiwCwMIAoKxAIi4EwK4BgFm2MkcCgL0FAHaOWJAPQGAAgJlCLMwAIDgCAEMeE80DIEwDoDDSv+CpX3CFuEgBAMDLlc2XS9IzFLiV0Bp38vDg4iHiwmyxQmEXKRBmCeQinJebIxNI5wNMzgwAABr50cH+OD+Q5+bk4eZm52zv9MWi/mvwbyI+IfHf/ryMAgQAEE7P79pf5eXWA3DHAbB1v2upWwDaVgBo3/ldM9sJoFoK0Hr5i3k4/EAenqFQyDwdHAoLC+0lYqG9MOOLPv8z4W/gi372/EAe/tt68ABxmkCZrcCjg/1xYW52rlKO58sEQjFu9+cj/seFf/2OKdHiNLFcLBWK8ViJuFAiTcd5uVKRRCHJleIS6X8y8R+W/QmTdw0ArIZPwE62B7XLbMB+7gECiw5Y0nYAQH7zLYwaC5EAEGc0Mnn3AACTv/mPQCsBAM2XpOMAALzoGFyolBdMxggAAESggSqwQQcMwRSswA6cwR28wBcCYQZEQAwkwDwQQgbkgBwKoRiWQRlUwDrYBLWwAxqgEZrhELTBMTgN5+ASXIHrcBcGYBiewhi8hgkEQcgIE2EhOogRYo7YIs4IF5mOBCJhSDSSgKQg6YgUUSLFyHKkAqlCapFdSCPyLXIUOY1cQPqQ28ggMor8irxHMZSBslED1AJ1QLmoHxqKxqBz0XQ0D12AlqJr0Rq0Hj2AtqKn0UvodXQAfYqOY4DRMQ5mjNlhXIyHRWCJWBomxxZj5Vg1Vo81Yx1YN3YVG8CeYe8IJAKLgBPsCF6EEMJsgpCQR1hMWEOoJewjtBK6CFcJg4Qxwicik6hPtCV6EvnEeGI6sZBYRqwm7iEeIZ4lXicOE1+TSCQOyZLkTgohJZAySQtJa0jbSC2kU6Q+0hBpnEwm65Btyd7kCLKArCCXkbeQD5BPkvvJw+S3FDrFiOJMCaIkUqSUEko1ZT/lBKWfMkKZoKpRzame1AiqiDqfWkltoHZQL1OHqRM0dZolzZsWQ8ukLaPV0JppZ2n3aC/pdLoJ3YMeRZfQl9Jr6Afp5+mD9HcMDYYNg8dIYigZaxl7GacYtxkvmUymBdOXmchUMNcyG5lnmA+Yb1VYKvYqfBWRyhKVOpVWlX6V56pUVXNVP9V5qgtUq1UPq15WfaZGVbNQ46kJ1Bar1akdVbupNq7OUndSj1DPUV+jvl/9gvpjDbKGhUaghkijVGO3xhmNIRbGMmXxWELWclYD6yxrmE1iW7L57Ex2Bfsbdi97TFNDc6pmrGaRZp3mcc0BDsax4PA52ZxKziHODc57LQMtPy2x1mqtZq1+rTfaetq+2mLtcu0W7eva73VwnUCdLJ31Om0693UJuja6UbqFutt1z+o+02PreekJ9cr1Dund0Uf1bfSj9Rfq79bv0R83MDQINpAZbDE4Y/DMkGPoa5hpuNHwhOGoEctoupHEaKPRSaMnuCbuh2fjNXgXPmasbxxirDTeZdxrPGFiaTLbpMSkxeS+Kc2Ua5pmutG003TMzMgs3KzYrMnsjjnVnGueYb7ZvNv8jYWlRZzFSos2i8eW2pZ8ywWWTZb3rJhWPlZ5VvVW16xJ1lzrLOtt1ldsUBtXmwybOpvLtqitm63Edptt3xTiFI8p0in1U27aMez87ArsmuwG7Tn2YfYl9m32zx3MHBId1jt0O3xydHXMdmxwvOuk4TTDqcSpw+lXZxtnoXOd8zUXpkuQyxKXdpcXU22niqdun3rLleUa7rrStdP1o5u7m9yt2W3U3cw9xX2r+00umxvJXcM970H08PdY4nHM452nm6fC85DnL152Xlle+70eT7OcJp7WMG3I28Rb4L3Le2A6Pj1l+s7pAz7GPgKfep+Hvqa+It89viN+1n6Zfgf8nvs7+sv9j/i/4XnyFvFOBWABwQHlAb2BGoGzA2sDHwSZBKUHNQWNBbsGLww+FUIMCQ1ZH3KTb8AX8hv5YzPcZyya0RXKCJ0VWhv6MMwmTB7WEY6GzwjfEH5vpvlM6cy2CIjgR2yIuB9pGZkX+X0UKSoyqi7qUbRTdHF09yzWrORZ+2e9jvGPqYy5O9tqtnJ2Z6xqbFJsY+ybuIC4qriBeIf4RfGXEnQTJAntieTE2MQ9ieNzAudsmjOc5JpUlnRjruXcorkX5unOy553PFk1WZB8OIWYEpeyP+WDIEJQLxhP5aduTR0T8oSbhU9FvqKNolGxt7hKPJLmnVaV9jjdO31D+miGT0Z1xjMJT1IreZEZkrkj801WRNberM/ZcdktOZSclJyjUg1plrQr1zC3KLdPZisrkw3keeZtyhuTh8r35CP5c/PbFWyFTNGjtFKuUA4WTC+oK3hbGFt4uEi9SFrUM99m/ur5IwuCFny9kLBQuLCz2Lh4WfHgIr9FuxYji1MXdy4xXVK6ZHhp8NJ9y2jLspb9UOJYUlXyannc8o5Sg9KlpUMrglc0lamUycturvRauWMVYZVkVe9ql9VbVn8qF5VfrHCsqK74sEa45uJXTl/VfPV5bdra3kq3yu3rSOuk626s91m/r0q9akHV0IbwDa0b8Y3lG19tSt50oXpq9Y7NtM3KzQM1YTXtW8y2rNvyoTaj9nqdf13LVv2tq7e+2Sba1r/dd3vzDoMdFTve75TsvLUreFdrvUV99W7S7oLdjxpiG7q/5n7duEd3T8Wej3ulewf2Re/ranRvbNyvv7+yCW1SNo0eSDpw5ZuAb9qb7Zp3tXBaKg7CQeXBJ9+mfHvjUOihzsPcw83fmX+39QjrSHkr0jq/dawto22gPaG97+iMo50dXh1Hvrf/fu8x42N1xzWPV56gnSg98fnkgpPjp2Snnp1OPz3Umdx590z8mWtdUV29Z0PPnj8XdO5Mt1/3yfPe549d8Lxw9CL3Ytslt0utPa49R35w/eFIr1tv62X3y+1XPK509E3rO9Hv03/6asDVc9f41y5dn3m978bsG7duJt0cuCW69fh29u0XdwruTNxdeo94r/y+2v3qB/oP6n+0/rFlwG3g+GDAYM/DWQ/vDgmHnv6U/9OH4dJHzEfVI0YjjY+dHx8bDRq98mTOk+GnsqcTz8p+Vv9563Or59/94vtLz1j82PAL+YvPv655qfNy76uprzrHI8cfvM55PfGm/K3O233vuO+638e9H5ko/ED+UPPR+mPHp9BP9z7nfP78L/eE8/stRzjPAAAAIGNIUk0AAHomAACAhAAA+gAAAIDoAAB1MAAA6mAAADqYAAAXcJy6UTwAAAAMUExURQAAAP///8IyM////606Ug8AAAAEdFJOU////wBAKqn0AAAACXBIWXMAAC4jAAAuIwF4pT92AABWoklEQVR4nO3ayZYjOZJtUWas9/+/XG/gnZk7G20AXAGw96xyFEWjKo+I+P/+ewBp/0v/B7Cv/0v/BwD/E2MAAElqDAAgSY1BnkMlOb59kKfGAACS1BgAQJIaA9iaUyXEqTGI82sIsDU1BgCQpMYA9mY5C2lqDNL8FgLsTY0BACSpMYDNWc9CmBqDML+EAJtTYwAASWoMYHcWtJClxiDL7yDA7tQYAECSGgPYnhUtRKkxiPIrCLA9NQYAkKTGALCkhSQ1Bkl+AwFQYwAASWoMAGtaSFJjEOQXEAA1BgAQpcYAsKiFJDUGOX7/AFBjAABZagyAh1UtBKkxiPHrB8BDjQEAZKkxAIAkNQYpDpXU4hsJKWoMACBJjQEAJKkxCHEWohrfSQhRYwAASWoMACBJjUGGoxD1+FZChhoDAEhSYwAASWoMgJ+cKiFCjUGEXz0AflJjAABJagyAXyxtIUGNQYLfPAB+UWMAAElqDIDfrG0hQI1BgF88AH5TYwAASWoMgD8sbmE8NQbj+b0D4A81BgCQpMYA+MLqFoZTYzCcXzsAvlBjAABJagyAryxvYTQ1BqP5rQPgKzUGAJCkxgD4xvoWBlNjMJhfOgC+UWMAAElqDIDvLHBhLDUGY/mdA+A7NQYAkKTGAPiLFS4MpcZgKL9yAPxFjQEAJKkxAIAkNQYjOVQyB99UGEmNAQAkqTEAgCQ1BgM5/zAL31UYSI0BACSpMQCAJDUG4zj+MA/fVhhHjQEAJKkxAIAkNQbAE06VMIwag2H8ugHwhBoDAEhSYwA8Y5kLo6gxGMVvGwDPqDEAgCQ1BsBT1rkwiBqDQfyyAfCUGgMASFJjADxnoQtjqDEYw+8aAM+pMQCAJDUGwAtWujCEGoMh/KoB8IIaAwBIUmMAvGKpCyOoMRjBbxoAr6gxAIAkNQbAS9a6MIAagwH8ogHwkhoDAEhSYwC8ZrEL/akx6M/vGQCvqTEAgCQ1BgCQpMagO4dKZub7C92pMQCAJDUGAJCkxqA3hx7m5hsMvakxAIAkNQYAkKTGoDNnHmbnOwydqTEAgCQ1BgCQpMagL0ce5udbDH2pMQCAJDUGAJCkxgD4wKkSulJj0JVfMQA+UGMAAElqDIBPLHmhJzUGPfkNA+ATNQYAkKTGAPjImhc6UmPQkV8wAD5SYwAASWoMgM8seqEfNQb9+P0C4DM1BgCQpMYAOMCqF7pRY9CNXy8ADlBjAABJagyAIyx7oRc1Br347QLgCDUGAJCkxgA4xLoXOlFj0IlfLgAOUWMAAElqDIBjLHyhDzUGffjdAuAYNQYAkKTGAACS1Bh04VDJinyvoQs1BgCQpMYAAJLUGPTgoMOafLOhBzUGAJCkxgAAktQYdOCcw6p8t6EDNQYAkKTGAACS1Bi055jDuny7oT01BgCQpMYAAJLUGAAnOFVCc2oMmvNrBcAJagwAIEmNAXCG5S+0psagNb9VAJyhxgAAktQYAKdY/0Jjagwa80sFwClqDAAgSY0BcI4FMLSlxqAtv1MAnKPGAACS1BgAJ1kBQ1NqDJryKwXASWoMACBJjQFwliUwtKTGoCW/UQCcpcYAAJLUGACnWQNDQ2oMGvILBcBpagwAIEmNAQAkqTFox6GSffi2QztqDAAgSY0BACSpMWjG6Yad+L5DM2oMACBJjQEAJKkxaMXhhr34xkMragwAIEmNAQAkqTFoxNmG3fjOQyNqDAAgSY0BACSpMWjD0Yb9+NZDG2oMACBJjQEAJKkxaMLJhh353kMTagwAIEmNAQAkqTEArnKqhBbUGLTgNwmAq9QYAECSGgPgMmthaECNQQN+kQC4TI0BACSpMQCusxiG+9QY3Of3CIDr1BgAQJIaA+AGq2G4TY3BbX6NALhBjQEAJKkxAO6wHIa71Bjc5bcIgDvUGABAkhoD4BbrYbhJjcFNfokAuEWNAQAkqTEAgCQ1Bvc4VIKnAO5RYwAASWoMACBJjcEtTjTgOYCb1BgAQJIaAwBIUmNwhwMNPB6eBLhHjQEAJKkxAIAkNQY3OM/AD54FuEGNAQAkqTEAgCQ1Btc5zsAvnga4To0BACSpMQCAJDUGlznNwB+eB7hMjQEAJKkxAIAkNQZAC06VcJUag6v89gDQghoDAEhSYwA0YV0MF6kxuMgvDwBNqDEAgCQ1BkAbFsZwjRqDa/zuANCGGgMASFJjADRiZQyXqDG4xK8OAI2oMQCAJDUGQCuWxnCFGoMr/OYA0IoaAwBIUmMAAElqDC5wqITnPBtwgRoDAEhSYwAASWoMznOMgVc8HXCeGgMASFJjAABJagxOc4qB1zwfcJoaAwBIUmMAAElqDM5yiIF3PCFwlhoDAEhSYwAASWoMTnKGgfc8I3CSGgMASFJjAABJagzOcYSBTzwlcI4aAwBIUmMAAElqDE5xgoHPPCdwihoDAEhSYwAASWoMgNacKuEMNQZn+I0BoDU1BgCQpMYAaM4aGU5QY3CCXxgAmlNjAABJagyA9iyS4Tg1Bsf5fQGgPTUGAJCkxgDowCoZDlNjcJhfFwA6UGMAAElqDIAeLJPhKDUGR/ltAaAHNQYAkKTGAACS1Bgc5FAJ53hm4CA1BgCQpMYAAJLUGBzj6AJneWrgGDUGAJCkxgAAktQYHOLkAud5buAQNQYAkKTGAACS1Bgc4eACV3hy4Ag1BgCQpMYAAJLUGBzg3ALXeHbgADUGAJCkxgAAktQYfObYAld5euAzNQYAkKTGAACS1Bh85NQC13l+4CM1BgCQpMYAAJLUGAA9OVXCJ2oMPvFbAkBPagwAIEmNAdCV9TJ8oMbgA78kAHSlxgAAktQYAH1ZMMN7agze8zsCQF9qDAAgSY0B0JkVM7ylxuAtvyIAdKbGAACS1BgAQJIag3ccKqEFTxK8o8YAAJLUGABAkhqDN5xXoA3PEryhxgAAktQYAECSGoPXHFegFU8TvKbGAACS1BgAQJIag5ecVqAdzxO8pMYAAJLUGABAkhqDVxxWoCVPFLyixgAAktQYAECSGoMXnFWgLc8UvKDGAACS1BgAQJIag+ccVaA1TxU8p8YAAJLUGABAkhqDp5xUoD3PFTylxgAAktQYAECSGgNgFKdKeEaNwTN+MwAYRY0BACSpMQCGsXaGJ9QYPOEXA4Bh1BgAQJIaA2Aci2f4lxqDf/m9AGAcNQYAkKTGABjI6hn+ocbgH34tABhIjQEAJKkxAIAkNQZ/c6iEnjxh8Dc1BgCQpMYAAJLUGPzFGQX68ozBX9QYAECSGgMASFJj8J0jCvTmKYPv1BgAQJIaAwBIUmPwjRMK9Oc5g2/UGABAkhoDAEhSY/CVAwqM4EmDr9QYAECSGgMASFJj8IXzCYzhWYMv1BgAQJIaAwBIUmPwh+MJjOJpgz/UGABAkhoDAEhSY/Cb0wmM43mD39QYAECSGgMASFJjACQ4VcIvagx+8dsAQIIaAwBIUmMARFhHw09qDH7yywBAhBoDAEhSYwBkWEjDD2oMfvC7AECGGgMASFJjAABJagwej4dDJSR47uDxeKgxAIAsNQYAkKTG4PFwMIEMTx48HmoMACBLjQEAJKkxeDiXQIpnDx5qDAAgS40BACSpMXAsgRxPH6gxAIAsNQYAkKTGwKkEgjx/oMYAAKLUGABAkhoDhxJI8gSCGgMASFJjAABJaoztOZNAlmeQ7akxAIAkNQYAkKTG2J0jCaR5CtmdGgMASFJjAABJaozNOZFAnueQzakxAIAkNQYAkKTGAEhzqmRvaoy9+Q0AIE2NAQAkqTEA4qyp2ZoaY2t+AQCIU2MAAElqDIA8i2p2psbYmfc/AHlqDAAgSY0BACSpMTbmUAl1eB7ZmBoDAEhSYwAASWqMfTmMQCWeSPalxgAAktQYAECSGmNbziJQi2eSbakxAIAkNQYAkKTG2JWjCFTjqWRXagwAIEmNAQAkqTE25SQC9Xgu2ZQaAwBIUmMAAElqjD05iEBFnkz2pMYAAJLUGABAkhpjS84hUJNnky2pMQCAJDUGAJCkxtiRYwhU5elkR2oMACBJjQEAJKkxNuQUAnV5PtmQGgMASFJjAABJagyASpwq2Y8aYz/e9QBUosYAAJLUGAClWF+zHTXGdrzpAShFjQEAJKkxAIAkNcZuHCqhOk8pu1FjAABJagwAIEmNsRknEKjPc8pm1BgAQJIaAwBIUmPsxQEEZuBJZS9qDAAgSY0BACSpMbbi/AFz8KyyFTUGAJCkxgAAktQYO3H8gFl4WtmJGgMASFJjAABJaoyNOH3APDyvbESNAQAkqTEAgCQ1xj4cPmAmnlj2ocYAAJLUGABAkhpjG84eMBfPLNtQYwAASWoMACBJjbELRw+YjaeWXagxAIAkNQYAkKTG2ISTB8zHc8sm1BgAQJIaAwBIUmMAVOVUyR7UGHvwTgegKjUGAJCkxgAoy1qbLagxtuCNDkBZagwAIEmNAQAkqTF24FAJs/L0sgM1BgCQpMYAAJLUGBtw6oB5eX7ZgBoDAEhSYwAASWqM9Tl0wMw8waxPjQEAJKkxAIAkNcbynDlgbp5hlqfGAACS1BgAQJIaY3WOHDA7TzGrU2MAAElqDAAgSY2xOCcOmJ/nmMWpMQCAJDUGAJCkxlibAweswJPM2tQYAECSGgMASFJjLM15A9bgWWZpagwAIEmNAQAkqTFW5rgBq/A0szI1BgCQpMYAAJLUGAtz2oB1eJ5ZmBoDAEhSYwAASWoMgBk4VbIuNca6vLsBmIEaAwBIUmMAAElqjGU5VMJaPNMsS40BACSpMQCAJDXGqhw1YDWealalxgAAktQYAECSGmNRThqwHs81i1JjAABJagwAIEmNsSYHDViRJ5s1qTEAgCQ1BgCQpMZYknMGrMmzzZLUGABAkhoDAEhSY6zIMQNW5elmRWoMACBJjQEAJKkxFuSUAevyfLMgNQYAkKTGAACS1BjrcciAlXnCWY8aAwBIUmMAAElqjOU4Y8DaPOMsR40BACSpMQCAJDXGahwxYHWeclajxgAAktQYAECSGmMxThiwPs85i1FjAABJagwAIEmNATAbp0rWosZYi3c0ALNRYwAASWoMACBJjbEUh0rYg2edpagxAIAkNQYAkKTGWInjBezC085K1BgAQJIaAwBIUmMsxOkC9uF5ZyFqDAAgSY0BACSpMdbhcAE78cSzDjUGAJCkxgAAktQYy3C2gL145lmGGgMASFJjAABJaoxVOFrAbjz1rEKNAQAkqTEAgCQ1xiKcLGA/nnsWocYAAJLUGABAkhpjDQ4WsCNPPmtQYwAASWoMACBJjbEE5wrYk2efJagxAIAkNQYAkKTGWIFjBezK088K1BgAQJIaAwBIUmMswKkC9uX5ZwFqDAAgSY0BACSpMQCAJDXG/PyzEdiZNwDzU2MAAElqDAAgSY0xPWcK2Jt3ANNTYwAASWoMACBJjTE7RwrYnbcAs1NjAABJagwAIEmNMTknCsB7gMmpMQCAJDUGAJCkxpibAwXgTcDs1BgAQJIaAwBIUmNMzXkCeDy8C5icGgMASFJjAABJaoyZOU4AP3gbMDM1BgCQpMYAAJLUGBNzmgB+8T5gYmoMACBJjQEAJKkx5uUwAfzhjcC81BgAQJIaAwBIUmNMy1kC+Mo7gWmpMQCAJDUGAJCkxpiVowTwnbcCs1JjAABJagwAIEmNMSknCeBv3gtMSo0BACSpMQCAJDUGAJCkxpiTfx4C/MubgTmpMQCAJDUGAJCkxpiScwTwjHcDU1JjAABJagwAIEmNMSPHCOA5bwdmpMYAAJLUGABAkhpjQk4RwCveD0xIjQEAJKkxAIAkNcZ8HCKA17whmI8aAwBIUmMAAElqjOk4QwDveEcwHTUGAJCkxgAAktQYs3GEAN7zlmA2agwAIEmNAQAkqTEm4wQBfOI9wWTUGABAkhoDAEhSY8zFAQL4zJuCuagxAIAkNQYAkKTGmIrzA3CEdwVTUWMAAElqDAAgSY0xE8cH4BhvC2aixgAAktQYAECSGmMiTg8ALEiNAbAg0xsTUWMAAElqDAAgSY0xD4cH4DhvDOahxgAAktQYAECSGmMazg7AGd4ZTEONAQAkqTEAgCQ1xiwcHYBzvDWYhRoDAEhSYwAASWqMSTg5AGd5bzAJNQYAkKTGAACS1BhzcHAAzvPmYA5qDAAgSY0BACSpMabg3ABc4d3BFNQYAECSGgMASFJjzMCxAbjG24MZqDEAgCQ1BgCQpMaYgFMDcJX3BxNQYwAASWoMACBJjVGfQwNwnTcI9akxAIAkNQYAkKTGKM+ZAbjDO4Ty1BgAQJIaAwBIUmNU58gA3OMtQnVqDAAgSY0BACSpMYpzYgBgcWoMgMWZ6ihOjQEAJKkxAIAkNUZtDgzAfd4k1KbGAACS1BgAQJIaozTnBaAF7xJKU2MAAElqDAAgSY1RmeMC0Ia3CZWpMQCAJDUGAJCkxijMaQFoxfuEwtQYAECSGgMASFJj1OWwALTjjUJdagwAIEmNAQAkqTHKclYAWvJOoSw1BgCQpMYAAJLUGFU5KgBteatQlRoDAEhSYwAASWqMopwUgNa8VyhKjQEAJKkxAIAkNUZNDgpAe94s1KTGAACS1BgAQJIaoyTnBKAH7xZKUmMAAElqDAAgSY1RkWMCAPtQYwDsw6xHRWoMACBJjVGQ4RWAjagxADZi2qMgNQYAkKTGAACS1Bj1OCQA/XjDUI8aAwBIUmMAAElqjHKcEYCevGMoR40BACSpMQCAJDVGNY4IQF/eMlSjxgAAktQYAECSGqMYJwSgN+8ZilFjAABJagwAIEmNUYsDAtCfNw21qDEAgCQ1BgCQpMYoxfkAGMG7hlLUGABAkhoDAEhSY1TieACM4W1DJWoMACBJjQEAJKkxCnE6AEbxvqEQNQYAkKTGAACS1Bh1OBwA43jjUIcaAwBIUmMAAElqjDKcDYCRvHMoQ40BACSpMQCAJDVGFY4GAOxJjQGwJzMgVagxAIAkNUYRhlQANqXGANiUKZAi1BgAQJIaowYjKgC7UmMA7MocSA1qDAAgSY0BACSpMUpwLgASvHsoQY0BACSpMQCAJDVGBY4FQIa3DxWoMQCAJDUGAJCkxijAqQBI8f6hADUGAJCkxgAAktQYeQ4FQI43EHlqDAAgSY0BACSpMeKcCYAk7yDi1BgAQJIaAwBIUmOkORIAWd5CpKkxAIAkNQYAkKTGCHMiANK8hwhTYwAASWoMACBJjZHlQADkeRORpcYAAJLUGABAkhojynkAqMC7iCg1BgCQpMYAAJLUGEmOAwCgxgDAbEiSGgMASFJjBBlGAUCNAYDpkCg1BgCQpMbIMYoCgBoDgMfDfEiSGgMASFJjAABJaowYZwGgEu8kYtQYAECSGgMASFJjpDgKALV4K5GixgAAktQYAECSGiPESQCoxnuJEDUGAJCkxgAAktQYGQ4CQD3eTGSoMQCAJDUGAJCkxohwDgAq8m4iQo0BACSpMQCAJDVGgmMAUJO3EwlqDAAgSY0BACSpMQKcAoCqvJ8IUGMAAElqDAAgSY0xnkMAUJc3FOOpMQCAJDUGAJCkxhjOGQAAvlBjAPCFiZHh1BgAQJIaYzRjJwB8pcYA4CszI6OpMQCAJDXGYIZOAPhGjQHAN6ZGBlNjAABJaoyxjJwA8J0aA4DvzI2MpcYAAJLUGABAkhpjKOt/YAbeVQylxgAAktQYAECSGmMky39gDt5WjKTGAACS1BgAQJIaYyCrf2AW3lcMpMYAAJLUGABAkhpjHIt/YB7eWIyjxgAAktQYAECSGmMYa39gJt5ZDKPGAACS1BgAQJIaYxRLf2Au3lqMosYAAJLUGABAkhpjECt/YDbeWwyixgAAktQYAECSGmMMC39gPt5cjKHGAACS1BgAQJIaYwjrfgB4QY0BwAsmSYZQYwAASWqMEYyXAPCKGgOAV8ySjKDGAACS1BgDGC4B4CU1BgAvmSYZQI0BACSpMfozWgLAa2oMAF4zT9KfGgMASFJjAABJaozurPmBmXmH0Z0aAwBIUmMAAElqjN4s+YG5eYvRmxoDAEhSYwAASWqMzqz4gdl5j9GZGgMASFJjAABJaoy+LPiB+XmT0ZcaAwBIUmMAAElqjK6s94EVeJfRlRoDAEhSYwAASWqMniz3gTV4m9GTGgMASFJjAABJaoyOrPaBVXif0ZEaAwBIUmMAAElqjH4s9gHgMzUGAJ+ZL+lHjQEAJKkxujFIAsABagwADjBh0o0aAwBIUmP0YowEgCPUGAAcYcakFzUGAJCkxujEEAkAh6gxADjElEknagwAIEmN0YcREgCOUWMAcIw5kz7UGABAkhoDAEhSY3RhnQ+syLuNLtQYAECSGgMASFJj9GCZD6zJ240e1BgAQJIaAwBIUmN0YJUPrMr7jQ7UGABAkhoDAEhSY7RnkQ+syxuO9tQYAECSGgMASFJjNGeND6zMO47m1BgAQJIaAwBIUmO0ZokPrM1bjtbUGABAkhoDAEhSYzRmhQ+sznuOxtQYAECSGgMASFJjtGWBDwDnqDEAOMfcSVtqDAAgSY3RlIERAE5SYwBwksmTptQYAECSGqMl4yIAnKXGAOAssyctqTEAgCQ1RkOGRQA4TY0BwGmmTxpSYwAASWqMdoyKAHCeGgOA88yftKPGAACS1BgAQJIaoxlre2An3nk0o8YAAJLUGABAkhqjFUt7YC/eerSixgAAktQYAECSGqMRK3tgN957NKLGAACS1BgAQJIaow0Le2A/3ny0ocYAAJLUGABAkhqjCet6YEfefTShxgAAktQYAECSGqMFy3pgT95+tKDGAACS1BgAQJIaowGregC4TI0BwGWmURpQYwAASWqM+4yGAHCdGgOA68yj3KfGAACS1Bi3GQwB4AY1BgA3mEi5TY0BACSpMe4yFgLAHWoMAO4wk3KXGgMASFJj3GQoBIBb1BgA3GIq5SY1BgCQpMa4x0gIAPeoMQC4x1zKPWoMACBJjQEAJKkxbrGeB/Au5CY1BgCQpMYAAJLUGHdYzgM8Ht6G3KPGAACS1BgAQJIa4wareYAfvA+5QY0BACSpMQCAJDXGdRbzAL94I3KdGgMASFJjAABJaozLrOUB/vBO5DI1BgCQpMYAAJLUGFdZygN85a3IVWoMmNz/pf8DAO5RYwAASWqMi6zkKcNyDJibGgPmpsUow5TKRWoMACBJjXGNEZBCrMeAqakxYGpKjELMqVyjxgAAktQYlxgAKcWCDJiZGgNmpsMoxaTKJWoMACBJjXGF8Y9irMiAiakxYGIqjGLMqlyhxgAAktQYFxj+KMeSDJiXGgPmpcEox7TKBWoMACBJjXGe0Y+CrMmAaakxYFoKjILMq5ynxgAAktQYsAaLMmBWaozTrOEpQn9Rknckp6kxAIAkNQYswqoMmJQa4yxLeIpQXxTlLclZagwAIEmNAauwLAPmpMY4yQqeIrQXZXlPcpIaAwBIUmPAMqzLgCmpMc6xgKcI5UVh3pSco8YAAJLUGLAOCzNgRmqMU6zfKUJ3UZp3JaeoMQCAJDUGLMTKDJiQGuMMy3eKUF3AQtQYALRmduUMNQYAkKTGOMGwRxGvD5VOmMB81BgANGd65QQ1BgCQpMY4zqhHEe/OkU6VwHTUGAC0Z37lODUGAJCkxjjMoEcR74+RTpXAbNQYAHRgguUwNQYAkKTGOMqYRxGfTpFOlcBk1BgA9GCG5Sg1BgCQpMY4yJBHEZ8PkU6VwFzUGAB0YYrlIDUGAJCkxjjGiEcRR86QTpXAVNQYAPRhjuUYNQYAkKTGgJkcO0I6VQIzUWMcYt0OcJ53J4eoMQCAJDUGTOToCdKpEpiIGuMIy3aAK7w9OUKNAQAkqTFgHscPkE6VwDzUGAdYtQNc4/3JAWoMACBJjQHTOHN+dKoEpqHG+MyiHeAqb1A+U2MAAElqDJjFueOjUyUwCzXGR9bsANd5h/KRGgMASFJjwCTOnh6dKoFJqDE+sWQHgJ7UGAD0ZKblEzUGzOH84dGpEpiDGuMDQx0AdKXGAKArUy0fqDFgClfOjk6VwBTUGO8Z6QCgLzUGAH2Za3lPjQEzuHZ0dKoEZqDGeMtABwCdqTEA6Mxky1tqDFiYUyUwATXGO8Y5ilBVwMLUGAD0ZrblHTUGrMxSDahPjfGGYY4iNBWwMjUGAN2ZbnlDjQEAJKkxXjPKUcSdQ6UjJ1CeGgOA/sy3vKbGAACS1BhQ3b1jo1MlUJ0a4yVrdYB2vFN5SY0BACSpMaC4u6dGp0qgODXGK5bqAC15q/KKGgMASFJjQG33D41OlUBtaowXrNQB2vJe5QU1BgCQpMaA0lqcGZ0qgdLUGM9ZqAO05s3Kc2oMACBJjQGVtTkyOlUClakxnrJOB4BB1BgADGLS5Sk1BhTW6sToVAkUpsZ4xvgGAKOoMQAYxazLM2oMqKvdgdGpEqhLjfGE4Q0AhlFjADCMaZcn1BhQVsvzolMlUJYa419GNwAYR40BwDjmXf6lxoCq2h4XnSqBqtQY/zC4AcBAagwABjLx8g81BhTV+rToVAkUpcb4m7ENAEZSYwAwkpmXv6kxoKb2h0WnSqAmNcZfDG0AMJQaA4ChTL38RY0BJfU4KzpVAiWpMb4zsgHAWGoMAMYy9/KdGgMq6nNUdKoEKlJjAABJaoxvrM8B+vOu5Rs1BhTU66ToVAkUpMYAAJLUGF9ZngOM4G3LV2oMqKffQdGpEqhHjQEAJKkxvrA6BxjD+5Yv1BhQTs9zolMlUI4aAwBIUmP8YXEOMIo3Ln+oMaAax0RgL2oM2IvWA6pRY/xmbQ4AAWoMKMbyij2YgPlNjQGbUXtAMWqMX4xpAJCgxoBarK7YhRmYX9QYsBu9B9SixvjJkAYAEWoMKMXiin2YgvlJjQHbUXxAKWqMH4xoAJChxoBKrK3YiTmYH9QYsB/NB1Sixng8HgY0AIhRY0AhllbsxSTM4/FQY8CWVB9QiBrj8TCeAUCOGgPqsLJiN2ZhHg81BuxJ9wF1qDEehjMACFJjQBkWVuzHNMxDjQGbUn5AGWoMoxkAJKkxoArrKnZkHkaNAbvSfkAVagwAIEmNYU0OEOQdjBoDqhh9OnSqBIpQYwAASWoMS3KAJG9h1BhQw/jDoVMlUIMaAwBIUmPbsyIHyPIe3p4aA0pInA2dKoES1BgAQJIa250FOQBkqTGggszR0KmSGszFu1NjAABJamxzBjIACFNjQAGpk6FTJTWYjDenxgAAktTY3oxjAJCmxoC83MHQqZIazMZ7U2MAAElqbGuGMQCIU2NAXPJc6FRJDabjrakxAIAkNbYzoxgA5KkxIC17LHSqpAbz8c7UGABAkhrbmEEMAApQY0CYUyE8HibkrakxYHNqEAhTY/syhgFABWoMyLKagh/MyPtSY8Du9CCQpca2ZQgDgBLUGBBlMQW/mJK3pcaA7SlCIEqN7coIBgA1qDEgyVoK/jAn70qNAWhCIEmNAQAkqbFNWYdTg6UUfOXdvCk1BqAKgSQ1BgCQpMb2ZBlODVZS8J23857UGIAuBJLUGABAkhrbklU4NVhIwd+8n7ekxgAeyhAIUmMAAElqbEcW4dRgHQXweKgxgB+0ITWYl3ekxgAAktTYhgxe1GAZBfB4PNQYwE/qkBpMzBtSYwAASWpsP8YuarCKAvhBjQH8oA+pwcy8HzUGAJCkxrZj6KIGiyiAn9QYwE8KkRpMzdtRYwAASWpsN0YuarCGAvhFjQH8ohGpwdy8GzUGAJCkxjZj4KIGSyiA39QYwG8qkRpMzptRYwAASWpsL8YtarCCAvhDjQH8oROpwey8FzUGAJCkxrZi2KIGCyiAL9QYwBdKkRpMz1tRYwAASWpsJ0YtarB+AvhKjQF8pRWpwfy8EzUGAJCkxoDBLJ8AvlFjG7H2hiPUIjV4Z29EjQEAJKkxYCyrJ4Dv1Ng+LL3hGL1IDd7a+1BjAABJagwYyuIJ4C9qbBtW3gBQkhoD+Iv9HTWYorehxoCRhA7A39TYLoxYAFCTGgP4mw0eNZijd6HGgIFkDsA/1NgmDFgAUJQaA/iHHR41mKQ3ocYAAJLU2B6MV9Rg5QTwLzUG8C/dSA1m6T2oMQCAJDW2BcMVNVg4ATyhxgCeUI7UYJreghoDAEhSYzswWlGDdRPAM2oM4BntSA3m6R2oMQCAJDW2AYMVNVg2ATylxgCeUo/UYKLegBoDAEhSY+szVlGDVRPAc2oM4Dn9SA1m6vWpMQCAJDW2PEMVNVg0AbygxgBeUJDUYKpenhoDAEhSY6szUlGDNRPAK2oM4BUNSQ3m6tWpMQCAJDUGDGDJBPCSGluc9TbcoSKpwbt8cWoMACBJjQH9WTEBvKbG1ma5DffoSGrwNl+bGgMASFJjQHcWTABvqLGlWW3DXUoS6E6NAUB5puulqTGgN+slgHfU2MqMUnCflgR6U2MAUJ/5emVqDOjMcgngLTW2MIMUtKAmgc7UGABMwIS9MDUG9GW1BPCeGluXMQra0JNAX2oMAGZgxl6XGgO6slgC+ECNLcsQBa0oSqArNQYAUzBlL0uNAT1ZKwF8osZWZYQCgDmoMYBPbPiowZy9KjUGdCRjAD5SY4syQAHAJNQYwEd2fNRg0l6UGgP6ETEAn6mxNRmfAGAWagzgM1s+ajBrr0mNAd1IGIAD1NiSDE8AMA01BnCAPR81mLaXpMaAXgQMwBFqbEVGJwCYhxoDOMKmjxrM2ytSY0An8gXgEDW2IIMTAExEjQEcYtdHDSbuBakxoA/xAnCMGgMASFJj67HEhj5s+4A+1BjQhXSBTszc61FjAABJamw5hiboxb4P6EKNAT0IF+jG1L0cNQYAkKTGVmNkgn5s/IAe1BjQgWyBjszdq1FjAABJamwxBiboyc4P6ECNAe2JFujK5L0YNQYAkKTG1mJcgr5s/YD21BjQnGSBzszea1FjAABJamwphiXozd4PaE6NAa0JFujO9L0UNQYAkKTGVmJUgv5s/oDW1BjQmFyBAczfK1FjAABJamwhBiUYwe4PaEyNAcCETOALUWNAW1ZHAOeosXUYk2AMvQm0pcYAYEZm8HWoMaApiyOAk9TYMgxJMIriBJpSYwAwJVP4MtQY0JK1EcBZamwVRiQYR3MCLakxAJiTOXwVagxoyNII4DQ1tggDEgBMSo0BnGYHSA0m8UWoMaAdkQJwnhoDAEhSY2uwrIaxbAGBdtQY0IxEgcHM4mtQYwAASWpsCYYjGM0eEGhGjQGtCBQYzjS+BDUGAJCkxlZgNILxbAKBVtQY0Ig8gQDz+ArUGABAkhpbgMEIEuwCgUbUGNCGOIEIE/kC1BgAQJIam5+xCDJsA4E21BjQhDSBEDP5/NQYAECSGpueoQhS7AOBJtQY0IIwgRhT+fTUGABAkhqbnZEIcmwEgRbUGNCALIEgc/ns1BgAQJIam5yBCJLsBIEG1BhwnyiBKJP55NQYAECSGpubcQiybAWB+9QYcJskgTCz+dzUGABAkhqbmmEI0uwFgdvUGHCXIIE40/nU1BgAQJIam5lRCPJsBoG71BhwkxyBAsznM1NjAABJamxiBiGowG4QuEmNAfeIEYB71BgALMC9ZGJqDOAe20HgHjU2L2MQJUgRgJvUGACswIw+LzUGcJP9IHCLGpuWIYgShAjAXWoMAJZgSp+WGgO4y4YQuEONzcoIRAkyBOA2NQYAazCnz0qNAdxmRwjcoMYmZQCiBBECcJ8aA4BFmNQnpcYAAJLU2JyMP5TgUPmbjwK4To0BwCrM6nNSYwAASWpsSoYfSnCd+8KHAVymxgBgGab1KakxAIAkNTYjow8luM194+MArlJjALAO8/qM1BgAQJIam5DBhxJc5v7iAwEuUmMAsBAT+4TUGABAkhqbj7GHEtzl/uEjAa5RYwCwEjP7fNQYAECSGpuOoYcSXOWe8KEAl6gxAFiKqX06agwAIEmNzcbIQwluck/5WIAr1BgArMXcPhs1BgCQpMYmY+CBypwqgQvUGHCe6ABoR40BwGLcUSajxgDasTUEzlNjczHuUILkAGhIjQHAaszuc1FjAA3ZGwKnqbGpGHYoQXAAtKTGAGA5pvepqDGAlmwOgbPU2EyMOpQgNwCaUmMAsB7z+0zUGEBTdofASWpsIgYdShAbAG2pMQBYkAl+ImoMoC3bQ+AcNTYPYw4lSA2AxtQYAKzIDD8PNQbQmP0hcIoam4YhhxKEBkBragwAlmSKn4YaA2jNBhE4Q43NwohDCTIDoDk1BgBrMsfPQo0BNGeHCJygxiZhwKEEkQHQnhoDgEWZ5CehxgDas0UEjlNjczDeUILEAOhAjQHAqszyc1BjAABJamwKhhtKcKg8wYcFHKbGAGBZpvkpqDEAgCQ1NgOjDSW4vZ3i4wKOUmMAAElqDADW5boyAzU2AY8SJbi8neQDAw5SYwAASWoMABbmvjIBNQYc4u52mo8MOEaN1WesAYCVqTEAWJmZvj41Bhzh6naBDw04RI2VZ6gBgKWpMQBYmqm+PDUGHODmdomPDThCjVVnpAGAtakxAFibub46NQZ85uJ2kQ8OOECNFWegAYDFqTEAWJzJvjg1Bnzk3naZjw74TI3VZpwBgNWpMQBYndm+NjUGfOLadoMPD/hIjZVmmAGA5akxAFie6b40NQZ84NZ2i48P+ESNVWaUAYD1qTEAWJ/5vjI1Brzn0naTDxD4QI0VZpABgA2oMQDYgAm/MDUGvOXOdpuPEHhPjdVljAGAHagxANiBGb8uNQa848rWgA8ReEuNlWWIAYAtqDEA2IIpvyw1BrzhxtaEjxF4R41VZYQBgD2oMQCAJDUGvObC1ogPkhJcXapSY0V5ZABgE2oMACBJjQEvua8146OkBHeXotQYAECSGqvJ+AIAu1BjwCuuaw35MCnBrF+TGgMASFJjJRleAGAbagx4wW0N1mPaL0mNAYwgboFX1FhFRhcA2IcaA56zy4EVmfcrUmMAQ8hb4AU1VpDBBQA2osYAYCMm/oLUGPCUu1pzPlLgOTVWj7EFAHaixgBgJ2b+etQY8IyrWgc+VOApNVaOoQUAtqLGAGArpv5y1BjwhJtaFz5W4Bk1Vo2RBQD2osYAYC/m/mrUGPAvF7VOfLDAE2qsGAMLAGxGjQHAZkz+xagx4B/uad34aIF/qbFajCsAsBs1BgC7MfvXosaAv7mmdeTDBf6hxkoxrADAdtQYAECSGgP+4pbWlY+XEtxiSlFjlXg4AGA/agwAIEmNAd+5pHXmA6YE15hK1FghHg0A2JAaAwBIUmPAN+5o3fmIKcE9phA1BgCQpMbqMKYAwI7UGPCVK9oAPmRKsAOoQ40BACSpsTIMKQCwJTUGfOGGNoSPmRJsAcpQYwAASWqsCiMKAOxJjQF/uKAN4oOmBHuAKtQYAECSGivCgAIAm1JjwG/uZ8P4qCnBJqAINQYAkKTGajCeAMCu1Bjwi+vZQD5sSrALqEGNAQAkqbESDCcAsC01BvzkdjaUj5sSbANKUGMAAElqrAKjCQDsS40BP7icwY7sAypQYwAR8hf4SY0VYDABgI2pMeDxeNjUwK5sBApQYwAZAhj4QY3lGUsAYGdqDHg87GlgX3YCeWoMIEQCA4/HQ40VYCgBgK2pMeBhSwMQpMYAUkQwJbjRxKmxNA8BAOxNjQF2NABJagwgRgZTgitNmhoL8wgAwObUGGBDA5CkxgByhDAluNOEqTEAgCQ1lmUcoQL7GYAkNQYQJIUpwW4gS40BACSpsSjDCBXYzgBEqTGAJDFMCbYDUWoMACBJjSUZRajAbgYgS40BRMlhSrAfSFJjAABJaizIIEIFNjMAYWoMIEsQU4INQZAaAwBIUmM5xhAqsJcBSFNjAGGSmBLsCHLUGABAkhqLMYRQga0MQJwaA0gTxZRgSxCjxgAAktRYihGECuxkAPLUGECcLKYEe4IUNQYAkKTGQgwgAMDj8VBjsDX3sTL8KSjBpiBEjQEAJKmxDOMHAPCDGoN9uY4V4o8BG1NjAMAPLjcZaizC1x0A+EmNwbbcxkrx54B9qTEA4Ce3mwg1luDLDgD8osZgVy5jxfiDwLbUGADwi+tNghoL8FUHAH5TY7ApdzGAItQYQA0CmRLcbwLUGABAkhobz9hBBfYwAFWoMYAiJDIl2BmMp8YAAJLU2HCGDiqwhQEoQ40BVCGSKcHWYDg1BgCQpMZGM3JQgR0MQB1qDKAMmUwJ9gajqTEAgCQ1NpiBgwpsYAAKUWMAdQhlSrA5GEyNAQAkqbGxjBtUYP8CUIkaAyhEKlOC3cFYagwAIEmNDWXYoALbF4BS1BhAJWKZEmwPhlJjAABJamwkowYV2L0A1KLGAEqRy5RgfzCSGgMASFJjAxk0qMDmBaAYNQZQi2CmBBuEgdQYAECSGhvHmEEF9i4A1agxgGIkM2xGjQEA/3LRGUeNDeNrTQW2LgDlqDGAakQz7EWNAQBPuOkMo8ZG8aWmAjsXgHrUGEA5shm2osYAgGdcdUZRY4P4SlOBjQtAQWoMoB7hDDtRYwDAU+46g6gx2Id9C0BFamwM4wVwinSGjagxAOA5u4Qx1Bhsw7YFoCQ1NoThAjhJPMM+1BgA8IJtwhBqDHZh1wJQkxobwWgBnCafYRtqDAB4xT5hBDUGm7BpAShKjQ1gsAAuENCwCzUGALxkozCAGoM92LMAVKXG+jNWAJdIaNiEGgMAXrNT6E+NwRZsWQDKUmPdGSoAgDfUGEBVVpqUYKvQnRqDHfhVB6hLjfVmpAAA3lFjAGVZalKCvUJvagw24DcdoDA11pmBAgB4S40B1GWtSQk2C52pMVifX3SAytRYX8YJAOA9NQZQmMUmbECNwfL8ngM3ufT0pca68vUFAD5QYwCVWW3C+tQYrM6vOXCbW09XaqwnX14A4BM1BlCa5SYsT40BAJ+49vSkxjry1aUCmxWA4tQYQG2CGlanxgCAj9x7OlJjsDZ7FYDq1Fg/xgigCUkNi1NjAMBndgz9qDFYmq0KQHlqrBtDBNCIqIa1qTEA4ABbhm7UGKzMTgWgPjXWixECaEZWw9LUGABwhD1DL2oMFmajAjABNdaJAQJoSFjDytQYAHCITUMnagzWZZ8CMAM11ofxAWhKWsPC1BgAcIxdQx9qDJZlmwIwBTXWheEBaExcw7rUGABwkG1DF2oMVmWXAjAHNdaD0QFoTl7DstQYAHCUfUMPagwWZZMCMAk11oHBAehAYMOq1BgAQJIagzXZowBduP90oMba80UFupDYsCg1BgCQpMZgSbYoQCcuQO2pseZ8TYFORDasSY0BACSpMViRHQrQjRtQc2qsNV9SAOAMNQYwDUtPWJIagwX5zQY6cgVqTY015isKAJyixgDmYe0JK1JjsB6/2EBX7kCNqTEAgCQ11pZxAejK4hMWpMZgOX6vgc7sHtpSYwAASWqsKcMC0JnVJ6xHjcFq/FoD3dk+NKXGAACS1FhLRgWgO8tPWI4ag8X4rQYGsH9oSY0BACSpsYYMCsAA1p+wGjUGa/FLDQxhA9GQGgMASFJj7RgTgCEsQGExagyW4ncaGMQOoh01BgCQpMaaMSQAg1iBwlrUGKzErzQwjC1EM2oMACBJjbViRACGsQSFpagxWIjfaGAge4hW1BgAQJIaa8SAAAxkDQorUWOwDr/QADNSYwDAJe5CjaixNnwhgaEsQmEhagyW4fcZYEpqDAC4xmWoDTXWhK8jMJhVKKxDjcEq/DoDzEmNAQAXuQ01ocZa8GUEhrMMhWWoMViE32aASakxAOAq16EW1FgDvopAgHUorEKNwRr8MgPMSo0BAJe5DzWgxgAmZSEKi1Bj9xkLKMDvMsC01BgAcJ2dxH1qDGBWVqKwBjV2m6GAAvwqA8xLjQEAN9hK3KbGAKZlKQpLUGN3GQkAgDvUGCzAhgQIspe4S40BACSpsZsMBECQtSisQI3B/PwiA1E2EzepMQCAJDV2j3EAiLIYhQWoMZie32MgzG7iHjUGAJCkxm4xDABhVqMwPzUGs/NrDMTZTtyixgAAktTYHUYBIM5yFKanxmByfosBJqfGAIC7XIvuUGM3+OoBBViPwuzUGMzNLzHA7NQYAHCbe9ENauw6XzygBAtSmJwag6n5HQaYnhoDAO5zMbpOjV3mawcUYUUKc1NjMDO/wgDzU2MAQANuRpepsat86YAyLElhamoMJuY3GGABagwAaMHV6Co1dpGvHFCINSnMTI3BvPwCA6xAjQEATbgbXaTGABZgUQoTU2PXyH8K8PsLsAQ1BgC0YVdxjRoDWIFVKcxLjV0i/inAry/AGtQYANCIbcUlagxgCZalMC01doX0pwC/vQCLUGMAQCv2FVeoMYA1WJfCrNTYBcKfAvzyAqxCjQEAzdhYXKDGABZhYQqTUmPnyX4K8LsLsAw1BgC0Y2dxnhoDWIWVKcxJjZ0m+inAry7AOtQYANCQrcVpagxgGZamMCU1dpbkpwC/uQALUWMAAElqDGAd1qZU4Ip0lho7yVeMAvziAqxEjQEAJKkxAKApd6ST1Ng5vmAU4FDJa74dMCE1BgCQpMYAgLZcks5RY6f4elGAUxTv+H7AfNQYAECSGgMAGnNLOkWNneHLRQEOUbznGwLTUWMAAElqDABozTXpDDV2gq8WBThD8YnvCMxGjQEAJKkxAKA596QT1BhMxRGKz3xLYDJq7DiZDwC0p8YAgPbsMI5TYzATJyiO8D2Buaixw0Q+ANCBGgMAOrDFOEyNwUQcoDjGNwWmosaOkvgAQA9qDADowR7jKDUG83B+4ijfFZiJGjtI4AMAXagxAKALm4yD1BhMw/GJ43xbYCJq7Bh5DwD0ocYAgD7sMo5RYzALpyfO8H2BeaixQ8Q9ANCJGgMASFJjMAmHJ87xjaECt6VD1NgRvkwAQC9qDAAgSY0BrMmpkgpcl45QYwf4KlGAX1aAVakxAIAkNQawKAtVKnBfOkCNfeaLRAF+VwGWpcYAAJLUGMCqrFSpwIXpMzX2ka8RBfhVBViXGgMASFJjAMuyVKUCN6aP1NgnvkQU4DcVYGFqDAAgSY0BrMtalQpcmT5RYx/4ClGAX1SAlakxAIAkNQawMItVKnBn+kCNQXl+TwGWpsbek/MAQF9qDADoy27jPTUG1TlUcofvD9Snxt4S8wBAZ2oMAOjMduMtNQbFOTRxj28QlKfG3pHyAEBvagwA6M1+4x01BrU5M3GX7xBUp8beEPIAQHdqDADozobjDTUGpTkycZ9vERSnxl6T8QBAf2oMAOjPjuM1NQaVOTHRgu8R1KbGXhLxAMAAagwAIEmNQWEOTLThm0QFbk4vqbFXfGkAgBHUGABAkhqDupyXaMV3iQpcnV5RYy/4ygAAQ6gxAIAkNQZlOS7Rjm8TFbg7vaDGnvOFAQDGUGMAAElqDKpyWqIl3ycqcHl6To095esCAAyixgAAktQYFOWwRFu+UVTg9vSUGnvGlwUAGEWNAQAkqTGoyVmJ1nynqMD16Rk19oSvCgAwjBoDAEhSY1CSoxLt+VZRgfvTE2rsX74oAMA4agwAIEmNQUVOSvTge0UFLlD/UmMAAElq7B+iHQAYSI1BQQ5K9OGbRQW2Hv9QYwAASWrsb5IdABhJjUE9zkn04rtFBfYef1NjAABJauwvgh0AGEqNQTmOSfTj20UFNh9/UWMAAElq7Du5DgCMpcagGqckevL9gnrUGAAwlkvUd2rsG18PAGAwNQbFOCQBbEaNAWxF71OBW9Q3auwrXw4AYDQ1BrVYXADsRo0B7EXxU4Fr1Fdq7AtfDQBgODUGpVhbAGxHjQFsRvNTgXvUF2rsD18MAGA8NQaVWFoA7EeNAexG9VOBi9Qfauw3XwsAIECNQSFWFgAbUmMA29H9VOAm9Zsa+8WXAgBIUGMAAElqDOpwPmIU3zUqcJX6RY395CsBAESoMQCAJDUGZTgeMY5vGxW4S/2kxn7whQAAMtQYAECSGoMqnI4YyfeNClymflBjAABJauzxeIhzACBGjUERDkeM5RtHBbYhj8dDjQEAZKmxx0OaAwA5agxqcDZiNN85KrAPeTzUGABAlhp7CHMAIEiNQQmORoznW0cFNiIPNQYAkKXGZDkAkKTGoAInIxJ876AGNQYA5LhQqbGHrwEAEKXGoAAHIzJ886AENQYABLlRqTFfAgAgSo1BnnMRKb57UIEaAwCSXKm2rzFfAQAgavsagzzHInJ8+6AANQYARG1/p9q9xrb/AgAAYbvXGOQ5FZHk+wd5agwAyNr9UrV5je3+5wcA4javMchzKCLLNxDi1BgAELb5rWrvGtv8jw8AFLB3jUGeMxHA7tQYwN5MBFSw97Vq6xrb+08PAJSwdY1BnrUEwPbUGMDmzARUsPW9auca2/oPDwAUsXONQZ6lBABqDGB3pgIq2PlipcYAAJI2rrGdI5wqrCQA2LnGAPjBXEAFG29J1BgAQNK+NbZxglOGhQQAO9cYAL+YDKhg3z2JGgMASNq2xvYNcOqwjgDgsXGNAfCH2QCC1BgAUMK2d6tda2zbPziFWEYA8HjsW2MAfGU6gBw1BgDUsOvlatMa2/XPTSVWEQA8Ho9tawyA78wHEKPGAIAiNr1d7Vljm/6xKcUiAoAf9qwxAP5mQoAUNQYAVLHn9WrLGtvzT00t1hAA/LRljQHwLzMChKgxAKCMLe9XO9bYln9oirGEAOCXHWsMgGdMCZChxgCAOna8YG1YYzv+manGCgKA3zasMQCeMydAhBoDAArZ8Ia1X41t+EemHAsIAP7Yr8YAeMWkAAlqDACoZL8r1nY1tt+fmHqsHwD4YrsaA+A1swIEqDEAoJTt7li71dh2f2AKsnwA4KvdagyAd0wLMJ4aAwBq2e2SpcZgMKsHAL7ZrMZ2i22As8wLMNxmNQYA1LfZ9kSNAQAk7VVjm6U2JTkDUZ3vKIy2V40BADPYa3+ixgAAkraqsb1Cm5ocgQD4y1Y1BsBnZgYYTI0BAOVsdc/aqca2+sNSlKUDAH/bqcYAOMLUAGOpMQCgnp0uWhvV2E5/VqqycgDgHxvVGADHmBtgKDUGABS00U1rnxrb6I9KWRYOAPxrnxoD4CiTA4ykxgCAiva5am1TY/v8SanLugGAJ7apMQCOMzvAQGoMAChpm7vWLjW2zR+UwiwbAHhmlxoD4AzTA4yjxgCAmna5bG1SY7v8OanMqgGApzapMQDOMT/AMGoMAChqk9vWHjW2yR+T0iwaAHhujxoD4CwTBIyixgCAqva4bm1RY3v8KanNmgGAF7aoMQDOM0PAIGoMAChri/vWDjW2xR+S4iwZAHhlhxoD4ApTBIyhxgCAuna4cKkxGMCKAYCXNqixHaIaoAdzBAyxQY0BAPPaYKuixqA/CwYAXlu/xjZIaoBOTBIwwvo1BgBQmRqD7qwXAG5Y/8q1fI2t/ycE6McsAQMsX2MAAKWpMejNcgHgluXvXKvX2PJ/QICuTBPQ3+o1BgBQmxqDzqwWAG5a/dK1eI2t/ucD6M08Ad0tXmMAAMWpMejLYgHgtsVvXWvX2OJ/PIABTBTQ29o1BgBQnRqDrqwVABpY+9q1dI2t/acDGMNMAZ0tXWMAAOWpMejJUgGgiaXvXSvX2NJ/OABgESvXGAAt2PFCX2oMOvIjBtDIyhevhWts5T8bALCMhWsMgDZseaErNQb9+AkDaGbhm9e6NbbwHw0AWMi6NQZAK/a80JMag278gAE0tO7Va9kaW/dPBgAsZdkaA6Adm17oSI1BL36+AJpa9u61ao0t+wcDABazao0B0JJdL/SjxqATP14Aja16+VJjAABJi9bYqvEMkGLbC90sWmMQ56cLoLlFty1qDAAgac0aWzSdAYLse6GXNWsM4vxwAXCQGgMAZrHm9WvJGlvzTwWQZeMLnSxZYxDnZwuAo9QYADCNJe9fK9bYkn8ogDg7X+hjxRqDOD9aABymxgCAeax4AVuwxlb8MwFUYOsLXSxYYxDnJwuA49QYADCRBW9g69XYgn8kgCLsfaGH9WoMAGAmagyasz4A6Gi9K9hyNbbenwigDrMGdLBcjQEATEWNQWuWBwBdLXcHW63GlvsDAZRi2oD2VqsxAIC5qDFozOoAoLPVLmGL1dhqfx6Aaswb0NxiNQYAMBk1Bm1ZHAB0t9gtbK0aW+yPA1CQiQNaW6vGAABmo8agKWsDgAHWuoYtVWNr/WkAajJzQGNL1RgAwHTUGLRkaQAwxFL3sJVqbKk/DEBZpg5oa6UaAwCYjxqDhqwMAAZZ6SKmxgA4ydwBTS1UYytFMgCwjYVqDOIsDAA4T40BABNa6Ca2To0t9EcBKM4eGFpap8Ygzg8UABeoMQBgRutcxZapsXX+JAD12QRDQ8vUGMT5eQLgCjUGAExpmbvYKjW2zB8EYAp2wdDOKjUGcX6cALhEjQEAc1rlMrZIja3y5wCYhW0wNLNIjUGcnyYArlFjAMCkFrmNrVFji/wxACZiHwytrFFjEOeHCYCL1BgAMKs1rmNL1NgafwqAudgIQyNL1BjE+VkC4Co1BgBMa4n72Ao1tsQfAmA6dsLQxgo1BnF+lAC4TI0BAPNa4UK2QI2t8GcAmJGtMDSxQI1BnJ8kAK5TYwDAxBa4kc1fYwv8EQAmZS8MLcxfYxDnBwmAG9QYADCz+a9k09fY/H8CgHnZDEMD09cYxPk5AuAONQYATG36O9nsNTb9HwBganbDcN/sNQZxfowAuEWNAQBzm/1SpsYAuMF2GG6bvMZmj2EW4KcIgHsmrzEAgMmpMQDusB+mgMlvZXPX2OQfPivwQwTATXPXGADA7NQYALfYEFPA3NeyqWts7o+eJfgZAuCuqWsMAGB6agyAe+yIKWDqe9nMNTb1B88a/AgBcNvMNQYAMD81BsBNtsQUMPPFbOIam/ljZxF+ggC4b+IaAwBYgBoD4C57YgqY+GY2b41N/KGzCj9AADQwb40BAKxAjQEAK5j3ajZtjc37kbMMh0r4zeMAN0xbYwAAS1BjAMASpr2bzVpj037grMNlBr7wQMB1s9YYAMAa1BgAsIZZL2eT1tisHzcLcZeBbzwScNmkNQYAsIj/l/4PgElZ0M7AugY28785n/o5d2N+BwGqmfNXECqYs8YAAFahxoB12aPDbuZ86qessTk/aoC1OVXCRVPWGADAMtQYALCMKe9nM9bYlB80kOB1MZRTJVwzY40BAKxDjQEAJKkxYGVOlUM5VVLAjE/9hDU248cMAPDChDUGALAQNQYszTZ9KKdKCpjwqZ+vxib8kAEAXpqvxgAAVqLGgLXZpw/lVEkB8z3109XYfB8xAMAb09UYAMBS1BgA7ThVUsB0d7TZamy6DxhI89oAiputxgAA1qLGAGjIqZICZluJT1Zjs328QAFeHEBtk9UYAMBi1BgALTlVUsBkK/G5amyyDxeowasDKG2uGgMAWI0aA6App0oKmGslPlWNzfXRAmV4eQCVTVVjAADLUWMAtOVUSQFTrcRnqrGpPlgAgENmqjGAiwxzQGFqDIDGnCopYKYhbKIam+ljBQA4aKIaA7jMOAfUpcYAaM2pkgImGsLmqbGJPlQAgMPmqTGAGwx0QFlqDIDmnCopYJ4hbJoam+cjBQA4YZoaA7jFSAdUpcYAgCVNM4TNUmPTfKAAPPzDMThjlhoDAFiTGgM2YcUOFKXGAOjAqZICZhnCJqmxWT5OAICTJqkxgNuMdUBNagyAHpwqKWCSIWyOGpvkwwQAOG2OGgNowGAHlKTGAOjCqZIC5hjCpqixOT5KAIALpqgxAIBlqTFgHxbtYzlVUsAUj/0MNTbFBwkAcMkMNQYAsC41BmzEqn0sp0oKmOGxn6DGZvgYAQAumqDGAAAWpsaAnVi2j+VUSQETPPb1a2yCDxEA4LL6NQYAsDI1BmzFun0sp0oKqP/Yl6+x+h8hAMAN5WsMAGBpagyAfpwqKaD8na16jZX/AIHJeKsA1VSvMQCAtakxADpyqqSA6jvx4jVW/eMD5uO9AhRTvMYAABanxgDoyamSAorvxGvXWPEPD5iSNwtQS+0aAwBYnRoDoCunSgqovRMvXWO1PzpgVt4tQCmlawwAYHlqDIC+nCrhvco15pgAADRROioq1xhAH6Vfy8B21BgAnTlVwltqDABYX+WdeOEaq/yxAXPzfgEKKVxjACzCqRLeUWMAwAYK78Tr1ljhDw2YnjcMUEfdGgNgGU6V8IYaAwB2UHcnXrbG6n5kwAq8Y4AyytYYAAtxqoTX1BgAsIWyO/GqNVb2AwMAaKpqjQH0ZeYDqlBjAAzgH45RQNUprGiNVf24AAAaK1pjAL2Z+oAi1BgAIzhVUkDRKaxmjRX9sAAAmqtZYwD9mfuAGtQYAEM4VVJAzSmsZI3V/KgAADooWWMAI5j8gBLUGABjOFVSQMkprGKNlfygAAC6qFhjAAD7UGPAvmziB3OqpICKz33BGqv4MQEAdFKwxgAANqLGgI3ZxQ/mVEkBBZ/7ejVW8EMCAOimXo0BAOxEjQE7s40fzKmSAuo99+VqrN5HBADQUbkaAwDYihoDtmYfP5hTJfyrWo15MQIAXZWLjWo1BgCwFzUGwEBOlfAPNQbsrdzJAuiu2nNfrMaqfTwAAJ0VqzEAFudUCX9TY8Dm7ORhP8We+1o1VuzDAQDorlaNAbA8p0r4ixoDdmcrD/up9dyXqrFaHw0AwAClagyADThVwndqDNievTzsp9RzX6nGSn0wAABDVKoxALbgVAnfqDEAYD+VLnKFaqzSxwJsxesHSCpUYwBswqkSvlJjAMCGCi3F69RYoQ8F2I0XEBBUp8YA2IZTJXyhxgCAHdVZipepsTofCbAhryAgp0yNAbARp0r4Q40BAFsqsxSvUmNlPhBgT15CQEyVGgNgK06V8JsaAwD2VGUpXqTGqnwcAACDFakxgDBDIZCixgBI8A/HKKDIGFajxop8GAAAw9WoMYA4YyEQosYAiHCqhJ9K1JiJFAAIqJEgJWoMoIAab2VgP2oMgAynSvihQo2ZRwGAiBIRUqHGAAD2pcYAfioxI2/FqRIej4caAwB2VmEMK1BjFT4GAICQAjUGUIThcDSnSng81BgAsLUCY1i+xgp8CAAAMfkaAyjDeDiaUyU81BgAsLf8GBavsfxHAAAQFK8xgEIMiKM5VYIaAwA2Fx/D0jUW/wAAAKLSNQbA1pwqQY0BfGVhDxtKP/jhGkv/vw8AEGY3BkCSUyWoMYCvrOxhQ+EHP1tj3noAwO7sxgCIcqpke2oM4BtLe9hQ9sGP1ph3HgCwPbsxALKcKtmdGgP4ztoeNhR98JM15o0HAGA3BkCYUyWbU2MAAMmLXbDGHCqBmrydgKHsxgBIc6pkb2oMACC5Fc/VmFMAUJX3EzCS3RgAcU6VbE2NAQAkxWrMIQCoyxsKNpR78O3GAMhzqmRnagwAIClVY84AQGXeUbCh2INvNwZAAU6VbEyNAQAkqTEAgMcjd6oM1Zh/kgHU5i01nFMl+7IbAwBIUmMAAI/HI7YVz9SYEwBQnfcUMIrdGAAl+IdjbEuNAQD8kNmKR2rMAQCoz5sKGMRuDIAanCrZlRoDAPgpshVP1Jj1PzAD7ypgDLsxAIpwqmRTagwA4JfEVjxQY5b/AAC/2Y0BvGB2HM6pkj2pMQCA3wJz2PgaM2wCAPxhNwbwiulxOKdKtqTGAAD+GD+HDa8xoyYAwBd2YwAvmR+Hc6pkR2oMAOCL4XPY6BozaAIAfGU3BvCaCXI4p0o2pMYAAL4aPYcNrjFjJgDAN3ZjAFTiVMl+1BjAGzb6QHdja8xrDQAob3Cw2I0BUIpTJdtRYwDv2OkDvQ2tMS81AGACY5PFbgyAWpwq2Y0aA3jLVh/obGSNeaUBAFMYGi12YwAU41TJZtQYwHv2+kBfagwA4G8j57CBNWa8BOAQp0r2YjcGAJCkxgA+sNmHHQ188sfVmNcZAAc5VbIVuzEAgCQ1BvCJ3T7saNyTP6zGvMwAOMypkp3YjQEAJKkxgI9s92FHw578UTXmVQbACU6VbMRuDAAgSY0BfGa/Dzsa9eQPqjEvMgBOcapkH3ZjAABJagwA4KlBt70xNeZQCUzOa2w8p0q2YTcGAJCkxgAAnhuzFh9SYzb8wPS8yIBe7MYAqMk/HGMXagwA4IUha/ERNWa/DyzAqwzoxG4MgKKcKtmEGgMAeGXEWnxAjdnuA0vwMgP6sBsDoCqnSvagxgAAkvrXmN0+ADCtASFjNwZwkOFyPKdKtqDGAACSuteYWRIAmFj/lLEbAzjKeDmeUyU7UGMAAEm9a8wkCQBMrXvM2I0BHGbAHM+pkg2oMQCApM41Zo4EACbXO2fsxgCozKmS9akxgOMs/IH21BgAwFudB7G+NWaKBOAmp0qWZzcGcIIhE2hOjQEAvNd3EOtaY2ZIAG5zqmR1dmMAZxgzgdbUGADAB10HsZ41ZoIEoAGnShZnNwZwikETaEyNAQB80nMQ61hj5kcAmnCqZG12YwAASWoM4ByLf9hSx0e/X415XwHQiFMlS7MbAwBIUmMAJ1n9w5b6PfrdaszbCoBmnCpZmd0YAECSGgM4y/IfttTt0e9VY95VADTkVMnC7MYAAJLUGMBp1v9AQ51qzJsKgKacKsnrlTd2YwAASWoMACCpT405VAJr85YLcKokr9OjbzcGAJCkxgAAkrrUmBU+sDrvuQCnSvL6PPp2YwAASWoMACCpR41Z4APr86aDLXV59O3GAJiEfzjGotQYAEBShxqzvgd24F0HW+rx6NuNATALp0rWpMYAAJLUGADAYR1Ole1rzD+lAPbgbRfgVMmS7MYAAJLUGADAce334s1rzOoe2IX3XYBTJSuyGwMASFJjAAAnNN+Lt64xi3tgH954AU6VLMhuDAAgSY0BAJzRei/euMas7YGdeOcFOFWyHrsxAIAkNQYAcErjvXjbGrO0B6Azp0qWYzcGcJ0ZFLhPjQEAnNN2EmtaY4ZEALpzqmQ1dmMAN5hCgdvUGADASU0nsZY1ZkQEYACnShZjNwZwhzkUuEuNAQAkNawxAyIAQzhVktcye+zGAG4xiQI3qTEAgKR2NWY8BGAQp0ryGoaP3RgAQJIaA7jHZQC4p1mNeR0BMIxTJXnt0sduDAAgSY0B3OQ2ANzSqsa8jAAYyKmSvGbxYzcGAJCkxgDuch0A7mhUY15FAAzlVEleq/yxGwMASFJjALe5DwA3qDEApuRUSV6jSaxNjRkLAQCusRsDAEhSYwD3uRAkOFWS1+bZb1JjXkMAABfZjQEAJKkxgAbcCBKcKslr8uy3qDEvIQCAq+zGAACS1BhAC64EsKcWz36DGvMKAiDCPxxjDXZjAABJagygCXcC2FODZ/9+jXkBARDiVMkS7MYAAJLUGADAdfevhLdrzKES4PF4eB1mOFWyArsxAIAkNQYAcMPtxfjdGrOZB/jJCzHBqZIF2I0BACSpMQCApJs1Zi8P8JtXYoJTJXl3n327MQCAJDUGAJB0r8Zs5QEIc6ok72YQ2Y0BNGNEBS5QYwAASbdqzBQIQJxTJXn3kshuDKAdQypwnhoDAEi6U2NmQAAKcKok71YU2Y0BNGRMBU5TYwAASTdqzAQIQAlOleTdySK7MYCWDKrAWWoMACBJjQEwPadK8m4sxq/XmG08AMB9dmMATRlVgZPUGADzc6ok7/oodrnGTH8AAA3YjQG0ZVgFzlFjACzAqZK8y6PY1Roz+wEAtGA3BtCYcRU4RY0BsAKnSvKujmIXa8zkBwDQhN0YQGsGVuAMNQbAEpwqybs4il2rMXMfAEAbdmMAAElqDKA5B4QIp0ryrj38l2rMewYAoBG7MQCAJDUG0J4TQoRTJZO6UmPeMgAAT1yKJLsxAIAkNQbQgSNChFMlc7pQY94xAABPXckkuzEAgCQ1BtCDM0KEUyVTOl9j3jAAAC9cCCW7MQCAJDUGAJB0usYcKgGO8LaM8A/HyDv/8NuNAQAkqTEAgKSzNWb1DnCM92WEUyV5px9+uzEAgCQ1BgCQdLLGLN4BjvLGjHCqJO/sw283BgCQpMYAAJLUGEAvTpURTpXknXz4z9WYNwsAQFt2YwAASWoMgLU4VZJ37pp4qsYcKgHO8NYEDrAbAwBIUmMALMapkrxTm/EzNWblDnCO9ybwmd0YAECSGgNgNU6V5J3ZjJ+oMQt3gLO8OYGP7MYAAJLUGADLcaok78Rm/HiNWbcDnOfdCXxiNwYAkKTGAFiPUyV5xzfjh2vMsh0AoAO7MYCuzLLAB2oMgAU5VTKRozVmuAMAOOFwPNmNAfRlmgXeU2MArMipknkcrDGjHQDAKUfzyW4MoDPzLPCWGgNgSU6VTONYjRnsAABOOhhQdmMAvZlogXfUGABrcqpkFodqzFgHAHDasYSyGwMASFJjAN25MGQ4VTKJIzXmNQIAcMGhiLIbAwBIUmMA/bkxZDhVMocDNeYlAgBwyZGMshsDAEhSYwADuDJkOFUyBTUGANDNgVnsc40Z6AAA+rEbAxjBZJvhVMkM1BgAQD+fZ7GPNWacAwDoyG4MACBJjQEM4dKQ4R+Okffx6f9UY14fAAA92Y0BACSpMYAx3BoynCrJ+/T0f6gxLw8AgK7sxgAAktQYwCCuDRlOleR9ePrf15hXBwBAX3ZjAABJagyAtTlVUt3bGnOoBGjISxV29f7ptxsDAEhSYwAszqmS4t7VmJ06QFNeq7Crt0+/3RgAQJIaA2B1TpXU9qbGbNQBGvNihV29e/rtxgAAktQYAMtzqqS01zVmnw7QnFcr7OrN0283BgCQpMYAWJ9TJZW9rDHbdACAZl6nld0YwEhGXeBvagyADThVUtirGjO9AQA09DKu7MYAhjLsAn9RYwDswKmSul7UmNkNAKCpV3llNwYwlnEX+E6NAbAFp0rKUmMAAEO8WI0/rzF7dIBuvGKBb+zGANiDUyVVqTEAgDGer8af1pgtOgDAIHZjAKMZeUOcKilKjQEADPJ0GHtWY6Y2AIBR7MYAhjP0hjhVUpMaAwAY5dkw9qTGzGwAAMPYjQGMZ+wNcaqkJDUGADDMk2Hs3xozsQEAjGM3BhBg8A1xqqQiNQYAkPRPjZnXAAC6+Te17MYA2IhTJQWpMYAEhwjgl79rzPsBAKCjf2LLbgwAIEmNAUQ4RYT4h2PU81eNeTsAAHT1d27ZjQEAJKkxgAzHiBCnSsr5XmPeDQAAnf0VXHZjAABJagwgxDkixKmSar7VmDcDAEB335PLbgwAIEmNAbAZp0qK+VpjDpUAI3nrwra+Pf52YwAASWoMgN04VVLLlxqzMgcYy3sXtvX18bcbAwBIUmMAbMepklLUGECOUyVs68vj/9+z/xEAgEHsxgDYj1MllagxgCBnCdjWn8f/v3//JwAAhrEbA2BDTpUUosYAAAJ+3yX/+/t/AGAgb1/AbgyAHTlVUocaAwBI+LUb/+/7/wnAWN6/sD27MQC25FRJGWoMACDpR41ZlAOkeAPDtn4+/nZjAOzJqZIq1BgAQNJ/j4c1OUCSdzBs68fjbzcGwKacKilCjQEAJP33sCQHAIj43+NhNwaQZyZOcaqkBjUGAJD0n6EMACDkfw+7MYACTMUpTpWUoMYAAJL+M5IBAKT8z24MoAJzcYpTJRWoMQCApP8MZAAAMf+zGwOowGQMG/v/tzzn64E0wQUAAAAASUVORK5CYII=;" parent="1" vertex="1">
          <mxGeometry x="316.68" y="131.53000000000003" width="48.63" height="55.47" as="geometry" />
        </mxCell>
        <mxCell id="oXmed51vgdk_MXoM8xgo-2" value="" style="shape=image;aspect=fixed;image=data:image/png,iVBORw0KGgoAAAANSUhEUgAACY0AAArlCAMAAACGGuVrAAAABGdBTUEAALGPC/xhBQAACklpQ0NQc1JHQiBJRUM2MTk2Ni0yLjEAAEiJnVN3WJP3Fj7f92UPVkLY8LGXbIEAIiOsCMgQWaIQkgBhhBASQMWFiApWFBURnEhVxILVCkidiOKgKLhnQYqIWotVXDjuH9yntX167+3t+9f7vOec5/zOec8PgBESJpHmomoAOVKFPDrYH49PSMTJvYACFUjgBCAQ5svCZwXFAADwA3l4fnSwP/wBr28AAgBw1S4kEsfh/4O6UCZXACCRAOAiEucLAZBSAMguVMgUAMgYALBTs2QKAJQAAGx5fEIiAKoNAOz0ST4FANipk9wXANiiHKkIAI0BAJkoRyQCQLsAYFWBUiwCwMIAoKxAIi4EwK4BgFm2MkcCgL0FAHaOWJAPQGAAgJlCLMwAIDgCAEMeE80DIEwDoDDSv+CpX3CFuEgBAMDLlc2XS9IzFLiV0Bp38vDg4iHiwmyxQmEXKRBmCeQinJebIxNI5wNMzgwAABr50cH+OD+Q5+bk4eZm52zv9MWi/mvwbyI+IfHf/ryMAgQAEE7P79pf5eXWA3DHAbB1v2upWwDaVgBo3/ldM9sJoFoK0Hr5i3k4/EAenqFQyDwdHAoLC+0lYqG9MOOLPv8z4W/gi372/EAe/tt68ABxmkCZrcCjg/1xYW52rlKO58sEQjFu9+cj/seFf/2OKdHiNLFcLBWK8ViJuFAiTcd5uVKRRCHJleIS6X8y8R+W/QmTdw0ArIZPwE62B7XLbMB+7gECiw5Y0nYAQH7zLYwaC5EAEGc0Mnn3AACTv/mPQCsBAM2XpOMAALzoGFyolBdMxggAAESggSqwQQcMwRSswA6cwR28wBcCYQZEQAwkwDwQQgbkgBwKoRiWQRlUwDrYBLWwAxqgEZrhELTBMTgN5+ASXIHrcBcGYBiewhi8hgkEQcgIE2EhOogRYo7YIs4IF5mOBCJhSDSSgKQg6YgUUSLFyHKkAqlCapFdSCPyLXIUOY1cQPqQ28ggMor8irxHMZSBslED1AJ1QLmoHxqKxqBz0XQ0D12AlqJr0Rq0Hj2AtqKn0UvodXQAfYqOY4DRMQ5mjNlhXIyHRWCJWBomxxZj5Vg1Vo81Yx1YN3YVG8CeYe8IJAKLgBPsCF6EEMJsgpCQR1hMWEOoJewjtBK6CFcJg4Qxwicik6hPtCV6EvnEeGI6sZBYRqwm7iEeIZ4lXicOE1+TSCQOyZLkTgohJZAySQtJa0jbSC2kU6Q+0hBpnEwm65Btyd7kCLKArCCXkbeQD5BPkvvJw+S3FDrFiOJMCaIkUqSUEko1ZT/lBKWfMkKZoKpRzame1AiqiDqfWkltoHZQL1OHqRM0dZolzZsWQ8ukLaPV0JppZ2n3aC/pdLoJ3YMeRZfQl9Jr6Afp5+mD9HcMDYYNg8dIYigZaxl7GacYtxkvmUymBdOXmchUMNcyG5lnmA+Yb1VYKvYqfBWRyhKVOpVWlX6V56pUVXNVP9V5qgtUq1UPq15WfaZGVbNQ46kJ1Bar1akdVbupNq7OUndSj1DPUV+jvl/9gvpjDbKGhUaghkijVGO3xhmNIRbGMmXxWELWclYD6yxrmE1iW7L57Ex2Bfsbdi97TFNDc6pmrGaRZp3mcc0BDsax4PA52ZxKziHODc57LQMtPy2x1mqtZq1+rTfaetq+2mLtcu0W7eva73VwnUCdLJ31Om0693UJuja6UbqFutt1z+o+02PreekJ9cr1Dund0Uf1bfSj9Rfq79bv0R83MDQINpAZbDE4Y/DMkGPoa5hpuNHwhOGoEctoupHEaKPRSaMnuCbuh2fjNXgXPmasbxxirDTeZdxrPGFiaTLbpMSkxeS+Kc2Ua5pmutG003TMzMgs3KzYrMnsjjnVnGueYb7ZvNv8jYWlRZzFSos2i8eW2pZ8ywWWTZb3rJhWPlZ5VvVW16xJ1lzrLOtt1ldsUBtXmwybOpvLtqitm63Edptt3xTiFI8p0in1U27aMez87ArsmuwG7Tn2YfYl9m32zx3MHBId1jt0O3xydHXMdmxwvOuk4TTDqcSpw+lXZxtnoXOd8zUXpkuQyxKXdpcXU22niqdun3rLleUa7rrStdP1o5u7m9yt2W3U3cw9xX2r+00umxvJXcM970H08PdY4nHM452nm6fC85DnL152Xlle+70eT7OcJp7WMG3I28Rb4L3Le2A6Pj1l+s7pAz7GPgKfep+Hvqa+It89viN+1n6Zfgf8nvs7+sv9j/i/4XnyFvFOBWABwQHlAb2BGoGzA2sDHwSZBKUHNQWNBbsGLww+FUIMCQ1ZH3KTb8AX8hv5YzPcZyya0RXKCJ0VWhv6MMwmTB7WEY6GzwjfEH5vpvlM6cy2CIjgR2yIuB9pGZkX+X0UKSoyqi7qUbRTdHF09yzWrORZ+2e9jvGPqYy5O9tqtnJ2Z6xqbFJsY+ybuIC4qriBeIf4RfGXEnQTJAntieTE2MQ9ieNzAudsmjOc5JpUlnRjruXcorkX5unOy553PFk1WZB8OIWYEpeyP+WDIEJQLxhP5aduTR0T8oSbhU9FvqKNolGxt7hKPJLmnVaV9jjdO31D+miGT0Z1xjMJT1IreZEZkrkj801WRNberM/ZcdktOZSclJyjUg1plrQr1zC3KLdPZisrkw3keeZtyhuTh8r35CP5c/PbFWyFTNGjtFKuUA4WTC+oK3hbGFt4uEi9SFrUM99m/ur5IwuCFny9kLBQuLCz2Lh4WfHgIr9FuxYji1MXdy4xXVK6ZHhp8NJ9y2jLspb9UOJYUlXyannc8o5Sg9KlpUMrglc0lamUycturvRauWMVYZVkVe9ql9VbVn8qF5VfrHCsqK74sEa45uJXTl/VfPV5bdra3kq3yu3rSOuk626s91m/r0q9akHV0IbwDa0b8Y3lG19tSt50oXpq9Y7NtM3KzQM1YTXtW8y2rNvyoTaj9nqdf13LVv2tq7e+2Sba1r/dd3vzDoMdFTve75TsvLUreFdrvUV99W7S7oLdjxpiG7q/5n7duEd3T8Wej3ulewf2Re/ranRvbNyvv7+yCW1SNo0eSDpw5ZuAb9qb7Zp3tXBaKg7CQeXBJ9+mfHvjUOihzsPcw83fmX+39QjrSHkr0jq/dawto22gPaG97+iMo50dXh1Hvrf/fu8x42N1xzWPV56gnSg98fnkgpPjp2Snnp1OPz3Umdx590z8mWtdUV29Z0PPnj8XdO5Mt1/3yfPe549d8Lxw9CL3Ytslt0utPa49R35w/eFIr1tv62X3y+1XPK509E3rO9Hv03/6asDVc9f41y5dn3m978bsG7duJt0cuCW69fh29u0XdwruTNxdeo94r/y+2v3qB/oP6n+0/rFlwG3g+GDAYM/DWQ/vDgmHnv6U/9OH4dJHzEfVI0YjjY+dHx8bDRq98mTOk+GnsqcTz8p+Vv9563Or59/94vtLz1j82PAL+YvPv655qfNy76uprzrHI8cfvM55PfGm/K3O233vuO+638e9H5ko/ED+UPPR+mPHp9BP9z7nfP78L/eE8/stRzjPAAAAIGNIUk0AAHomAACAhAAA+gAAAIDoAAB1MAAA6mAAADqYAAAXcJy6UTwAAAAMUExURQAAAP///8IyM////606Ug8AAAAEdFJOU////wBAKqn0AAAACXBIWXMAAC4jAAAuIwF4pT92AABWoklEQVR4nO3ayZYjOZJtUWas9/+/XG/gnZk7G20AXAGw96xyFEWjKo+I+P/+ewBp/0v/B7Cv/0v/BwD/E2MAAElqDAAgSY1BnkMlOb59kKfGAACS1BgAQJIaA9iaUyXEqTGI82sIsDU1BgCQpMYA9mY5C2lqDNL8FgLsTY0BACSpMYDNWc9CmBqDML+EAJtTYwAASWoMYHcWtJClxiDL7yDA7tQYAECSGgPYnhUtRKkxiPIrCLA9NQYAkKTGALCkhSQ1Bkl+AwFQYwAASWoMAGtaSFJjEOQXEAA1BgAQpcYAsKiFJDUGOX7/AFBjAABZagyAh1UtBKkxiPHrB8BDjQEAZKkxAIAkNQYpDpXU4hsJKWoMACBJjQEAJKkxCHEWohrfSQhRYwAASWoMACBJjUGGoxD1+FZChhoDAEhSYwAASWoMgJ+cKiFCjUGEXz0AflJjAABJagyAXyxtIUGNQYLfPAB+UWMAAElqDIDfrG0hQI1BgF88AH5TYwAASWoMgD8sbmE8NQbj+b0D4A81BgCQpMYA+MLqFoZTYzCcXzsAvlBjAABJagyAryxvYTQ1BqP5rQPgKzUGAJCkxgD4xvoWBlNjMJhfOgC+UWMAAElqDIDvLHBhLDUGY/mdA+A7NQYAkKTGAPiLFS4MpcZgKL9yAPxFjQEAJKkxAIAkNQYjOVQyB99UGEmNAQAkqTEAgCQ1BgM5/zAL31UYSI0BACSpMQCAJDUG4zj+MA/fVhhHjQEAJKkxAIAkNQbAE06VMIwag2H8ugHwhBoDAEhSYwA8Y5kLo6gxGMVvGwDPqDEAgCQ1BsBT1rkwiBqDQfyyAfCUGgMASFJjADxnoQtjqDEYw+8aAM+pMQCAJDUGwAtWujCEGoMh/KoB8IIaAwBIUmMAvGKpCyOoMRjBbxoAr6gxAIAkNQbAS9a6MIAagwH8ogHwkhoDAEhSYwC8ZrEL/akx6M/vGQCvqTEAgCQ1BgCQpMagO4dKZub7C92pMQCAJDUGAJCkxqA3hx7m5hsMvakxAIAkNQYAkKTGoDNnHmbnOwydqTEAgCQ1BgCQpMagL0ce5udbDH2pMQCAJDUGAJCkxgD4wKkSulJj0JVfMQA+UGMAAElqDIBPLHmhJzUGPfkNA+ATNQYAkKTGAPjImhc6UmPQkV8wAD5SYwAASWoMgM8seqEfNQb9+P0C4DM1BgCQpMYAOMCqF7pRY9CNXy8ADlBjAABJagyAIyx7oRc1Br347QLgCDUGAJCkxgA4xLoXOlFj0IlfLgAOUWMAAElqDIBjLHyhDzUGffjdAuAYNQYAkKTGAACS1Bh04VDJinyvoQs1BgCQpMYAAJLUGPTgoMOafLOhBzUGAJCkxgAAktQYdOCcw6p8t6EDNQYAkKTGAACS1Bi055jDuny7oT01BgCQpMYAAJLUGAAnOFVCc2oMmvNrBcAJagwAIEmNAXCG5S+0psagNb9VAJyhxgAAktQYAKdY/0Jjagwa80sFwClqDAAgSY0BcI4FMLSlxqAtv1MAnKPGAACS1BgAJ1kBQ1NqDJryKwXASWoMACBJjQFwliUwtKTGoCW/UQCcpcYAAJLUGACnWQNDQ2oMGvILBcBpagwAIEmNAQAkqTFox6GSffi2QztqDAAgSY0BACSpMWjG6Yad+L5DM2oMACBJjQEAJKkxaMXhhr34xkMragwAIEmNAQAkqTFoxNmG3fjOQyNqDAAgSY0BACSpMWjD0Yb9+NZDG2oMACBJjQEAJKkxaMLJhh353kMTagwAIEmNAQAkqTEArnKqhBbUGLTgNwmAq9QYAECSGgPgMmthaECNQQN+kQC4TI0BACSpMQCusxiG+9QY3Of3CIDr1BgAQJIaA+AGq2G4TY3BbX6NALhBjQEAJKkxAO6wHIa71Bjc5bcIgDvUGABAkhoD4BbrYbhJjcFNfokAuEWNAQAkqTEAgCQ1Bvc4VIKnAO5RYwAASWoMACBJjcEtTjTgOYCb1BgAQJIaAwBIUmNwhwMNPB6eBLhHjQEAJKkxAIAkNQY3OM/AD54FuEGNAQAkqTEAgCQ1Btc5zsAvnga4To0BACSpMQCAJDUGlznNwB+eB7hMjQEAJKkxAIAkNQZAC06VcJUag6v89gDQghoDAEhSYwA0YV0MF6kxuMgvDwBNqDEAgCQ1BkAbFsZwjRqDa/zuANCGGgMASFJjADRiZQyXqDG4xK8OAI2oMQCAJDUGQCuWxnCFGoMr/OYA0IoaAwBIUmMAAElqDC5wqITnPBtwgRoDAEhSYwAASWoMznOMgVc8HXCeGgMASFJjAABJagxOc4qB1zwfcJoaAwBIUmMAAElqDM5yiIF3PCFwlhoDAEhSYwAASWoMTnKGgfc8I3CSGgMASFJjAABJagzOcYSBTzwlcI4aAwBIUmMAAElqDE5xgoHPPCdwihoDAEhSYwAASWoMgNacKuEMNQZn+I0BoDU1BgCQpMYAaM4aGU5QY3CCXxgAmlNjAABJagyA9iyS4Tg1Bsf5fQGgPTUGAJCkxgDowCoZDlNjcJhfFwA6UGMAAElqDIAeLJPhKDUGR/ltAaAHNQYAkKTGAACS1Bgc5FAJ53hm4CA1BgCQpMYAAJLUGBzj6AJneWrgGDUGAJCkxgAAktQYHOLkAud5buAQNQYAkKTGAACS1Bgc4eACV3hy4Ag1BgCQpMYAAJLUGBzg3ALXeHbgADUGAJCkxgAAktQYfObYAld5euAzNQYAkKTGAACS1Bh85NQC13l+4CM1BgCQpMYAAJLUGAA9OVXCJ2oMPvFbAkBPagwAIEmNAdCV9TJ8oMbgA78kAHSlxgAAktQYAH1ZMMN7agze8zsCQF9qDAAgSY0B0JkVM7ylxuAtvyIAdKbGAACS1BgAQJIag3ccKqEFTxK8o8YAAJLUGABAkhqDN5xXoA3PEryhxgAAktQYAECSGoPXHFegFU8TvKbGAACS1BgAQJIag5ecVqAdzxO8pMYAAJLUGABAkhqDVxxWoCVPFLyixgAAktQYAECSGoMXnFWgLc8UvKDGAACS1BgAQJIag+ccVaA1TxU8p8YAAJLUGABAkhqDp5xUoD3PFTylxgAAktQYAECSGgNgFKdKeEaNwTN+MwAYRY0BACSpMQCGsXaGJ9QYPOEXA4Bh1BgAQJIaA2Aci2f4lxqDf/m9AGAcNQYAkKTGABjI6hn+ocbgH34tABhIjQEAJKkxAIAkNQZ/c6iEnjxh8Dc1BgCQpMYAAJLUGPzFGQX68ozBX9QYAECSGgMASFJj8J0jCvTmKYPv1BgAQJIaAwBIUmPwjRMK9Oc5g2/UGABAkhoDAEhSY/CVAwqM4EmDr9QYAECSGgMASFJj8IXzCYzhWYMv1BgAQJIaAwBIUmPwh+MJjOJpgz/UGABAkhoDAEhSY/Cb0wmM43mD39QYAECSGgMASFJjACQ4VcIvagx+8dsAQIIaAwBIUmMARFhHw09qDH7yywBAhBoDAEhSYwBkWEjDD2oMfvC7AECGGgMASFJjAABJagwej4dDJSR47uDxeKgxAIAsNQYAkKTG4PFwMIEMTx48HmoMACBLjQEAJKkxeDiXQIpnDx5qDAAgS40BACSpMXAsgRxPH6gxAIAsNQYAkKTGwKkEgjx/oMYAAKLUGABAkhoDhxJI8gSCGgMASFJjAABJaoztOZNAlmeQ7akxAIAkNQYAkKTG2J0jCaR5CtmdGgMASFJjAABJaozNOZFAnueQzakxAIAkNQYAkKTGAEhzqmRvaoy9+Q0AIE2NAQAkqTEA4qyp2ZoaY2t+AQCIU2MAAElqDIA8i2p2psbYmfc/AHlqDAAgSY0BACSpMTbmUAl1eB7ZmBoDAEhSYwAASWqMfTmMQCWeSPalxgAAktQYAECSGmNbziJQi2eSbakxAIAkNQYAkKTG2JWjCFTjqWRXagwAIEmNAQAkqTE25SQC9Xgu2ZQaAwBIUmMAAElqjD05iEBFnkz2pMYAAJLUGABAkhpjS84hUJNnky2pMQCAJDUGAJCkxtiRYwhU5elkR2oMACBJjQEAJKkxNuQUAnV5PtmQGgMASFJjAABJagyASpwq2Y8aYz/e9QBUosYAAJLUGAClWF+zHTXGdrzpAShFjQEAJKkxAIAkNcZuHCqhOk8pu1FjAABJagwAIEmNsRknEKjPc8pm1BgAQJIaAwBIUmPsxQEEZuBJZS9qDAAgSY0BACSpMbbi/AFz8KyyFTUGAJCkxgAAktQYO3H8gFl4WtmJGgMASFJjAABJaoyNOH3APDyvbESNAQAkqTEAgCQ1xj4cPmAmnlj2ocYAAJLUGABAkhpjG84eMBfPLNtQYwAASWoMACBJjbELRw+YjaeWXagxAIAkNQYAkKTG2ISTB8zHc8sm1BgAQJIaAwBIUmMAVOVUyR7UGHvwTgegKjUGAJCkxgAoy1qbLagxtuCNDkBZagwAIEmNAQAkqTF24FAJs/L0sgM1BgCQpMYAAJLUGBtw6oB5eX7ZgBoDAEhSYwAASWqM9Tl0wMw8waxPjQEAJKkxAIAkNcbynDlgbp5hlqfGAACS1BgAQJIaY3WOHDA7TzGrU2MAAElqDAAgSY2xOCcOmJ/nmMWpMQCAJDUGAJCkxlibAweswJPM2tQYAECSGgMASFJjLM15A9bgWWZpagwAIEmNAQAkqTFW5rgBq/A0szI1BgCQpMYAAJLUGAtz2oB1eJ5ZmBoDAEhSYwAASWoMgBk4VbIuNca6vLsBmIEaAwBIUmMAAElqjGU5VMJaPNMsS40BACSpMQCAJDXGqhw1YDWealalxgAAktQYAECSGmNRThqwHs81i1JjAABJagwAIEmNsSYHDViRJ5s1qTEAgCQ1BgCQpMZYknMGrMmzzZLUGABAkhoDAEhSY6zIMQNW5elmRWoMACBJjQEAJKkxFuSUAevyfLMgNQYAkKTGAACS1BjrcciAlXnCWY8aAwBIUmMAAElqjOU4Y8DaPOMsR40BACSpMQCAJDXGahwxYHWeclajxgAAktQYAECSGmMxThiwPs85i1FjAABJagwAIEmNATAbp0rWosZYi3c0ALNRYwAASWoMACBJjbEUh0rYg2edpagxAIAkNQYAkKTGWInjBezC085K1BgAQJIaAwBIUmMsxOkC9uF5ZyFqDAAgSY0BACSpMdbhcAE78cSzDjUGAJCkxgAAktQYy3C2gL145lmGGgMASFJjAABJaoxVOFrAbjz1rEKNAQAkqTEAgCQ1xiKcLGA/nnsWocYAAJLUGABAkhpjDQ4WsCNPPmtQYwAASWoMACBJjbEE5wrYk2efJagxAIAkNQYAkKTGWIFjBezK088K1BgAQJIaAwBIUmMswKkC9uX5ZwFqDAAgSY0BACSpMQCAJDXG/PyzEdiZNwDzU2MAAElqDAAgSY0xPWcK2Jt3ANNTYwAASWoMACBJjTE7RwrYnbcAs1NjAABJagwAIEmNMTknCsB7gMmpMQCAJDUGAJCkxpibAwXgTcDs1BgAQJIaAwBIUmNMzXkCeDy8C5icGgMASFJjAABJaoyZOU4AP3gbMDM1BgCQpMYAAJLUGBNzmgB+8T5gYmoMACBJjQEAJKkx5uUwAfzhjcC81BgAQJIaAwBIUmNMy1kC+Mo7gWmpMQCAJDUGAJCkxpiVowTwnbcCs1JjAABJagwAIEmNMSknCeBv3gtMSo0BACSpMQCAJDUGAJCkxpiTfx4C/MubgTmpMQCAJDUGAJCkxpiScwTwjHcDU1JjAABJagwAIEmNMSPHCOA5bwdmpMYAAJLUGABAkhpjQk4RwCveD0xIjQEAJKkxAIAkNcZ8HCKA17whmI8aAwBIUmMAAElqjOk4QwDveEcwHTUGAJCkxgAAktQYs3GEAN7zlmA2agwAIEmNAQAkqTEm4wQBfOI9wWTUGABAkhoDAEhSY8zFAQL4zJuCuagxAIAkNQYAkKTGmIrzA3CEdwVTUWMAAElqDAAgSY0xE8cH4BhvC2aixgAAktQYAECSGmMiTg8ALEiNAbAg0xsTUWMAAElqDAAgSY0xD4cH4DhvDOahxgAAktQYAECSGmMazg7AGd4ZTEONAQAkqTEAgCQ1xiwcHYBzvDWYhRoDAEhSYwAASWqMSTg5AGd5bzAJNQYAkKTGAACS1BhzcHAAzvPmYA5qDAAgSY0BACSpMabg3ABc4d3BFNQYAECSGgMASFJjzMCxAbjG24MZqDEAgCQ1BgCQpMaYgFMDcJX3BxNQYwAASWoMACBJjVGfQwNwnTcI9akxAIAkNQYAkKTGKM+ZAbjDO4Ty1BgAQJIaAwBIUmNU58gA3OMtQnVqDAAgSY0BACSpMYpzYgBgcWoMgMWZ6ihOjQEAJKkxAIAkNUZtDgzAfd4k1KbGAACS1BgAQJIaozTnBaAF7xJKU2MAAElqDAAgSY1RmeMC0Ia3CZWpMQCAJDUGAJCkxijMaQFoxfuEwtQYAECSGgMASFJj1OWwALTjjUJdagwAIEmNAQAkqTHKclYAWvJOoSw1BgCQpMYAAJLUGFU5KgBteatQlRoDAEhSYwAASWqMopwUgNa8VyhKjQEAJKkxAIAkNUZNDgpAe94s1KTGAACS1BgAQJIaoyTnBKAH7xZKUmMAAElqDAAgSY1RkWMCAPtQYwDsw6xHRWoMACBJjVGQ4RWAjagxADZi2qMgNQYAkKTGAACS1Bj1OCQA/XjDUI8aAwBIUmMAAElqjHKcEYCevGMoR40BACSpMQCAJDVGNY4IQF/eMlSjxgAAktQYAECSGqMYJwSgN+8ZilFjAABJagwAIEmNUYsDAtCfNw21qDEAgCQ1BgCQpMYoxfkAGMG7hlLUGABAkhoDAEhSY1TieACM4W1DJWoMACBJjQEAJKkxCnE6AEbxvqEQNQYAkKTGAACS1Bh1OBwA43jjUIcaAwBIUmMAAElqjDKcDYCRvHMoQ40BACSpMQCAJDVGFY4GAOxJjQGwJzMgVagxAIAkNUYRhlQANqXGANiUKZAi1BgAQJIaowYjKgC7UmMA7MocSA1qDAAgSY0BACSpMUpwLgASvHsoQY0BACSpMQCAJDVGBY4FQIa3DxWoMQCAJDUGAJCkxijAqQBI8f6hADUGAJCkxgAAktQYeQ4FQI43EHlqDAAgSY0BACSpMeKcCYAk7yDi1BgAQJIaAwBIUmOkORIAWd5CpKkxAIAkNQYAkKTGCHMiANK8hwhTYwAASWoMACBJjZHlQADkeRORpcYAAJLUGABAkhojynkAqMC7iCg1BgCQpMYAAJLUGEmOAwCgxgDAbEiSGgMASFJjBBlGAUCNAYDpkCg1BgCQpMbIMYoCgBoDgMfDfEiSGgMASFJjAABJaowYZwGgEu8kYtQYAECSGgMASFJjpDgKALV4K5GixgAAktQYAECSGiPESQCoxnuJEDUGAJCkxgAAktQYGQ4CQD3eTGSoMQCAJDUGAJCkxohwDgAq8m4iQo0BACSpMQCAJDVGgmMAUJO3EwlqDAAgSY0BACSpMQKcAoCqvJ8IUGMAAElqDAAgSY0xnkMAUJc3FOOpMQCAJDUGAJCkxhjOGQAAvlBjAPCFiZHh1BgAQJIaYzRjJwB8pcYA4CszI6OpMQCAJDXGYIZOAPhGjQHAN6ZGBlNjAABJaoyxjJwA8J0aA4DvzI2MpcYAAJLUGABAkhpjKOt/YAbeVQylxgAAktQYAECSGmMky39gDt5WjKTGAACS1BgAQJIaYyCrf2AW3lcMpMYAAJLUGABAkhpjHIt/YB7eWIyjxgAAktQYAECSGmMYa39gJt5ZDKPGAACS1BgAQJIaYxRLf2Au3lqMosYAAJLUGABAkhpjECt/YDbeWwyixgAAktQYAECSGmMMC39gPt5cjKHGAACS1BgAQJIaYwjrfgB4QY0BwAsmSYZQYwAASWqMEYyXAPCKGgOAV8ySjKDGAACS1BgDGC4B4CU1BgAvmSYZQI0BACSpMfozWgLAa2oMAF4zT9KfGgMASFJjAABJaozurPmBmXmH0Z0aAwBIUmMAAElqjN4s+YG5eYvRmxoDAEhSYwAASWqMzqz4gdl5j9GZGgMASFJjAABJaoy+LPiB+XmT0ZcaAwBIUmMAAElqjK6s94EVeJfRlRoDAEhSYwAASWqMniz3gTV4m9GTGgMASFJjAABJaoyOrPaBVXif0ZEaAwBIUmMAAElqjH4s9gHgMzUGAJ+ZL+lHjQEAJKkxujFIAsABagwADjBh0o0aAwBIUmP0YowEgCPUGAAcYcakFzUGAJCkxujEEAkAh6gxADjElEknagwAIEmN0YcREgCOUWMAcIw5kz7UGABAkhoDAEhSY3RhnQ+syLuNLtQYAECSGgMASFJj9GCZD6zJ240e1BgAQJIaAwBIUmN0YJUPrMr7jQ7UGABAkhoDAEhSY7RnkQ+syxuO9tQYAECSGgMASFJjNGeND6zMO47m1BgAQJIaAwBIUmO0ZokPrM1bjtbUGABAkhoDAEhSYzRmhQ+sznuOxtQYAECSGgMASFJjtGWBDwDnqDEAOMfcSVtqDAAgSY3RlIERAE5SYwBwksmTptQYAECSGqMl4yIAnKXGAOAssyctqTEAgCQ1RkOGRQA4TY0BwGmmTxpSYwAASWqMdoyKAHCeGgOA88yftKPGAACS1BgAQJIaoxlre2An3nk0o8YAAJLUGABAkhqjFUt7YC/eerSixgAAktQYAECSGqMRK3tgN957NKLGAACS1BgAQJIaow0Le2A/3ny0ocYAAJLUGABAkhqjCet6YEfefTShxgAAktQYAECSGqMFy3pgT95+tKDGAACS1BgAQJIaowGregC4TI0BwGWmURpQYwAASWqM+4yGAHCdGgOA68yj3KfGAACS1Bi3GQwB4AY1BgA3mEi5TY0BACSpMe4yFgLAHWoMAO4wk3KXGgMASFJj3GQoBIBb1BgA3GIq5SY1BgCQpMa4x0gIAPeoMQC4x1zKPWoMACBJjQEAJKkxbrGeB/Au5CY1BgCQpMYAAJLUGHdYzgM8Ht6G3KPGAACS1BgAQJIa4wareYAfvA+5QY0BACSpMQCAJDXGdRbzAL94I3KdGgMASFJjAABJaozLrOUB/vBO5DI1BgCQpMYAAJLUGFdZygN85a3IVWoMmNz/pf8DAO5RYwAASWqMi6zkKcNyDJibGgPmpsUow5TKRWoMACBJjXGNEZBCrMeAqakxYGpKjELMqVyjxgAAktQYlxgAKcWCDJiZGgNmpsMoxaTKJWoMACBJjXGF8Y9irMiAiakxYGIqjGLMqlyhxgAAktQYFxj+KMeSDJiXGgPmpcEox7TKBWoMACBJjXGe0Y+CrMmAaakxYFoKjILMq5ynxgAAktQYsAaLMmBWaozTrOEpQn9Rknckp6kxAIAkNQYswqoMmJQa4yxLeIpQXxTlLclZagwAIEmNAauwLAPmpMY4yQqeIrQXZXlPcpIaAwBIUmPAMqzLgCmpMc6xgKcI5UVh3pSco8YAAJLUGLAOCzNgRmqMU6zfKUJ3UZp3JaeoMQCAJDUGLMTKDJiQGuMMy3eKUF3AQtQYALRmduUMNQYAkKTGOMGwRxGvD5VOmMB81BgANGd65QQ1BgCQpMY4zqhHEe/OkU6VwHTUGAC0Z37lODUGAJCkxjjMoEcR74+RTpXAbNQYAHRgguUwNQYAkKTGOMqYRxGfTpFOlcBk1BgA9GCG5Sg1BgCQpMY4yJBHEZ8PkU6VwFzUGAB0YYrlIDUGAJCkxjjGiEcRR86QTpXAVNQYAPRhjuUYNQYAkKTGgJkcO0I6VQIzUWMcYt0OcJ53J4eoMQCAJDUGTOToCdKpEpiIGuMIy3aAK7w9OUKNAQAkqTFgHscPkE6VwDzUGAdYtQNc4/3JAWoMACBJjQHTOHN+dKoEpqHG+MyiHeAqb1A+U2MAAElqDJjFueOjUyUwCzXGR9bsANd5h/KRGgMASFJjwCTOnh6dKoFJqDE+sWQHgJ7UGAD0ZKblEzUGzOH84dGpEpiDGuMDQx0AdKXGAKArUy0fqDFgClfOjk6VwBTUGO8Z6QCgLzUGAH2Za3lPjQEzuHZ0dKoEZqDGeMtABwCdqTEA6Mxky1tqDFiYUyUwATXGO8Y5ilBVwMLUGAD0ZrblHTUGrMxSDahPjfGGYY4iNBWwMjUGAN2ZbnlDjQEAJKkxXjPKUcSdQ6UjJ1CeGgOA/sy3vKbGAACS1BhQ3b1jo1MlUJ0a4yVrdYB2vFN5SY0BACSpMaC4u6dGp0qgODXGK5bqAC15q/KKGgMASFJjQG33D41OlUBtaowXrNQB2vJe5QU1BgCQpMaA0lqcGZ0qgdLUGM9ZqAO05s3Kc2oMACBJjQGVtTkyOlUClakxnrJOB4BB1BgADGLS5Sk1BhTW6sToVAkUpsZ4xvgGAKOoMQAYxazLM2oMqKvdgdGpEqhLjfGE4Q0AhlFjADCMaZcn1BhQVsvzolMlUJYa419GNwAYR40BwDjmXf6lxoCq2h4XnSqBqtQY/zC4AcBAagwABjLx8g81BhTV+rToVAkUpcb4m7ENAEZSYwAwkpmXv6kxoKb2h0WnSqAmNcZfDG0AMJQaA4ChTL38RY0BJfU4KzpVAiWpMb4zsgHAWGoMAMYy9/KdGgMq6nNUdKoEKlJjAABJaoxvrM8B+vOu5Rs1BhTU66ToVAkUpMYAAJLUGF9ZngOM4G3LV2oMqKffQdGpEqhHjQEAJKkxvrA6BxjD+5Yv1BhQTs9zolMlUI4aAwBIUmP8YXEOMIo3Ln+oMaAax0RgL2oM2IvWA6pRY/xmbQ4AAWoMKMbyij2YgPlNjQGbUXtAMWqMX4xpAJCgxoBarK7YhRmYX9QYsBu9B9SixvjJkAYAEWoMKMXiin2YgvlJjQHbUXxAKWqMH4xoAJChxoBKrK3YiTmYH9QYsB/NB1Sixng8HgY0AIhRY0AhllbsxSTM4/FQY8CWVB9QiBrj8TCeAUCOGgPqsLJiN2ZhHg81BuxJ9wF1qDEehjMACFJjQBkWVuzHNMxDjQGbUn5AGWoMoxkAJKkxoArrKnZkHkaNAbvSfkAVagwAIEmNYU0OEOQdjBoDqhh9OnSqBIpQYwAASWoMS3KAJG9h1BhQw/jDoVMlUIMaAwBIUmPbsyIHyPIe3p4aA0pInA2dKoES1BgAQJIa250FOQBkqTGggszR0KmSGszFu1NjAABJamxzBjIACFNjQAGpk6FTJTWYjDenxgAAktTY3oxjAJCmxoC83MHQqZIazMZ7U2MAAElqbGuGMQCIU2NAXPJc6FRJDabjrakxAIAkNbYzoxgA5KkxIC17LHSqpAbz8c7UGABAkhrbmEEMAApQY0CYUyE8HibkrakxYHNqEAhTY/syhgFABWoMyLKagh/MyPtSY8Du9CCQpca2ZQgDgBLUGBBlMQW/mJK3pcaA7SlCIEqN7coIBgA1qDEgyVoK/jAn70qNAWhCIEmNAQAkqbFNWYdTg6UUfOXdvCk1BqAKgSQ1BgCQpMb2ZBlODVZS8J23857UGIAuBJLUGABAkhrbklU4NVhIwd+8n7ekxgAeyhAIUmMAAElqbEcW4dRgHQXweKgxgB+0ITWYl3ekxgAAktTYhgxe1GAZBfB4PNQYwE/qkBpMzBtSYwAASWpsP8YuarCKAvhBjQH8oA+pwcy8HzUGAJCkxrZj6KIGiyiAn9QYwE8KkRpMzdtRYwAASWpsN0YuarCGAvhFjQH8ohGpwdy8GzUGAJCkxjZj4KIGSyiA39QYwG8qkRpMzptRYwAASWpsL8YtarCCAvhDjQH8oROpwey8FzUGAJCkxrZi2KIGCyiAL9QYwBdKkRpMz1tRYwAASWpsJ0YtarB+AvhKjQF8pRWpwfy8EzUGAJCkxoDBLJ8AvlFjG7H2hiPUIjV4Z29EjQEAJKkxYCyrJ4Dv1Ng+LL3hGL1IDd7a+1BjAABJagwYyuIJ4C9qbBtW3gBQkhoD+Iv9HTWYorehxoCRhA7A39TYLoxYAFCTGgP4mw0eNZijd6HGgIFkDsA/1NgmDFgAUJQaA/iHHR41mKQ3ocYAAJLU2B6MV9Rg5QTwLzUG8C/dSA1m6T2oMQCAJDW2BcMVNVg4ATyhxgCeUI7UYJreghoDAEhSYzswWlGDdRPAM2oM4BntSA3m6R2oMQCAJDW2AYMVNVg2ATylxgCeUo/UYKLegBoDAEhSY+szVlGDVRPAc2oM4Dn9SA1m6vWpMQCAJDW2PEMVNVg0AbygxgBeUJDUYKpenhoDAEhSY6szUlGDNRPAK2oM4BUNSQ3m6tWpMQCAJDUGDGDJBPCSGluc9TbcoSKpwbt8cWoMACBJjQH9WTEBvKbG1ma5DffoSGrwNl+bGgMASFJjQHcWTABvqLGlWW3DXUoS6E6NAUB5puulqTGgN+slgHfU2MqMUnCflgR6U2MAUJ/5emVqDOjMcgngLTW2MIMUtKAmgc7UGABMwIS9MDUG9GW1BPCeGluXMQra0JNAX2oMAGZgxl6XGgO6slgC+ECNLcsQBa0oSqArNQYAUzBlL0uNAT1ZKwF8osZWZYQCgDmoMYBPbPiowZy9KjUGdCRjAD5SY4syQAHAJNQYwEd2fNRg0l6UGgP6ETEAn6mxNRmfAGAWagzgM1s+ajBrr0mNAd1IGIAD1NiSDE8AMA01BnCAPR81mLaXpMaAXgQMwBFqbEVGJwCYhxoDOMKmjxrM2ytSY0An8gXgEDW2IIMTAExEjQEcYtdHDSbuBakxoA/xAnCMGgMASFJj67HEhj5s+4A+1BjQhXSBTszc61FjAABJamw5hiboxb4P6EKNAT0IF+jG1L0cNQYAkKTGVmNkgn5s/IAe1BjQgWyBjszdq1FjAABJamwxBiboyc4P6ECNAe2JFujK5L0YNQYAkKTG1mJcgr5s/YD21BjQnGSBzszea1FjAABJamwphiXozd4PaE6NAa0JFujO9L0UNQYAkKTGVmJUgv5s/oDW1BjQmFyBAczfK1FjAABJamwhBiUYwe4PaEyNAcCETOALUWNAW1ZHAOeosXUYk2AMvQm0pcYAYEZm8HWoMaApiyOAk9TYMgxJMIriBJpSYwAwJVP4MtQY0JK1EcBZamwVRiQYR3MCLakxAJiTOXwVagxoyNII4DQ1tggDEgBMSo0BnGYHSA0m8UWoMaAdkQJwnhoDAEhSY2uwrIaxbAGBdtQY0IxEgcHM4mtQYwAASWpsCYYjGM0eEGhGjQGtCBQYzjS+BDUGAJCkxlZgNILxbAKBVtQY0Ig8gQDz+ArUGABAkhpbgMEIEuwCgUbUGNCGOIEIE/kC1BgAQJIam5+xCDJsA4E21BjQhDSBEDP5/NQYAECSGpueoQhS7AOBJtQY0IIwgRhT+fTUGABAkhqbnZEIcmwEgRbUGNCALIEgc/ns1BgAQJIam5yBCJLsBIEG1BhwnyiBKJP55NQYAECSGpubcQiybAWB+9QYcJskgTCz+dzUGABAkhqbmmEI0uwFgdvUGHCXIIE40/nU1BgAQJIam5lRCPJsBoG71BhwkxyBAsznM1NjAABJamxiBiGowG4QuEmNAfeIEYB71BgALMC9ZGJqDOAe20HgHjU2L2MQJUgRgJvUGACswIw+LzUGcJP9IHCLGpuWIYgShAjAXWoMAJZgSp+WGgO4y4YQuEONzcoIRAkyBOA2NQYAazCnz0qNAdxmRwjcoMYmZQCiBBECcJ8aA4BFmNQnpcYAAJLU2JyMP5TgUPmbjwK4To0BwCrM6nNSYwAASWpsSoYfSnCd+8KHAVymxgBgGab1KakxAIAkNTYjow8luM194+MArlJjALAO8/qM1BgAQJIam5DBhxJc5v7iAwEuUmMAsBAT+4TUGABAkhqbj7GHEtzl/uEjAa5RYwCwEjP7fNQYAECSGpuOoYcSXOWe8KEAl6gxAFiKqX06agwAIEmNzcbIQwluck/5WIAr1BgArMXcPhs1BgCQpMYmY+CBypwqgQvUGHCe6ABoR40BwGLcUSajxgDasTUEzlNjczHuUILkAGhIjQHAaszuc1FjAA3ZGwKnqbGpGHYoQXAAtKTGAGA5pvepqDGAlmwOgbPU2EyMOpQgNwCaUmMAsB7z+0zUGEBTdofASWpsIgYdShAbAG2pMQBYkAl+ImoMoC3bQ+AcNTYPYw4lSA2AxtQYAKzIDD8PNQbQmP0hcIoam4YhhxKEBkBragwAlmSKn4YaA2jNBhE4Q43NwohDCTIDoDk1BgBrMsfPQo0BNGeHCJygxiZhwKEEkQHQnhoDgEWZ5CehxgDas0UEjlNjczDeUILEAOhAjQHAqszyc1BjAABJamwKhhtKcKg8wYcFHKbGAGBZpvkpqDEAgCQ1NgOjDSW4vZ3i4wKOUmMAAElqDADW5boyAzU2AY8SJbi8neQDAw5SYwAASWoMABbmvjIBNQYc4u52mo8MOEaN1WesAYCVqTEAWJmZvj41Bhzh6naBDw04RI2VZ6gBgKWpMQBYmqm+PDUGHODmdomPDThCjVVnpAGAtakxAFibub46NQZ85uJ2kQ8OOECNFWegAYDFqTEAWJzJvjg1Bnzk3naZjw74TI3VZpwBgNWpMQBYndm+NjUGfOLadoMPD/hIjZVmmAGA5akxAFie6b40NQZ84NZ2i48P+ESNVWaUAYD1qTEAWJ/5vjI1Brzn0naTDxD4QI0VZpABgA2oMQDYgAm/MDUGvOXOdpuPEHhPjdVljAGAHagxANiBGb8uNQa848rWgA8ReEuNlWWIAYAtqDEA2IIpvyw1BrzhxtaEjxF4R41VZYQBgD2oMQCAJDUGvObC1ogPkhJcXapSY0V5ZABgE2oMACBJjQEvua8146OkBHeXotQYAECSGqvJ+AIAu1BjwCuuaw35MCnBrF+TGgMASFJjJRleAGAbagx4wW0N1mPaL0mNAYwgboFX1FhFRhcA2IcaA56zy4EVmfcrUmMAQ8hb4AU1VpDBBQA2osYAYCMm/oLUGPCUu1pzPlLgOTVWj7EFAHaixgBgJ2b+etQY8IyrWgc+VOApNVaOoQUAtqLGAGArpv5y1BjwhJtaFz5W4Bk1Vo2RBQD2osYAYC/m/mrUGPAvF7VOfLDAE2qsGAMLAGxGjQHAZkz+xagx4B/uad34aIF/qbFajCsAsBs1BgC7MfvXosaAv7mmdeTDBf6hxkoxrADAdtQYAECSGgP+4pbWlY+XEtxiSlFjlXg4AGA/agwAIEmNAd+5pHXmA6YE15hK1FghHg0A2JAaAwBIUmPAN+5o3fmIKcE9phA1BgCQpMbqMKYAwI7UGPCVK9oAPmRKsAOoQ40BACSpsTIMKQCwJTUGfOGGNoSPmRJsAcpQYwAASWqsCiMKAOxJjQF/uKAN4oOmBHuAKtQYAECSGivCgAIAm1JjwG/uZ8P4qCnBJqAINQYAkKTGajCeAMCu1Bjwi+vZQD5sSrALqEGNAQAkqbESDCcAsC01BvzkdjaUj5sSbANKUGMAAElqrAKjCQDsS40BP7icwY7sAypQYwAR8hf4SY0VYDABgI2pMeDxeNjUwK5sBApQYwAZAhj4QY3lGUsAYGdqDHg87GlgX3YCeWoMIEQCA4/HQ40VYCgBgK2pMeBhSwMQpMYAUkQwJbjRxKmxNA8BAOxNjQF2NABJagwgRgZTgitNmhoL8wgAwObUGGBDA5CkxgByhDAluNOEqTEAgCQ1lmUcoQL7GYAkNQYQJIUpwW4gS40BACSpsSjDCBXYzgBEqTGAJDFMCbYDUWoMACBJjSUZRajAbgYgS40BRMlhSrAfSFJjAABJaizIIEIFNjMAYWoMIEsQU4INQZAaAwBIUmM5xhAqsJcBSFNjAGGSmBLsCHLUGABAkhqLMYRQga0MQJwaA0gTxZRgSxCjxgAAktRYihGECuxkAPLUGECcLKYEe4IUNQYAkKTGQgwgAMDj8VBjsDX3sTL8KSjBpiBEjQEAJKmxDOMHAPCDGoN9uY4V4o8BG1NjAMAPLjcZaizC1x0A+EmNwbbcxkrx54B9qTEA4Ce3mwg1luDLDgD8osZgVy5jxfiDwLbUGADwi+tNghoL8FUHAH5TY7ApdzGAItQYQA0CmRLcbwLUGABAkhobz9hBBfYwAFWoMYAiJDIl2BmMp8YAAJLU2HCGDiqwhQEoQ40BVCGSKcHWYDg1BgCQpMZGM3JQgR0MQB1qDKAMmUwJ9gajqTEAgCQ1NpiBgwpsYAAKUWMAdQhlSrA5GEyNAQAkqbGxjBtUYP8CUIkaAyhEKlOC3cFYagwAIEmNDWXYoALbF4BS1BhAJWKZEmwPhlJjAABJamwkowYV2L0A1KLGAEqRy5RgfzCSGgMASFJjAxk0qMDmBaAYNQZQi2CmBBuEgdQYAECSGhvHmEEF9i4A1agxgGIkM2xGjQEA/3LRGUeNDeNrTQW2LgDlqDGAakQz7EWNAQBPuOkMo8ZG8aWmAjsXgHrUGEA5shm2osYAgGdcdUZRY4P4SlOBjQtAQWoMoB7hDDtRYwDAU+46g6gx2Id9C0BFamwM4wVwinSGjagxAOA5u4Qx1Bhsw7YFoCQ1NoThAjhJPMM+1BgA8IJtwhBqDHZh1wJQkxobwWgBnCafYRtqDAB4xT5hBDUGm7BpAShKjQ1gsAAuENCwCzUGALxkozCAGoM92LMAVKXG+jNWAJdIaNiEGgMAXrNT6E+NwRZsWQDKUmPdGSoAgDfUGEBVVpqUYKvQnRqDHfhVB6hLjfVmpAAA3lFjAGVZalKCvUJvagw24DcdoDA11pmBAgB4S40B1GWtSQk2C52pMVifX3SAytRYX8YJAOA9NQZQmMUmbECNwfL8ngM3ufT0pca68vUFAD5QYwCVWW3C+tQYrM6vOXCbW09XaqwnX14A4BM1BlCa5SYsT40BAJ+49vSkxjry1aUCmxWA4tQYQG2CGlanxgCAj9x7OlJjsDZ7FYDq1Fg/xgigCUkNi1NjAMBndgz9qDFYmq0KQHlqrBtDBNCIqIa1qTEA4ABbhm7UGKzMTgWgPjXWixECaEZWw9LUGABwhD1DL2oMFmajAjABNdaJAQJoSFjDytQYAHCITUMnagzWZZ8CMAM11ofxAWhKWsPC1BgAcIxdQx9qDJZlmwIwBTXWheEBaExcw7rUGABwkG1DF2oMVmWXAjAHNdaD0QFoTl7DstQYAHCUfUMPagwWZZMCMAk11oHBAehAYMOq1BgAQJIagzXZowBduP90oMba80UFupDYsCg1BgCQpMZgSbYoQCcuQO2pseZ8TYFORDasSY0BACSpMViRHQrQjRtQc2qsNV9SAOAMNQYwDUtPWJIagwX5zQY6cgVqTY015isKAJyixgDmYe0JK1JjsB6/2EBX7kCNqTEAgCQ11pZxAejK4hMWpMZgOX6vgc7sHtpSYwAASWqsKcMC0JnVJ6xHjcFq/FoD3dk+NKXGAACS1FhLRgWgO8tPWI4ag8X4rQYGsH9oSY0BACSpsYYMCsAA1p+wGjUGa/FLDQxhA9GQGgMASFJj7RgTgCEsQGExagyW4ncaGMQOoh01BgCQpMaaMSQAg1iBwlrUGKzErzQwjC1EM2oMACBJjbViRACGsQSFpagxWIjfaGAge4hW1BgAQJIaa8SAAAxkDQorUWOwDr/QADNSYwDAJe5CjaixNnwhgaEsQmEhagyW4fcZYEpqDAC4xmWoDTXWhK8jMJhVKKxDjcEq/DoDzEmNAQAXuQ01ocZa8GUEhrMMhWWoMViE32aASakxAOAq16EW1FgDvopAgHUorEKNwRr8MgPMSo0BAJe5DzWgxgAmZSEKi1Bj9xkLKMDvMsC01BgAcJ2dxH1qDGBWVqKwBjV2m6GAAvwqA8xLjQEAN9hK3KbGAKZlKQpLUGN3GQkAgDvUGCzAhgQIspe4S40BACSpsZsMBECQtSisQI3B/PwiA1E2EzepMQCAJDV2j3EAiLIYhQWoMZie32MgzG7iHjUGAJCkxm4xDABhVqMwPzUGs/NrDMTZTtyixgAAktTYHUYBIM5yFKanxmByfosBJqfGAIC7XIvuUGM3+OoBBViPwuzUGMzNLzHA7NQYAHCbe9ENauw6XzygBAtSmJwag6n5HQaYnhoDAO5zMbpOjV3mawcUYUUKc1NjMDO/wgDzU2MAQANuRpepsat86YAyLElhamoMJuY3GGABagwAaMHV6Co1dpGvHFCINSnMTI3BvPwCA6xAjQEATbgbXaTGABZgUQoTU2PXyH8K8PsLsAQ1BgC0YVdxjRoDWIFVKcxLjV0i/inAry/AGtQYANCIbcUlagxgCZalMC01doX0pwC/vQCLUGMAQCv2FVeoMYA1WJfCrNTYBcKfAvzyAqxCjQEAzdhYXKDGABZhYQqTUmPnyX4K8LsLsAw1BgC0Y2dxnhoDWIWVKcxJjZ0m+inAry7AOtQYANCQrcVpagxgGZamMCU1dpbkpwC/uQALUWMAAElqDGAd1qZU4Ip0lho7yVeMAvziAqxEjQEAJKkxAKApd6ST1Ng5vmAU4FDJa74dMCE1BgCQpMYAgLZcks5RY6f4elGAUxTv+H7AfNQYAECSGgMAGnNLOkWNneHLRQEOUbznGwLTUWMAAElqDABozTXpDDV2gq8WBThD8YnvCMxGjQEAJKkxAKA596QT1BhMxRGKz3xLYDJq7DiZDwC0p8YAgPbsMI5TYzATJyiO8D2Buaixw0Q+ANCBGgMAOrDFOEyNwUQcoDjGNwWmosaOkvgAQA9qDADowR7jKDUG83B+4ijfFZiJGjtI4AMAXagxAKALm4yD1BhMw/GJ43xbYCJq7Bh5DwD0ocYAgD7sMo5RYzALpyfO8H2BeaixQ8Q9ANCJGgMASFJjMAmHJ87xjaECt6VD1NgRvkwAQC9qDAAgSY0BrMmpkgpcl45QYwf4KlGAX1aAVakxAIAkNQawKAtVKnBfOkCNfeaLRAF+VwGWpcYAAJLUGMCqrFSpwIXpMzX2ka8RBfhVBViXGgMASFJjAMuyVKUCN6aP1NgnvkQU4DcVYGFqDAAgSY0BrMtalQpcmT5RYx/4ClGAX1SAlakxAIAkNQawMItVKnBn+kCNQXl+TwGWpsbek/MAQF9qDADoy27jPTUG1TlUcofvD9Snxt4S8wBAZ2oMAOjMduMtNQbFOTRxj28QlKfG3pHyAEBvagwA6M1+4x01BrU5M3GX7xBUp8beEPIAQHdqDADozobjDTUGpTkycZ9vERSnxl6T8QBAf2oMAOjPjuM1NQaVOTHRgu8R1KbGXhLxAMAAagwAIEmNQWEOTLThm0QFbk4vqbFXfGkAgBHUGABAkhqDupyXaMV3iQpcnV5RYy/4ygAAQ6gxAIAkNQZlOS7Rjm8TFbg7vaDGnvOFAQDGUGMAAElqDKpyWqIl3ycqcHl6To095esCAAyixgAAktQYFOWwRFu+UVTg9vSUGnvGlwUAGEWNAQAkqTGoyVmJ1nynqMD16Rk19oSvCgAwjBoDAEhSY1CSoxLt+VZRgfvTE2rsX74oAMA4agwAIEmNQUVOSvTge0UFLlD/UmMAAElq7B+iHQAYSI1BQQ5K9OGbRQW2Hv9QYwAASWrsb5IdABhJjUE9zkn04rtFBfYef1NjAABJauwvgh0AGEqNQTmOSfTj20UFNh9/UWMAAElq7Du5DgCMpcagGqckevL9gnrUGAAwlkvUd2rsG18PAGAwNQbFOCQBbEaNAWxF71OBW9Q3auwrXw4AYDQ1BrVYXADsRo0B7EXxU4Fr1Fdq7AtfDQBgODUGpVhbAGxHjQFsRvNTgXvUF2rsD18MAGA8NQaVWFoA7EeNAexG9VOBi9Qfauw3XwsAIECNQSFWFgAbUmMA29H9VOAm9Zsa+8WXAgBIUGMAAElqDOpwPmIU3zUqcJX6RY395CsBAESoMQCAJDUGZTgeMY5vGxW4S/2kxn7whQAAMtQYAECSGoMqnI4YyfeNClymflBjAABJauzxeIhzACBGjUERDkeM5RtHBbYhj8dDjQEAZKmxx0OaAwA5agxqcDZiNN85KrAPeTzUGABAlhp7CHMAIEiNQQmORoznW0cFNiIPNQYAkKXGZDkAkKTGoAInIxJ876AGNQYA5LhQqbGHrwEAEKXGoAAHIzJ886AENQYABLlRqTFfAgAgSo1BnnMRKb57UIEaAwCSXKm2rzFfAQAgavsagzzHInJ8+6AANQYARG1/p9q9xrb/AgAAYbvXGOQ5FZHk+wd5agwAyNr9UrV5je3+5wcA4javMchzKCLLNxDi1BgAELb5rWrvGtv8jw8AFLB3jUGeMxHA7tQYwN5MBFSw97Vq6xrb+08PAJSwdY1BnrUEwPbUGMDmzARUsPW9auca2/oPDwAUsXONQZ6lBABqDGB3pgIq2PlipcYAAJI2rrGdI5wqrCQA2LnGAPjBXEAFG29J1BgAQNK+NbZxglOGhQQAO9cYAL+YDKhg3z2JGgMASNq2xvYNcOqwjgDgsXGNAfCH2QCC1BgAUMK2d6tda2zbPziFWEYA8HjsW2MAfGU6gBw1BgDUsOvlatMa2/XPTSVWEQA8Ho9tawyA78wHEKPGAIAiNr1d7Vljm/6xKcUiAoAf9qwxAP5mQoAUNQYAVLHn9WrLGtvzT00t1hAA/LRljQHwLzMChKgxAKCMLe9XO9bYln9oirGEAOCXHWsMgGdMCZChxgCAOna8YG1YYzv+manGCgKA3zasMQCeMydAhBoDAArZ8Ia1X41t+EemHAsIAP7Yr8YAeMWkAAlqDACoZL8r1nY1tt+fmHqsHwD4YrsaA+A1swIEqDEAoJTt7li71dh2f2AKsnwA4KvdagyAd0wLMJ4aAwBq2e2SpcZgMKsHAL7ZrMZ2i22As8wLMNxmNQYA1LfZ9kSNAQAk7VVjm6U2JTkDUZ3vKIy2V40BADPYa3+ixgAAkraqsb1Cm5ocgQD4y1Y1BsBnZgYYTI0BAOVsdc/aqca2+sNSlKUDAH/bqcYAOMLUAGOpMQCgnp0uWhvV2E5/VqqycgDgHxvVGADHmBtgKDUGABS00U1rnxrb6I9KWRYOAPxrnxoD4CiTA4ykxgCAiva5am1TY/v8SanLugGAJ7apMQCOMzvAQGoMAChpm7vWLjW2zR+UwiwbAHhmlxoD4AzTA4yjxgCAmna5bG1SY7v8OanMqgGApzapMQDOMT/AMGoMAChqk9vWHjW2yR+T0iwaAHhujxoD4CwTBIyixgCAqva4bm1RY3v8KanNmgGAF7aoMQDOM0PAIGoMAChri/vWDjW2xR+S4iwZAHhlhxoD4ApTBIyhxgCAuna4cKkxGMCKAYCXNqixHaIaoAdzBAyxQY0BAPPaYKuixqA/CwYAXlu/xjZIaoBOTBIwwvo1BgBQmRqD7qwXAG5Y/8q1fI2t/ycE6McsAQMsX2MAAKWpMejNcgHgluXvXKvX2PJ/QICuTBPQ3+o1BgBQmxqDzqwWAG5a/dK1eI2t/ucD6M08Ad0tXmMAAMWpMejLYgHgtsVvXWvX2OJ/PIABTBTQ29o1BgBQnRqDrqwVABpY+9q1dI2t/acDGMNMAZ0tXWMAAOWpMejJUgGgiaXvXSvX2NJ/OABgESvXGAAt2PFCX2oMOvIjBtDIyhevhWts5T8bALCMhWsMgDZseaErNQb9+AkDaGbhm9e6NbbwHw0AWMi6NQZAK/a80JMag278gAE0tO7Va9kaW/dPBgAsZdkaA6Adm17oSI1BL36+AJpa9u61ao0t+wcDABazao0B0JJdL/SjxqATP14Aja16+VJjAABJi9bYqvEMkGLbC90sWmMQ56cLoLlFty1qDAAgac0aWzSdAYLse6GXNWsM4vxwAXCQGgMAZrHm9WvJGlvzTwWQZeMLnSxZYxDnZwuAo9QYADCNJe9fK9bYkn8ogDg7X+hjxRqDOD9aABymxgCAeax4AVuwxlb8MwFUYOsLXSxYYxDnJwuA49QYADCRBW9g69XYgn8kgCLsfaGH9WoMAGAmagyasz4A6Gi9K9hyNbbenwigDrMGdLBcjQEATEWNQWuWBwBdLXcHW63GlvsDAZRi2oD2VqsxAIC5qDFozOoAoLPVLmGL1dhqfx6Aaswb0NxiNQYAMBk1Bm1ZHAB0t9gtbK0aW+yPA1CQiQNaW6vGAABmo8agKWsDgAHWuoYtVWNr/WkAajJzQGNL1RgAwHTUGLRkaQAwxFL3sJVqbKk/DEBZpg5oa6UaAwCYjxqDhqwMAAZZ6SKmxgA4ydwBTS1UYytFMgCwjYVqDOIsDAA4T40BABNa6Ca2To0t9EcBKM4eGFpap8Ygzg8UABeoMQBgRutcxZapsXX+JAD12QRDQ8vUGMT5eQLgCjUGAExpmbvYKjW2zB8EYAp2wdDOKjUGcX6cALhEjQEAc1rlMrZIja3y5wCYhW0wNLNIjUGcnyYArlFjAMCkFrmNrVFji/wxACZiHwytrFFjEOeHCYCL1BgAMKs1rmNL1NgafwqAudgIQyNL1BjE+VkC4Co1BgBMa4n72Ao1tsQfAmA6dsLQxgo1BnF+lAC4TI0BAPNa4UK2QI2t8GcAmJGtMDSxQI1BnJ8kAK5TYwDAxBa4kc1fYwv8EQAmZS8MLcxfYxDnBwmAG9QYADCz+a9k09fY/H8CgHnZDEMD09cYxPk5AuAONQYATG36O9nsNTb9HwBganbDcN/sNQZxfowAuEWNAQBzm/1SpsYAuMF2GG6bvMZmj2EW4KcIgHsmrzEAgMmpMQDusB+mgMlvZXPX2OQfPivwQwTATXPXGADA7NQYALfYEFPA3NeyqWts7o+eJfgZAuCuqWsMAGB6agyAe+yIKWDqe9nMNTb1B88a/AgBcNvMNQYAMD81BsBNtsQUMPPFbOIam/ljZxF+ggC4b+IaAwBYgBoD4C57YgqY+GY2b41N/KGzCj9AADQwb40BAKxAjQEAK5j3ajZtjc37kbMMh0r4zeMAN0xbYwAAS1BjAMASpr2bzVpj037grMNlBr7wQMB1s9YYAMAa1BgAsIZZL2eT1tisHzcLcZeBbzwScNmkNQYAsIj/l/4PgElZ0M7AugY28785n/o5d2N+BwGqmfNXECqYs8YAAFahxoB12aPDbuZ86qessTk/aoC1OVXCRVPWGADAMtQYALCMKe9nM9bYlB80kOB1MZRTJVwzY40BAKxDjQEAJKkxYGVOlUM5VVLAjE/9hDU248cMAPDChDUGALAQNQYszTZ9KKdKCpjwqZ+vxib8kAEAXpqvxgAAVqLGgLXZpw/lVEkB8z3109XYfB8xAMAb09UYAMBS1BgA7ThVUsB0d7TZamy6DxhI89oAiputxgAA1qLGAGjIqZICZluJT1Zjs328QAFeHEBtk9UYAMBi1BgALTlVUsBkK/G5amyyDxeowasDKG2uGgMAWI0aA6App0oKmGslPlWNzfXRAmV4eQCVTVVjAADLUWMAtOVUSQFTrcRnqrGpPlgAgENmqjGAiwxzQGFqDIDGnCopYKYhbKIam+ljBQA4aKIaA7jMOAfUpcYAaM2pkgImGsLmqbGJPlQAgMPmqTGAGwx0QFlqDIDmnCopYJ4hbJoam+cjBQA4YZoaA7jFSAdUpcYAgCVNM4TNUmPTfKAAPPzDMThjlhoDAFiTGgM2YcUOFKXGAOjAqZICZhnCJqmxWT5OAICTJqkxgNuMdUBNagyAHpwqKWCSIWyOGpvkwwQAOG2OGgNowGAHlKTGAOjCqZIC5hjCpqixOT5KAIALpqgxAIBlqTFgHxbtYzlVUsAUj/0MNTbFBwkAcMkMNQYAsC41BmzEqn0sp0oKmOGxn6DGZvgYAQAumqDGAAAWpsaAnVi2j+VUSQETPPb1a2yCDxEA4LL6NQYAsDI1BmzFun0sp0oKqP/Yl6+x+h8hAMAN5WsMAGBpagyAfpwqKaD8na16jZX/AIHJeKsA1VSvMQCAtakxADpyqqSA6jvx4jVW/eMD5uO9AhRTvMYAABanxgDoyamSAorvxGvXWPEPD5iSNwtQS+0aAwBYnRoDoCunSgqovRMvXWO1PzpgVt4tQCmlawwAYHlqDIC+nCrhvco15pgAADRROioq1xhAH6Vfy8B21BgAnTlVwltqDABYX+WdeOEaq/yxAXPzfgEKKVxjACzCqRLeUWMAwAYK78Tr1ljhDw2YnjcMUEfdGgNgGU6V8IYaAwB2UHcnXrbG6n5kwAq8Y4AyytYYAAtxqoTX1BgAsIWyO/GqNVb2AwMAaKpqjQH0ZeYDqlBjAAzgH45RQNUprGiNVf24AAAaK1pjAL2Z+oAi1BgAIzhVUkDRKaxmjRX9sAAAmqtZYwD9mfuAGtQYAEM4VVJAzSmsZI3V/KgAADooWWMAI5j8gBLUGABjOFVSQMkprGKNlfygAAC6qFhjAAD7UGPAvmziB3OqpICKz33BGqv4MQEAdFKwxgAANqLGgI3ZxQ/mVEkBBZ/7ejVW8EMCAOimXo0BAOxEjQE7s40fzKmSAuo99+VqrN5HBADQUbkaAwDYihoDtmYfP5hTJfyrWo15MQIAXZWLjWo1BgCwFzUGwEBOlfAPNQbsrdzJAuiu2nNfrMaqfTwAAJ0VqzEAFudUCX9TY8Dm7ORhP8We+1o1VuzDAQDorlaNAbA8p0r4ixoDdmcrD/up9dyXqrFaHw0AwAClagyADThVwndqDNievTzsp9RzX6nGSn0wAABDVKoxALbgVAnfqDEAYD+VLnKFaqzSxwJsxesHSCpUYwBswqkSvlJjAMCGCi3F69RYoQ8F2I0XEBBUp8YA2IZTJXyhxgCAHdVZipepsTofCbAhryAgp0yNAbARp0r4Q40BAFsqsxSvUmNlPhBgT15CQEyVGgNgK06V8JsaAwD2VGUpXqTGqnwcAACDFakxgDBDIZCixgBI8A/HKKDIGFajxop8GAAAw9WoMYA4YyEQosYAiHCqhJ9K1JiJFAAIqJEgJWoMoIAab2VgP2oMgAynSvihQo2ZRwGAiBIRUqHGAAD2pcYAfioxI2/FqRIej4caAwB2VmEMK1BjFT4GAICQAjUGUIThcDSnSng81BgAsLUCY1i+xgp8CAAAMfkaAyjDeDiaUyU81BgAsLf8GBavsfxHAAAQFK8xgEIMiKM5VYIaAwA2Fx/D0jUW/wAAAKLSNQbA1pwqQY0BfGVhDxtKP/jhGkv/vw8AEGY3BkCSUyWoMYCvrOxhQ+EHP1tj3noAwO7sxgCIcqpke2oM4BtLe9hQ9sGP1ph3HgCwPbsxALKcKtmdGgP4ztoeNhR98JM15o0HAGA3BkCYUyWbU2MAAMmLXbDGHCqBmrydgKHsxgBIc6pkb2oMACC5Fc/VmFMAUJX3EzCS3RgAcU6VbE2NAQAkxWrMIQCoyxsKNpR78O3GAMhzqmRnagwAIClVY84AQGXeUbCh2INvNwZAAU6VbEyNAQAkqTEAgMcjd6oM1Zh/kgHU5i01nFMl+7IbAwBIUmMAAI/HI7YVz9SYEwBQnfcUMIrdGAAl+IdjbEuNAQD8kNmKR2rMAQCoz5sKGMRuDIAanCrZlRoDAPgpshVP1Jj1PzAD7ypgDLsxAIpwqmRTagwA4JfEVjxQY5b/AAC/2Y0BvGB2HM6pkj2pMQCA3wJz2PgaM2wCAPxhNwbwiulxOKdKtqTGAAD+GD+HDa8xoyYAwBd2YwAvmR+Hc6pkR2oMAOCL4XPY6BozaAIAfGU3BvCaCXI4p0o2pMYAAL4aPYcNrjFjJgDAN3ZjAFTiVMl+1BjAGzb6QHdja8xrDQAob3Cw2I0BUIpTJdtRYwDv2OkDvQ2tMS81AGACY5PFbgyAWpwq2Y0aA3jLVh/obGSNeaUBAFMYGi12YwAU41TJZtQYwHv2+kBfagwA4G8j57CBNWa8BOAQp0r2YjcGAJCkxgA+sNmHHQ188sfVmNcZAAc5VbIVuzEAgCQ1BvCJ3T7saNyTP6zGvMwAOMypkp3YjQEAJKkxgI9s92FHw578UTXmVQbACU6VbMRuDAAgSY0BfGa/Dzsa9eQPqjEvMgBOcapkH3ZjAABJagwA4KlBt70xNeZQCUzOa2w8p0q2YTcGAJCkxgAAnhuzFh9SYzb8wPS8yIBe7MYAqMk/HGMXagwA4IUha/ERNWa/DyzAqwzoxG4MgKKcKtmEGgMAeGXEWnxAjdnuA0vwMgP6sBsDoCqnSvagxgAAkvrXmN0+ADCtASFjNwZwkOFyPKdKtqDGAACSuteYWRIAmFj/lLEbAzjKeDmeUyU7UGMAAEm9a8wkCQBMrXvM2I0BHGbAHM+pkg2oMQCApM41Zo4EACbXO2fsxgCozKmS9akxgOMs/IH21BgAwFudB7G+NWaKBOAmp0qWZzcGcIIhE2hOjQEAvNd3EOtaY2ZIAG5zqmR1dmMAZxgzgdbUGADAB10HsZ41ZoIEoAGnShZnNwZwikETaEyNAQB80nMQ61hj5kcAmnCqZG12YwAASWoM4ByLf9hSx0e/X415XwHQiFMlS7MbAwBIUmMAJ1n9w5b6PfrdaszbCoBmnCpZmd0YAECSGgM4y/IfttTt0e9VY95VADTkVMnC7MYAAJLUGMBp1v9AQ51qzJsKgKacKsnrlTd2YwAASWoMACCpT405VAJr85YLcKokr9OjbzcGAJCkxgAAkrrUmBU+sDrvuQCnSvL6PPp2YwAASWoMACCpR41Z4APr86aDLXV59O3GAJiEfzjGotQYAEBShxqzvgd24F0HW+rx6NuNATALp0rWpMYAAJLUGADAYR1Ole1rzD+lAPbgbRfgVMmS7MYAAJLUGADAce334s1rzOoe2IX3XYBTJSuyGwMASFJjAAAnNN+Lt64xi3tgH954AU6VLMhuDAAgSY0BAJzRei/euMas7YGdeOcFOFWyHrsxAIAkNQYAcErjvXjbGrO0B6Azp0qWYzcGcJ0ZFLhPjQEAnNN2EmtaY4ZEALpzqmQ1dmMAN5hCgdvUGADASU0nsZY1ZkQEYACnShZjNwZwhzkUuEuNAQAkNawxAyIAQzhVktcye+zGAG4xiQI3qTEAgKR2NWY8BGAQp0ryGoaP3RgAQJIaA7jHZQC4p1mNeR0BMIxTJXnt0sduDAAgSY0B3OQ2ANzSqsa8jAAYyKmSvGbxYzcGAJCkxgDuch0A7mhUY15FAAzlVEleq/yxGwMASFJjALe5DwA3qDEApuRUSV6jSaxNjRkLAQCusRsDAEhSYwD3uRAkOFWS1+bZb1JjXkMAABfZjQEAJKkxgAbcCBKcKslr8uy3qDEvIQCAq+zGAACS1BhAC64EsKcWz36DGvMKAiDCPxxjDXZjAABJagygCXcC2FODZ/9+jXkBARDiVMkS7MYAAJLUGADAdfevhLdrzKES4PF4eB1mOFWyArsxAIAkNQYAcMPtxfjdGrOZB/jJCzHBqZIF2I0BACSpMQCApJs1Zi8P8JtXYoJTJXl3n327MQCAJDUGAJB0r8Zs5QEIc6ok72YQ2Y0BNGNEBS5QYwAASbdqzBQIQJxTJXn3kshuDKAdQypwnhoDAEi6U2NmQAAKcKok71YU2Y0BNGRMBU5TYwAASTdqzAQIQAlOleTdySK7MYCWDKrAWWoMACBJjQEwPadK8m4sxq/XmG08AMB9dmMATRlVgZPUGADzc6ok7/oodrnGTH8AAA3YjQG0ZVgFzlFjACzAqZK8y6PY1Roz+wEAtGA3BtCYcRU4RY0BsAKnSvKujmIXa8zkBwDQhN0YQGsGVuAMNQbAEpwqybs4il2rMXMfAEAbdmMAAElqDKA5B4QIp0ryrj38l2rMewYAoBG7MQCAJDUG0J4TQoRTJZO6UmPeMgAAT1yKJLsxAIAkNQbQgSNChFMlc7pQY94xAABPXckkuzEAgCQ1BtCDM0KEUyVTOl9j3jAAAC9cCCW7MQCAJDUGAJB0usYcKgGO8LaM8A/HyDv/8NuNAQAkqTEAgKSzNWb1DnCM92WEUyV5px9+uzEAgCQ1BgCQdLLGLN4BjvLGjHCqJO/sw283BgCQpMYAAJLUGEAvTpURTpXknXz4z9WYNwsAQFt2YwAASWoMgLU4VZJ37pp4qsYcKgHO8NYEDrAbAwBIUmMALMapkrxTm/EzNWblDnCO9ybwmd0YAECSGgNgNU6V5J3ZjJ+oMQt3gLO8OYGP7MYAAJLUGADLcaok78Rm/HiNWbcDnOfdCXxiNwYAkKTGAFiPUyV5xzfjh2vMsh0AoAO7MYCuzLLAB2oMgAU5VTKRozVmuAMAOOFwPNmNAfRlmgXeU2MArMipknkcrDGjHQDAKUfzyW4MoDPzLPCWGgNgSU6VTONYjRnsAABOOhhQdmMAvZlogXfUGABrcqpkFodqzFgHAHDasYSyGwMASFJjAN25MGQ4VTKJIzXmNQIAcMGhiLIbAwBIUmMA/bkxZDhVMocDNeYlAgBwyZGMshsDAEhSYwADuDJkOFUyBTUGANDNgVnsc40Z6AAA+rEbAxjBZJvhVMkM1BgAQD+fZ7GPNWacAwDoyG4MACBJjQEM4dKQ4R+Okffx6f9UY14fAAA92Y0BACSpMYAx3BoynCrJ+/T0f6gxLw8AgK7sxgAAktQYwCCuDRlOleR9ePrf15hXBwBAX3ZjAABJagyAtTlVUt3bGnOoBGjISxV29f7ptxsDAEhSYwAszqmS4t7VmJ06QFNeq7Crt0+/3RgAQJIaA2B1TpXU9qbGbNQBGvNihV29e/rtxgAAktQYAMtzqqS01zVmnw7QnFcr7OrN0283BgCQpMYAWJ9TJZW9rDHbdACAZl6nld0YwEhGXeBvagyADThVUtirGjO9AQA09DKu7MYAhjLsAn9RYwDswKmSul7UmNkNAKCpV3llNwYwlnEX+E6NAbAFp0rKUmMAAEO8WI0/rzF7dIBuvGKBb+zGANiDUyVVqTEAgDGer8af1pgtOgDAIHZjAKMZeUOcKilKjQEADPJ0GHtWY6Y2AIBR7MYAhjP0hjhVUpMaAwAY5dkw9qTGzGwAAMPYjQGMZ+wNcaqkJDUGADDMk2Hs3xozsQEAjGM3BhBg8A1xqqQiNQYAkPRPjZnXAAC6+Te17MYA2IhTJQWpMYAEhwjgl79rzPsBAKCjf2LLbgwAIEmNAUQ4RYT4h2PU81eNeTsAAHT1d27ZjQEAJKkxgAzHiBCnSsr5XmPeDQAAnf0VXHZjAABJagwgxDkixKmSar7VmDcDAEB335PLbgwAIEmNAbAZp0qK+VpjDpUAI3nrwra+Pf52YwAASWoMgN04VVLLlxqzMgcYy3sXtvX18bcbAwBIUmMAbMepklLUGECOUyVs68vj/9+z/xEAgEHsxgDYj1MllagxgCBnCdjWn8f/v3//JwAAhrEbA2BDTpUUosYAAAJ+3yX/+/t/AGAgb1/AbgyAHTlVUocaAwBI+LUb/+/7/wnAWN6/sD27MQC25FRJGWoMACDpR41ZlAOkeAPDtn4+/nZjAOzJqZIq1BgAQNJ/j4c1OUCSdzBs68fjbzcGwKacKilCjQEAJP33sCQHAIj43+NhNwaQZyZOcaqkBjUGAJD0n6EMACDkfw+7MYACTMUpTpWUoMYAAJL+M5IBAKT8z24MoAJzcYpTJRWoMQCApP8MZAAAMf+zGwOowGQMG/v/tzzn64E0wQUAAAAASUVORK5CYII=;" parent="1" vertex="1">
          <mxGeometry x="316.18" y="460.00000000000006" width="48.63" height="55.47" as="geometry" />
        </mxCell>
        <mxCell id="oXmed51vgdk_MXoM8xgo-3" value="" style="shape=image;aspect=fixed;image=data:image/png,iVBORw0KGgoAAAANSUhEUgAACY0AAArlCAMAAACGGuVrAAAABGdBTUEAALGPC/xhBQAACklpQ0NQc1JHQiBJRUM2MTk2Ni0yLjEAAEiJnVN3WJP3Fj7f92UPVkLY8LGXbIEAIiOsCMgQWaIQkgBhhBASQMWFiApWFBURnEhVxILVCkidiOKgKLhnQYqIWotVXDjuH9yntX167+3t+9f7vOec5/zOec8PgBESJpHmomoAOVKFPDrYH49PSMTJvYACFUjgBCAQ5svCZwXFAADwA3l4fnSwP/wBr28AAgBw1S4kEsfh/4O6UCZXACCRAOAiEucLAZBSAMguVMgUAMgYALBTs2QKAJQAAGx5fEIiAKoNAOz0ST4FANipk9wXANiiHKkIAI0BAJkoRyQCQLsAYFWBUiwCwMIAoKxAIi4EwK4BgFm2MkcCgL0FAHaOWJAPQGAAgJlCLMwAIDgCAEMeE80DIEwDoDDSv+CpX3CFuEgBAMDLlc2XS9IzFLiV0Bp38vDg4iHiwmyxQmEXKRBmCeQinJebIxNI5wNMzgwAABr50cH+OD+Q5+bk4eZm52zv9MWi/mvwbyI+IfHf/ryMAgQAEE7P79pf5eXWA3DHAbB1v2upWwDaVgBo3/ldM9sJoFoK0Hr5i3k4/EAenqFQyDwdHAoLC+0lYqG9MOOLPv8z4W/gi372/EAe/tt68ABxmkCZrcCjg/1xYW52rlKO58sEQjFu9+cj/seFf/2OKdHiNLFcLBWK8ViJuFAiTcd5uVKRRCHJleIS6X8y8R+W/QmTdw0ArIZPwE62B7XLbMB+7gECiw5Y0nYAQH7zLYwaC5EAEGc0Mnn3AACTv/mPQCsBAM2XpOMAALzoGFyolBdMxggAAESggSqwQQcMwRSswA6cwR28wBcCYQZEQAwkwDwQQgbkgBwKoRiWQRlUwDrYBLWwAxqgEZrhELTBMTgN5+ASXIHrcBcGYBiewhi8hgkEQcgIE2EhOogRYo7YIs4IF5mOBCJhSDSSgKQg6YgUUSLFyHKkAqlCapFdSCPyLXIUOY1cQPqQ28ggMor8irxHMZSBslED1AJ1QLmoHxqKxqBz0XQ0D12AlqJr0Rq0Hj2AtqKn0UvodXQAfYqOY4DRMQ5mjNlhXIyHRWCJWBomxxZj5Vg1Vo81Yx1YN3YVG8CeYe8IJAKLgBPsCF6EEMJsgpCQR1hMWEOoJewjtBK6CFcJg4Qxwicik6hPtCV6EvnEeGI6sZBYRqwm7iEeIZ4lXicOE1+TSCQOyZLkTgohJZAySQtJa0jbSC2kU6Q+0hBpnEwm65Btyd7kCLKArCCXkbeQD5BPkvvJw+S3FDrFiOJMCaIkUqSUEko1ZT/lBKWfMkKZoKpRzame1AiqiDqfWkltoHZQL1OHqRM0dZolzZsWQ8ukLaPV0JppZ2n3aC/pdLoJ3YMeRZfQl9Jr6Afp5+mD9HcMDYYNg8dIYigZaxl7GacYtxkvmUymBdOXmchUMNcyG5lnmA+Yb1VYKvYqfBWRyhKVOpVWlX6V56pUVXNVP9V5qgtUq1UPq15WfaZGVbNQ46kJ1Bar1akdVbupNq7OUndSj1DPUV+jvl/9gvpjDbKGhUaghkijVGO3xhmNIRbGMmXxWELWclYD6yxrmE1iW7L57Ex2Bfsbdi97TFNDc6pmrGaRZp3mcc0BDsax4PA52ZxKziHODc57LQMtPy2x1mqtZq1+rTfaetq+2mLtcu0W7eva73VwnUCdLJ31Om0693UJuja6UbqFutt1z+o+02PreekJ9cr1Dund0Uf1bfSj9Rfq79bv0R83MDQINpAZbDE4Y/DMkGPoa5hpuNHwhOGoEctoupHEaKPRSaMnuCbuh2fjNXgXPmasbxxirDTeZdxrPGFiaTLbpMSkxeS+Kc2Ua5pmutG003TMzMgs3KzYrMnsjjnVnGueYb7ZvNv8jYWlRZzFSos2i8eW2pZ8ywWWTZb3rJhWPlZ5VvVW16xJ1lzrLOtt1ldsUBtXmwybOpvLtqitm63Edptt3xTiFI8p0in1U27aMez87ArsmuwG7Tn2YfYl9m32zx3MHBId1jt0O3xydHXMdmxwvOuk4TTDqcSpw+lXZxtnoXOd8zUXpkuQyxKXdpcXU22niqdun3rLleUa7rrStdP1o5u7m9yt2W3U3cw9xX2r+00umxvJXcM970H08PdY4nHM452nm6fC85DnL152Xlle+70eT7OcJp7WMG3I28Rb4L3Le2A6Pj1l+s7pAz7GPgKfep+Hvqa+It89viN+1n6Zfgf8nvs7+sv9j/i/4XnyFvFOBWABwQHlAb2BGoGzA2sDHwSZBKUHNQWNBbsGLww+FUIMCQ1ZH3KTb8AX8hv5YzPcZyya0RXKCJ0VWhv6MMwmTB7WEY6GzwjfEH5vpvlM6cy2CIjgR2yIuB9pGZkX+X0UKSoyqi7qUbRTdHF09yzWrORZ+2e9jvGPqYy5O9tqtnJ2Z6xqbFJsY+ybuIC4qriBeIf4RfGXEnQTJAntieTE2MQ9ieNzAudsmjOc5JpUlnRjruXcorkX5unOy553PFk1WZB8OIWYEpeyP+WDIEJQLxhP5aduTR0T8oSbhU9FvqKNolGxt7hKPJLmnVaV9jjdO31D+miGT0Z1xjMJT1IreZEZkrkj801WRNberM/ZcdktOZSclJyjUg1plrQr1zC3KLdPZisrkw3keeZtyhuTh8r35CP5c/PbFWyFTNGjtFKuUA4WTC+oK3hbGFt4uEi9SFrUM99m/ur5IwuCFny9kLBQuLCz2Lh4WfHgIr9FuxYji1MXdy4xXVK6ZHhp8NJ9y2jLspb9UOJYUlXyannc8o5Sg9KlpUMrglc0lamUycturvRauWMVYZVkVe9ql9VbVn8qF5VfrHCsqK74sEa45uJXTl/VfPV5bdra3kq3yu3rSOuk626s91m/r0q9akHV0IbwDa0b8Y3lG19tSt50oXpq9Y7NtM3KzQM1YTXtW8y2rNvyoTaj9nqdf13LVv2tq7e+2Sba1r/dd3vzDoMdFTve75TsvLUreFdrvUV99W7S7oLdjxpiG7q/5n7duEd3T8Wej3ulewf2Re/ranRvbNyvv7+yCW1SNo0eSDpw5ZuAb9qb7Zp3tXBaKg7CQeXBJ9+mfHvjUOihzsPcw83fmX+39QjrSHkr0jq/dawto22gPaG97+iMo50dXh1Hvrf/fu8x42N1xzWPV56gnSg98fnkgpPjp2Snnp1OPz3Umdx590z8mWtdUV29Z0PPnj8XdO5Mt1/3yfPe549d8Lxw9CL3Ytslt0utPa49R35w/eFIr1tv62X3y+1XPK509E3rO9Hv03/6asDVc9f41y5dn3m978bsG7duJt0cuCW69fh29u0XdwruTNxdeo94r/y+2v3qB/oP6n+0/rFlwG3g+GDAYM/DWQ/vDgmHnv6U/9OH4dJHzEfVI0YjjY+dHx8bDRq98mTOk+GnsqcTz8p+Vv9563Or59/94vtLz1j82PAL+YvPv655qfNy76uprzrHI8cfvM55PfGm/K3O233vuO+638e9H5ko/ED+UPPR+mPHp9BP9z7nfP78L/eE8/stRzjPAAAAIGNIUk0AAHomAACAhAAA+gAAAIDoAAB1MAAA6mAAADqYAAAXcJy6UTwAAAAMUExURQAAAP///8IyM////606Ug8AAAAEdFJOU////wBAKqn0AAAACXBIWXMAAC4jAAAuIwF4pT92AABWoklEQVR4nO3ayZYjOZJtUWas9/+/XG/gnZk7G20AXAGw96xyFEWjKo+I+P/+ewBp/0v/B7Cv/0v/BwD/E2MAAElqDAAgSY1BnkMlOb59kKfGAACS1BgAQJIaA9iaUyXEqTGI82sIsDU1BgCQpMYA9mY5C2lqDNL8FgLsTY0BACSpMYDNWc9CmBqDML+EAJtTYwAASWoMYHcWtJClxiDL7yDA7tQYAECSGgPYnhUtRKkxiPIrCLA9NQYAkKTGALCkhSQ1Bkl+AwFQYwAASWoMAGtaSFJjEOQXEAA1BgAQpcYAsKiFJDUGOX7/AFBjAABZagyAh1UtBKkxiPHrB8BDjQEAZKkxAIAkNQYpDpXU4hsJKWoMACBJjQEAJKkxCHEWohrfSQhRYwAASWoMACBJjUGGoxD1+FZChhoDAEhSYwAASWoMgJ+cKiFCjUGEXz0AflJjAABJagyAXyxtIUGNQYLfPAB+UWMAAElqDIDfrG0hQI1BgF88AH5TYwAASWoMgD8sbmE8NQbj+b0D4A81BgCQpMYA+MLqFoZTYzCcXzsAvlBjAABJagyAryxvYTQ1BqP5rQPgKzUGAJCkxgD4xvoWBlNjMJhfOgC+UWMAAElqDIDvLHBhLDUGY/mdA+A7NQYAkKTGAPiLFS4MpcZgKL9yAPxFjQEAJKkxAIAkNQYjOVQyB99UGEmNAQAkqTEAgCQ1BgM5/zAL31UYSI0BACSpMQCAJDUG4zj+MA/fVhhHjQEAJKkxAIAkNQbAE06VMIwag2H8ugHwhBoDAEhSYwA8Y5kLo6gxGMVvGwDPqDEAgCQ1BsBT1rkwiBqDQfyyAfCUGgMASFJjADxnoQtjqDEYw+8aAM+pMQCAJDUGwAtWujCEGoMh/KoB8IIaAwBIUmMAvGKpCyOoMRjBbxoAr6gxAIAkNQbAS9a6MIAagwH8ogHwkhoDAEhSYwC8ZrEL/akx6M/vGQCvqTEAgCQ1BgCQpMagO4dKZub7C92pMQCAJDUGAJCkxqA3hx7m5hsMvakxAIAkNQYAkKTGoDNnHmbnOwydqTEAgCQ1BgCQpMagL0ce5udbDH2pMQCAJDUGAJCkxgD4wKkSulJj0JVfMQA+UGMAAElqDIBPLHmhJzUGPfkNA+ATNQYAkKTGAPjImhc6UmPQkV8wAD5SYwAASWoMgM8seqEfNQb9+P0C4DM1BgCQpMYAOMCqF7pRY9CNXy8ADlBjAABJagyAIyx7oRc1Br347QLgCDUGAJCkxgA4xLoXOlFj0IlfLgAOUWMAAElqDIBjLHyhDzUGffjdAuAYNQYAkKTGAACS1Bh04VDJinyvoQs1BgCQpMYAAJLUGPTgoMOafLOhBzUGAJCkxgAAktQYdOCcw6p8t6EDNQYAkKTGAACS1Bi055jDuny7oT01BgCQpMYAAJLUGAAnOFVCc2oMmvNrBcAJagwAIEmNAXCG5S+0psagNb9VAJyhxgAAktQYAKdY/0Jjagwa80sFwClqDAAgSY0BcI4FMLSlxqAtv1MAnKPGAACS1BgAJ1kBQ1NqDJryKwXASWoMACBJjQFwliUwtKTGoCW/UQCcpcYAAJLUGACnWQNDQ2oMGvILBcBpagwAIEmNAQAkqTFox6GSffi2QztqDAAgSY0BACSpMWjG6Yad+L5DM2oMACBJjQEAJKkxaMXhhr34xkMragwAIEmNAQAkqTFoxNmG3fjOQyNqDAAgSY0BACSpMWjD0Yb9+NZDG2oMACBJjQEAJKkxaMLJhh353kMTagwAIEmNAQAkqTEArnKqhBbUGLTgNwmAq9QYAECSGgPgMmthaECNQQN+kQC4TI0BACSpMQCusxiG+9QY3Of3CIDr1BgAQJIaA+AGq2G4TY3BbX6NALhBjQEAJKkxAO6wHIa71Bjc5bcIgDvUGABAkhoD4BbrYbhJjcFNfokAuEWNAQAkqTEAgCQ1Bvc4VIKnAO5RYwAASWoMACBJjcEtTjTgOYCb1BgAQJIaAwBIUmNwhwMNPB6eBLhHjQEAJKkxAIAkNQY3OM/AD54FuEGNAQAkqTEAgCQ1Btc5zsAvnga4To0BACSpMQCAJDUGlznNwB+eB7hMjQEAJKkxAIAkNQZAC06VcJUag6v89gDQghoDAEhSYwA0YV0MF6kxuMgvDwBNqDEAgCQ1BkAbFsZwjRqDa/zuANCGGgMASFJjADRiZQyXqDG4xK8OAI2oMQCAJDUGQCuWxnCFGoMr/OYA0IoaAwBIUmMAAElqDC5wqITnPBtwgRoDAEhSYwAASWoMznOMgVc8HXCeGgMASFJjAABJagxOc4qB1zwfcJoaAwBIUmMAAElqDM5yiIF3PCFwlhoDAEhSYwAASWoMTnKGgfc8I3CSGgMASFJjAABJagzOcYSBTzwlcI4aAwBIUmMAAElqDE5xgoHPPCdwihoDAEhSYwAASWoMgNacKuEMNQZn+I0BoDU1BgCQpMYAaM4aGU5QY3CCXxgAmlNjAABJagyA9iyS4Tg1Bsf5fQGgPTUGAJCkxgDowCoZDlNjcJhfFwA6UGMAAElqDIAeLJPhKDUGR/ltAaAHNQYAkKTGAACS1Bgc5FAJ53hm4CA1BgCQpMYAAJLUGBzj6AJneWrgGDUGAJCkxgAAktQYHOLkAud5buAQNQYAkKTGAACS1Bgc4eACV3hy4Ag1BgCQpMYAAJLUGBzg3ALXeHbgADUGAJCkxgAAktQYfObYAld5euAzNQYAkKTGAACS1Bh85NQC13l+4CM1BgCQpMYAAJLUGAA9OVXCJ2oMPvFbAkBPagwAIEmNAdCV9TJ8oMbgA78kAHSlxgAAktQYAH1ZMMN7agze8zsCQF9qDAAgSY0B0JkVM7ylxuAtvyIAdKbGAACS1BgAQJIag3ccKqEFTxK8o8YAAJLUGABAkhqDN5xXoA3PEryhxgAAktQYAECSGoPXHFegFU8TvKbGAACS1BgAQJIag5ecVqAdzxO8pMYAAJLUGABAkhqDVxxWoCVPFLyixgAAktQYAECSGoMXnFWgLc8UvKDGAACS1BgAQJIag+ccVaA1TxU8p8YAAJLUGABAkhqDp5xUoD3PFTylxgAAktQYAECSGgNgFKdKeEaNwTN+MwAYRY0BACSpMQCGsXaGJ9QYPOEXA4Bh1BgAQJIaA2Aci2f4lxqDf/m9AGAcNQYAkKTGABjI6hn+ocbgH34tABhIjQEAJKkxAIAkNQZ/c6iEnjxh8Dc1BgCQpMYAAJLUGPzFGQX68ozBX9QYAECSGgMASFJj8J0jCvTmKYPv1BgAQJIaAwBIUmPwjRMK9Oc5g2/UGABAkhoDAEhSY/CVAwqM4EmDr9QYAECSGgMASFJj8IXzCYzhWYMv1BgAQJIaAwBIUmPwh+MJjOJpgz/UGABAkhoDAEhSY/Cb0wmM43mD39QYAECSGgMASFJjACQ4VcIvagx+8dsAQIIaAwBIUmMARFhHw09qDH7yywBAhBoDAEhSYwBkWEjDD2oMfvC7AECGGgMASFJjAABJagwej4dDJSR47uDxeKgxAIAsNQYAkKTG4PFwMIEMTx48HmoMACBLjQEAJKkxeDiXQIpnDx5qDAAgS40BACSpMXAsgRxPH6gxAIAsNQYAkKTGwKkEgjx/oMYAAKLUGABAkhoDhxJI8gSCGgMASFJjAABJaoztOZNAlmeQ7akxAIAkNQYAkKTG2J0jCaR5CtmdGgMASFJjAABJaozNOZFAnueQzakxAIAkNQYAkKTGAEhzqmRvaoy9+Q0AIE2NAQAkqTEA4qyp2ZoaY2t+AQCIU2MAAElqDIA8i2p2psbYmfc/AHlqDAAgSY0BACSpMTbmUAl1eB7ZmBoDAEhSYwAASWqMfTmMQCWeSPalxgAAktQYAECSGmNbziJQi2eSbakxAIAkNQYAkKTG2JWjCFTjqWRXagwAIEmNAQAkqTE25SQC9Xgu2ZQaAwBIUmMAAElqjD05iEBFnkz2pMYAAJLUGABAkhpjS84hUJNnky2pMQCAJDUGAJCkxtiRYwhU5elkR2oMACBJjQEAJKkxNuQUAnV5PtmQGgMASFJjAABJagyASpwq2Y8aYz/e9QBUosYAAJLUGAClWF+zHTXGdrzpAShFjQEAJKkxAIAkNcZuHCqhOk8pu1FjAABJagwAIEmNsRknEKjPc8pm1BgAQJIaAwBIUmPsxQEEZuBJZS9qDAAgSY0BACSpMbbi/AFz8KyyFTUGAJCkxgAAktQYO3H8gFl4WtmJGgMASFJjAABJaoyNOH3APDyvbESNAQAkqTEAgCQ1xj4cPmAmnlj2ocYAAJLUGABAkhpjG84eMBfPLNtQYwAASWoMACBJjbELRw+YjaeWXagxAIAkNQYAkKTG2ISTB8zHc8sm1BgAQJIaAwBIUmMAVOVUyR7UGHvwTgegKjUGAJCkxgAoy1qbLagxtuCNDkBZagwAIEmNAQAkqTF24FAJs/L0sgM1BgCQpMYAAJLUGBtw6oB5eX7ZgBoDAEhSYwAASWqM9Tl0wMw8waxPjQEAJKkxAIAkNcbynDlgbp5hlqfGAACS1BgAQJIaY3WOHDA7TzGrU2MAAElqDAAgSY2xOCcOmJ/nmMWpMQCAJDUGAJCkxlibAweswJPM2tQYAECSGgMASFJjLM15A9bgWWZpagwAIEmNAQAkqTFW5rgBq/A0szI1BgCQpMYAAJLUGAtz2oB1eJ5ZmBoDAEhSYwAASWoMgBk4VbIuNca6vLsBmIEaAwBIUmMAAElqjGU5VMJaPNMsS40BACSpMQCAJDXGqhw1YDWealalxgAAktQYAECSGmNRThqwHs81i1JjAABJagwAIEmNsSYHDViRJ5s1qTEAgCQ1BgCQpMZYknMGrMmzzZLUGABAkhoDAEhSY6zIMQNW5elmRWoMACBJjQEAJKkxFuSUAevyfLMgNQYAkKTGAACS1BjrcciAlXnCWY8aAwBIUmMAAElqjOU4Y8DaPOMsR40BACSpMQCAJDXGahwxYHWeclajxgAAktQYAECSGmMxThiwPs85i1FjAABJagwAIEmNATAbp0rWosZYi3c0ALNRYwAASWoMACBJjbEUh0rYg2edpagxAIAkNQYAkKTGWInjBezC085K1BgAQJIaAwBIUmMsxOkC9uF5ZyFqDAAgSY0BACSpMdbhcAE78cSzDjUGAJCkxgAAktQYy3C2gL145lmGGgMASFJjAABJaoxVOFrAbjz1rEKNAQAkqTEAgCQ1xiKcLGA/nnsWocYAAJLUGABAkhpjDQ4WsCNPPmtQYwAASWoMACBJjbEE5wrYk2efJagxAIAkNQYAkKTGWIFjBezK088K1BgAQJIaAwBIUmMswKkC9uX5ZwFqDAAgSY0BACSpMQCAJDXG/PyzEdiZNwDzU2MAAElqDAAgSY0xPWcK2Jt3ANNTYwAASWoMACBJjTE7RwrYnbcAs1NjAABJagwAIEmNMTknCsB7gMmpMQCAJDUGAJCkxpibAwXgTcDs1BgAQJIaAwBIUmNMzXkCeDy8C5icGgMASFJjAABJaoyZOU4AP3gbMDM1BgCQpMYAAJLUGBNzmgB+8T5gYmoMACBJjQEAJKkx5uUwAfzhjcC81BgAQJIaAwBIUmNMy1kC+Mo7gWmpMQCAJDUGAJCkxpiVowTwnbcCs1JjAABJagwAIEmNMSknCeBv3gtMSo0BACSpMQCAJDUGAJCkxpiTfx4C/MubgTmpMQCAJDUGAJCkxpiScwTwjHcDU1JjAABJagwAIEmNMSPHCOA5bwdmpMYAAJLUGABAkhpjQk4RwCveD0xIjQEAJKkxAIAkNcZ8HCKA17whmI8aAwBIUmMAAElqjOk4QwDveEcwHTUGAJCkxgAAktQYs3GEAN7zlmA2agwAIEmNAQAkqTEm4wQBfOI9wWTUGABAkhoDAEhSY8zFAQL4zJuCuagxAIAkNQYAkKTGmIrzA3CEdwVTUWMAAElqDAAgSY0xE8cH4BhvC2aixgAAktQYAECSGmMiTg8ALEiNAbAg0xsTUWMAAElqDAAgSY0xD4cH4DhvDOahxgAAktQYAECSGmMazg7AGd4ZTEONAQAkqTEAgCQ1xiwcHYBzvDWYhRoDAEhSYwAASWqMSTg5AGd5bzAJNQYAkKTGAACS1BhzcHAAzvPmYA5qDAAgSY0BACSpMabg3ABc4d3BFNQYAECSGgMASFJjzMCxAbjG24MZqDEAgCQ1BgCQpMaYgFMDcJX3BxNQYwAASWoMACBJjVGfQwNwnTcI9akxAIAkNQYAkKTGKM+ZAbjDO4Ty1BgAQJIaAwBIUmNU58gA3OMtQnVqDAAgSY0BACSpMYpzYgBgcWoMgMWZ6ihOjQEAJKkxAIAkNUZtDgzAfd4k1KbGAACS1BgAQJIaozTnBaAF7xJKU2MAAElqDAAgSY1RmeMC0Ia3CZWpMQCAJDUGAJCkxijMaQFoxfuEwtQYAECSGgMASFJj1OWwALTjjUJdagwAIEmNAQAkqTHKclYAWvJOoSw1BgCQpMYAAJLUGFU5KgBteatQlRoDAEhSYwAASWqMopwUgNa8VyhKjQEAJKkxAIAkNUZNDgpAe94s1KTGAACS1BgAQJIaoyTnBKAH7xZKUmMAAElqDAAgSY1RkWMCAPtQYwDsw6xHRWoMACBJjVGQ4RWAjagxADZi2qMgNQYAkKTGAACS1Bj1OCQA/XjDUI8aAwBIUmMAAElqjHKcEYCevGMoR40BACSpMQCAJDVGNY4IQF/eMlSjxgAAktQYAECSGqMYJwSgN+8ZilFjAABJagwAIEmNUYsDAtCfNw21qDEAgCQ1BgCQpMYoxfkAGMG7hlLUGABAkhoDAEhSY1TieACM4W1DJWoMACBJjQEAJKkxCnE6AEbxvqEQNQYAkKTGAACS1Bh1OBwA43jjUIcaAwBIUmMAAElqjDKcDYCRvHMoQ40BACSpMQCAJDVGFY4GAOxJjQGwJzMgVagxAIAkNUYRhlQANqXGANiUKZAi1BgAQJIaowYjKgC7UmMA7MocSA1qDAAgSY0BACSpMUpwLgASvHsoQY0BACSpMQCAJDVGBY4FQIa3DxWoMQCAJDUGAJCkxijAqQBI8f6hADUGAJCkxgAAktQYeQ4FQI43EHlqDAAgSY0BACSpMeKcCYAk7yDi1BgAQJIaAwBIUmOkORIAWd5CpKkxAIAkNQYAkKTGCHMiANK8hwhTYwAASWoMACBJjZHlQADkeRORpcYAAJLUGABAkhojynkAqMC7iCg1BgCQpMYAAJLUGEmOAwCgxgDAbEiSGgMASFJjBBlGAUCNAYDpkCg1BgCQpMbIMYoCgBoDgMfDfEiSGgMASFJjAABJaowYZwGgEu8kYtQYAECSGgMASFJjpDgKALV4K5GixgAAktQYAECSGiPESQCoxnuJEDUGAJCkxgAAktQYGQ4CQD3eTGSoMQCAJDUGAJCkxohwDgAq8m4iQo0BACSpMQCAJDVGgmMAUJO3EwlqDAAgSY0BACSpMQKcAoCqvJ8IUGMAAElqDAAgSY0xnkMAUJc3FOOpMQCAJDUGAJCkxhjOGQAAvlBjAPCFiZHh1BgAQJIaYzRjJwB8pcYA4CszI6OpMQCAJDXGYIZOAPhGjQHAN6ZGBlNjAABJaoyxjJwA8J0aA4DvzI2MpcYAAJLUGABAkhpjKOt/YAbeVQylxgAAktQYAECSGmMky39gDt5WjKTGAACS1BgAQJIaYyCrf2AW3lcMpMYAAJLUGABAkhpjHIt/YB7eWIyjxgAAktQYAECSGmMYa39gJt5ZDKPGAACS1BgAQJIaYxRLf2Au3lqMosYAAJLUGABAkhpjECt/YDbeWwyixgAAktQYAECSGmMMC39gPt5cjKHGAACS1BgAQJIaYwjrfgB4QY0BwAsmSYZQYwAASWqMEYyXAPCKGgOAV8ySjKDGAACS1BgDGC4B4CU1BgAvmSYZQI0BACSpMfozWgLAa2oMAF4zT9KfGgMASFJjAABJaozurPmBmXmH0Z0aAwBIUmMAAElqjN4s+YG5eYvRmxoDAEhSYwAASWqMzqz4gdl5j9GZGgMASFJjAABJaoy+LPiB+XmT0ZcaAwBIUmMAAElqjK6s94EVeJfRlRoDAEhSYwAASWqMniz3gTV4m9GTGgMASFJjAABJaoyOrPaBVXif0ZEaAwBIUmMAAElqjH4s9gHgMzUGAJ+ZL+lHjQEAJKkxujFIAsABagwADjBh0o0aAwBIUmP0YowEgCPUGAAcYcakFzUGAJCkxujEEAkAh6gxADjElEknagwAIEmN0YcREgCOUWMAcIw5kz7UGABAkhoDAEhSY3RhnQ+syLuNLtQYAECSGgMASFJj9GCZD6zJ240e1BgAQJIaAwBIUmN0YJUPrMr7jQ7UGABAkhoDAEhSY7RnkQ+syxuO9tQYAECSGgMASFJjNGeND6zMO47m1BgAQJIaAwBIUmO0ZokPrM1bjtbUGABAkhoDAEhSYzRmhQ+sznuOxtQYAECSGgMASFJjtGWBDwDnqDEAOMfcSVtqDAAgSY3RlIERAE5SYwBwksmTptQYAECSGqMl4yIAnKXGAOAssyctqTEAgCQ1RkOGRQA4TY0BwGmmTxpSYwAASWqMdoyKAHCeGgOA88yftKPGAACS1BgAQJIaoxlre2An3nk0o8YAAJLUGABAkhqjFUt7YC/eerSixgAAktQYAECSGqMRK3tgN957NKLGAACS1BgAQJIaow0Le2A/3ny0ocYAAJLUGABAkhqjCet6YEfefTShxgAAktQYAECSGqMFy3pgT95+tKDGAACS1BgAQJIaowGregC4TI0BwGWmURpQYwAASWqM+4yGAHCdGgOA68yj3KfGAACS1Bi3GQwB4AY1BgA3mEi5TY0BACSpMe4yFgLAHWoMAO4wk3KXGgMASFJj3GQoBIBb1BgA3GIq5SY1BgCQpMa4x0gIAPeoMQC4x1zKPWoMACBJjQEAJKkxbrGeB/Au5CY1BgCQpMYAAJLUGHdYzgM8Ht6G3KPGAACS1BgAQJIa4wareYAfvA+5QY0BACSpMQCAJDXGdRbzAL94I3KdGgMASFJjAABJaozLrOUB/vBO5DI1BgCQpMYAAJLUGFdZygN85a3IVWoMmNz/pf8DAO5RYwAASWqMi6zkKcNyDJibGgPmpsUow5TKRWoMACBJjXGNEZBCrMeAqakxYGpKjELMqVyjxgAAktQYlxgAKcWCDJiZGgNmpsMoxaTKJWoMACBJjXGF8Y9irMiAiakxYGIqjGLMqlyhxgAAktQYFxj+KMeSDJiXGgPmpcEox7TKBWoMACBJjXGe0Y+CrMmAaakxYFoKjILMq5ynxgAAktQYsAaLMmBWaozTrOEpQn9Rknckp6kxAIAkNQYswqoMmJQa4yxLeIpQXxTlLclZagwAIEmNAauwLAPmpMY4yQqeIrQXZXlPcpIaAwBIUmPAMqzLgCmpMc6xgKcI5UVh3pSco8YAAJLUGLAOCzNgRmqMU6zfKUJ3UZp3JaeoMQCAJDUGLMTKDJiQGuMMy3eKUF3AQtQYALRmduUMNQYAkKTGOMGwRxGvD5VOmMB81BgANGd65QQ1BgCQpMY4zqhHEe/OkU6VwHTUGAC0Z37lODUGAJCkxjjMoEcR74+RTpXAbNQYAHRgguUwNQYAkKTGOMqYRxGfTpFOlcBk1BgA9GCG5Sg1BgCQpMY4yJBHEZ8PkU6VwFzUGAB0YYrlIDUGAJCkxjjGiEcRR86QTpXAVNQYAPRhjuUYNQYAkKTGgJkcO0I6VQIzUWMcYt0OcJ53J4eoMQCAJDUGTOToCdKpEpiIGuMIy3aAK7w9OUKNAQAkqTFgHscPkE6VwDzUGAdYtQNc4/3JAWoMACBJjQHTOHN+dKoEpqHG+MyiHeAqb1A+U2MAAElqDJjFueOjUyUwCzXGR9bsANd5h/KRGgMASFJjwCTOnh6dKoFJqDE+sWQHgJ7UGAD0ZKblEzUGzOH84dGpEpiDGuMDQx0AdKXGAKArUy0fqDFgClfOjk6VwBTUGO8Z6QCgLzUGAH2Za3lPjQEzuHZ0dKoEZqDGeMtABwCdqTEA6Mxky1tqDFiYUyUwATXGO8Y5ilBVwMLUGAD0ZrblHTUGrMxSDahPjfGGYY4iNBWwMjUGAN2ZbnlDjQEAJKkxXjPKUcSdQ6UjJ1CeGgOA/sy3vKbGAACS1BhQ3b1jo1MlUJ0a4yVrdYB2vFN5SY0BACSpMaC4u6dGp0qgODXGK5bqAC15q/KKGgMASFJjQG33D41OlUBtaowXrNQB2vJe5QU1BgCQpMaA0lqcGZ0qgdLUGM9ZqAO05s3Kc2oMACBJjQGVtTkyOlUClakxnrJOB4BB1BgADGLS5Sk1BhTW6sToVAkUpsZ4xvgGAKOoMQAYxazLM2oMqKvdgdGpEqhLjfGE4Q0AhlFjADCMaZcn1BhQVsvzolMlUJYa419GNwAYR40BwDjmXf6lxoCq2h4XnSqBqtQY/zC4AcBAagwABjLx8g81BhTV+rToVAkUpcb4m7ENAEZSYwAwkpmXv6kxoKb2h0WnSqAmNcZfDG0AMJQaA4ChTL38RY0BJfU4KzpVAiWpMb4zsgHAWGoMAMYy9/KdGgMq6nNUdKoEKlJjAABJaoxvrM8B+vOu5Rs1BhTU66ToVAkUpMYAAJLUGF9ZngOM4G3LV2oMqKffQdGpEqhHjQEAJKkxvrA6BxjD+5Yv1BhQTs9zolMlUI4aAwBIUmP8YXEOMIo3Ln+oMaAax0RgL2oM2IvWA6pRY/xmbQ4AAWoMKMbyij2YgPlNjQGbUXtAMWqMX4xpAJCgxoBarK7YhRmYX9QYsBu9B9SixvjJkAYAEWoMKMXiin2YgvlJjQHbUXxAKWqMH4xoAJChxoBKrK3YiTmYH9QYsB/NB1Sixng8HgY0AIhRY0AhllbsxSTM4/FQY8CWVB9QiBrj8TCeAUCOGgPqsLJiN2ZhHg81BuxJ9wF1qDEehjMACFJjQBkWVuzHNMxDjQGbUn5AGWoMoxkAJKkxoArrKnZkHkaNAbvSfkAVagwAIEmNYU0OEOQdjBoDqhh9OnSqBIpQYwAASWoMS3KAJG9h1BhQw/jDoVMlUIMaAwBIUmPbsyIHyPIe3p4aA0pInA2dKoES1BgAQJIa250FOQBkqTGggszR0KmSGszFu1NjAABJamxzBjIACFNjQAGpk6FTJTWYjDenxgAAktTY3oxjAJCmxoC83MHQqZIazMZ7U2MAAElqbGuGMQCIU2NAXPJc6FRJDabjrakxAIAkNbYzoxgA5KkxIC17LHSqpAbz8c7UGABAkhrbmEEMAApQY0CYUyE8HibkrakxYHNqEAhTY/syhgFABWoMyLKagh/MyPtSY8Du9CCQpca2ZQgDgBLUGBBlMQW/mJK3pcaA7SlCIEqN7coIBgA1qDEgyVoK/jAn70qNAWhCIEmNAQAkqbFNWYdTg6UUfOXdvCk1BqAKgSQ1BgCQpMb2ZBlODVZS8J23857UGIAuBJLUGABAkhrbklU4NVhIwd+8n7ekxgAeyhAIUmMAAElqbEcW4dRgHQXweKgxgB+0ITWYl3ekxgAAktTYhgxe1GAZBfB4PNQYwE/qkBpMzBtSYwAASWpsP8YuarCKAvhBjQH8oA+pwcy8HzUGAJCkxrZj6KIGiyiAn9QYwE8KkRpMzdtRYwAASWpsN0YuarCGAvhFjQH8ohGpwdy8GzUGAJCkxjZj4KIGSyiA39QYwG8qkRpMzptRYwAASWpsL8YtarCCAvhDjQH8oROpwey8FzUGAJCkxrZi2KIGCyiAL9QYwBdKkRpMz1tRYwAASWpsJ0YtarB+AvhKjQF8pRWpwfy8EzUGAJCkxoDBLJ8AvlFjG7H2hiPUIjV4Z29EjQEAJKkxYCyrJ4Dv1Ng+LL3hGL1IDd7a+1BjAABJagwYyuIJ4C9qbBtW3gBQkhoD+Iv9HTWYorehxoCRhA7A39TYLoxYAFCTGgP4mw0eNZijd6HGgIFkDsA/1NgmDFgAUJQaA/iHHR41mKQ3ocYAAJLU2B6MV9Rg5QTwLzUG8C/dSA1m6T2oMQCAJDW2BcMVNVg4ATyhxgCeUI7UYJreghoDAEhSYzswWlGDdRPAM2oM4BntSA3m6R2oMQCAJDW2AYMVNVg2ATylxgCeUo/UYKLegBoDAEhSY+szVlGDVRPAc2oM4Dn9SA1m6vWpMQCAJDW2PEMVNVg0AbygxgBeUJDUYKpenhoDAEhSY6szUlGDNRPAK2oM4BUNSQ3m6tWpMQCAJDUGDGDJBPCSGluc9TbcoSKpwbt8cWoMACBJjQH9WTEBvKbG1ma5DffoSGrwNl+bGgMASFJjQHcWTABvqLGlWW3DXUoS6E6NAUB5puulqTGgN+slgHfU2MqMUnCflgR6U2MAUJ/5emVqDOjMcgngLTW2MIMUtKAmgc7UGABMwIS9MDUG9GW1BPCeGluXMQra0JNAX2oMAGZgxl6XGgO6slgC+ECNLcsQBa0oSqArNQYAUzBlL0uNAT1ZKwF8osZWZYQCgDmoMYBPbPiowZy9KjUGdCRjAD5SY4syQAHAJNQYwEd2fNRg0l6UGgP6ETEAn6mxNRmfAGAWagzgM1s+ajBrr0mNAd1IGIAD1NiSDE8AMA01BnCAPR81mLaXpMaAXgQMwBFqbEVGJwCYhxoDOMKmjxrM2ytSY0An8gXgEDW2IIMTAExEjQEcYtdHDSbuBakxoA/xAnCMGgMASFJj67HEhj5s+4A+1BjQhXSBTszc61FjAABJamw5hiboxb4P6EKNAT0IF+jG1L0cNQYAkKTGVmNkgn5s/IAe1BjQgWyBjszdq1FjAABJamwxBiboyc4P6ECNAe2JFujK5L0YNQYAkKTG1mJcgr5s/YD21BjQnGSBzszea1FjAABJamwphiXozd4PaE6NAa0JFujO9L0UNQYAkKTGVmJUgv5s/oDW1BjQmFyBAczfK1FjAABJamwhBiUYwe4PaEyNAcCETOALUWNAW1ZHAOeosXUYk2AMvQm0pcYAYEZm8HWoMaApiyOAk9TYMgxJMIriBJpSYwAwJVP4MtQY0JK1EcBZamwVRiQYR3MCLakxAJiTOXwVagxoyNII4DQ1tggDEgBMSo0BnGYHSA0m8UWoMaAdkQJwnhoDAEhSY2uwrIaxbAGBdtQY0IxEgcHM4mtQYwAASWpsCYYjGM0eEGhGjQGtCBQYzjS+BDUGAJCkxlZgNILxbAKBVtQY0Ig8gQDz+ArUGABAkhpbgMEIEuwCgUbUGNCGOIEIE/kC1BgAQJIam5+xCDJsA4E21BjQhDSBEDP5/NQYAECSGpueoQhS7AOBJtQY0IIwgRhT+fTUGABAkhqbnZEIcmwEgRbUGNCALIEgc/ns1BgAQJIam5yBCJLsBIEG1BhwnyiBKJP55NQYAECSGpubcQiybAWB+9QYcJskgTCz+dzUGABAkhqbmmEI0uwFgdvUGHCXIIE40/nU1BgAQJIam5lRCPJsBoG71BhwkxyBAsznM1NjAABJamxiBiGowG4QuEmNAfeIEYB71BgALMC9ZGJqDOAe20HgHjU2L2MQJUgRgJvUGACswIw+LzUGcJP9IHCLGpuWIYgShAjAXWoMAJZgSp+WGgO4y4YQuEONzcoIRAkyBOA2NQYAazCnz0qNAdxmRwjcoMYmZQCiBBECcJ8aA4BFmNQnpcYAAJLU2JyMP5TgUPmbjwK4To0BwCrM6nNSYwAASWpsSoYfSnCd+8KHAVymxgBgGab1KakxAIAkNTYjow8luM194+MArlJjALAO8/qM1BgAQJIam5DBhxJc5v7iAwEuUmMAsBAT+4TUGABAkhqbj7GHEtzl/uEjAa5RYwCwEjP7fNQYAECSGpuOoYcSXOWe8KEAl6gxAFiKqX06agwAIEmNzcbIQwluck/5WIAr1BgArMXcPhs1BgCQpMYmY+CBypwqgQvUGHCe6ABoR40BwGLcUSajxgDasTUEzlNjczHuUILkAGhIjQHAaszuc1FjAA3ZGwKnqbGpGHYoQXAAtKTGAGA5pvepqDGAlmwOgbPU2EyMOpQgNwCaUmMAsB7z+0zUGEBTdofASWpsIgYdShAbAG2pMQBYkAl+ImoMoC3bQ+AcNTYPYw4lSA2AxtQYAKzIDD8PNQbQmP0hcIoam4YhhxKEBkBragwAlmSKn4YaA2jNBhE4Q43NwohDCTIDoDk1BgBrMsfPQo0BNGeHCJygxiZhwKEEkQHQnhoDgEWZ5CehxgDas0UEjlNjczDeUILEAOhAjQHAqszyc1BjAABJamwKhhtKcKg8wYcFHKbGAGBZpvkpqDEAgCQ1NgOjDSW4vZ3i4wKOUmMAAElqDADW5boyAzU2AY8SJbi8neQDAw5SYwAASWoMABbmvjIBNQYc4u52mo8MOEaN1WesAYCVqTEAWJmZvj41Bhzh6naBDw04RI2VZ6gBgKWpMQBYmqm+PDUGHODmdomPDThCjVVnpAGAtakxAFibub46NQZ85uJ2kQ8OOECNFWegAYDFqTEAWJzJvjg1Bnzk3naZjw74TI3VZpwBgNWpMQBYndm+NjUGfOLadoMPD/hIjZVmmAGA5akxAFie6b40NQZ84NZ2i48P+ESNVWaUAYD1qTEAWJ/5vjI1Brzn0naTDxD4QI0VZpABgA2oMQDYgAm/MDUGvOXOdpuPEHhPjdVljAGAHagxANiBGb8uNQa848rWgA8ReEuNlWWIAYAtqDEA2IIpvyw1BrzhxtaEjxF4R41VZYQBgD2oMQCAJDUGvObC1ogPkhJcXapSY0V5ZABgE2oMACBJjQEvua8146OkBHeXotQYAECSGqvJ+AIAu1BjwCuuaw35MCnBrF+TGgMASFJjJRleAGAbagx4wW0N1mPaL0mNAYwgboFX1FhFRhcA2IcaA56zy4EVmfcrUmMAQ8hb4AU1VpDBBQA2osYAYCMm/oLUGPCUu1pzPlLgOTVWj7EFAHaixgBgJ2b+etQY8IyrWgc+VOApNVaOoQUAtqLGAGArpv5y1BjwhJtaFz5W4Bk1Vo2RBQD2osYAYC/m/mrUGPAvF7VOfLDAE2qsGAMLAGxGjQHAZkz+xagx4B/uad34aIF/qbFajCsAsBs1BgC7MfvXosaAv7mmdeTDBf6hxkoxrADAdtQYAECSGgP+4pbWlY+XEtxiSlFjlXg4AGA/agwAIEmNAd+5pHXmA6YE15hK1FghHg0A2JAaAwBIUmPAN+5o3fmIKcE9phA1BgCQpMbqMKYAwI7UGPCVK9oAPmRKsAOoQ40BACSpsTIMKQCwJTUGfOGGNoSPmRJsAcpQYwAASWqsCiMKAOxJjQF/uKAN4oOmBHuAKtQYAECSGivCgAIAm1JjwG/uZ8P4qCnBJqAINQYAkKTGajCeAMCu1Bjwi+vZQD5sSrALqEGNAQAkqbESDCcAsC01BvzkdjaUj5sSbANKUGMAAElqrAKjCQDsS40BP7icwY7sAypQYwAR8hf4SY0VYDABgI2pMeDxeNjUwK5sBApQYwAZAhj4QY3lGUsAYGdqDHg87GlgX3YCeWoMIEQCA4/HQ40VYCgBgK2pMeBhSwMQpMYAUkQwJbjRxKmxNA8BAOxNjQF2NABJagwgRgZTgitNmhoL8wgAwObUGGBDA5CkxgByhDAluNOEqTEAgCQ1lmUcoQL7GYAkNQYQJIUpwW4gS40BACSpsSjDCBXYzgBEqTGAJDFMCbYDUWoMACBJjSUZRajAbgYgS40BRMlhSrAfSFJjAABJaizIIEIFNjMAYWoMIEsQU4INQZAaAwBIUmM5xhAqsJcBSFNjAGGSmBLsCHLUGABAkhqLMYRQga0MQJwaA0gTxZRgSxCjxgAAktRYihGECuxkAPLUGECcLKYEe4IUNQYAkKTGQgwgAMDj8VBjsDX3sTL8KSjBpiBEjQEAJKmxDOMHAPCDGoN9uY4V4o8BG1NjAMAPLjcZaizC1x0A+EmNwbbcxkrx54B9qTEA4Ce3mwg1luDLDgD8osZgVy5jxfiDwLbUGADwi+tNghoL8FUHAH5TY7ApdzGAItQYQA0CmRLcbwLUGABAkhobz9hBBfYwAFWoMYAiJDIl2BmMp8YAAJLU2HCGDiqwhQEoQ40BVCGSKcHWYDg1BgCQpMZGM3JQgR0MQB1qDKAMmUwJ9gajqTEAgCQ1NpiBgwpsYAAKUWMAdQhlSrA5GEyNAQAkqbGxjBtUYP8CUIkaAyhEKlOC3cFYagwAIEmNDWXYoALbF4BS1BhAJWKZEmwPhlJjAABJamwkowYV2L0A1KLGAEqRy5RgfzCSGgMASFJjAxk0qMDmBaAYNQZQi2CmBBuEgdQYAECSGhvHmEEF9i4A1agxgGIkM2xGjQEA/3LRGUeNDeNrTQW2LgDlqDGAakQz7EWNAQBPuOkMo8ZG8aWmAjsXgHrUGEA5shm2osYAgGdcdUZRY4P4SlOBjQtAQWoMoB7hDDtRYwDAU+46g6gx2Id9C0BFamwM4wVwinSGjagxAOA5u4Qx1Bhsw7YFoCQ1NoThAjhJPMM+1BgA8IJtwhBqDHZh1wJQkxobwWgBnCafYRtqDAB4xT5hBDUGm7BpAShKjQ1gsAAuENCwCzUGALxkozCAGoM92LMAVKXG+jNWAJdIaNiEGgMAXrNT6E+NwRZsWQDKUmPdGSoAgDfUGEBVVpqUYKvQnRqDHfhVB6hLjfVmpAAA3lFjAGVZalKCvUJvagw24DcdoDA11pmBAgB4S40B1GWtSQk2C52pMVifX3SAytRYX8YJAOA9NQZQmMUmbECNwfL8ngM3ufT0pca68vUFAD5QYwCVWW3C+tQYrM6vOXCbW09XaqwnX14A4BM1BlCa5SYsT40BAJ+49vSkxjry1aUCmxWA4tQYQG2CGlanxgCAj9x7OlJjsDZ7FYDq1Fg/xgigCUkNi1NjAMBndgz9qDFYmq0KQHlqrBtDBNCIqIa1qTEA4ABbhm7UGKzMTgWgPjXWixECaEZWw9LUGABwhD1DL2oMFmajAjABNdaJAQJoSFjDytQYAHCITUMnagzWZZ8CMAM11ofxAWhKWsPC1BgAcIxdQx9qDJZlmwIwBTXWheEBaExcw7rUGABwkG1DF2oMVmWXAjAHNdaD0QFoTl7DstQYAHCUfUMPagwWZZMCMAk11oHBAehAYMOq1BgAQJIagzXZowBduP90oMba80UFupDYsCg1BgCQpMZgSbYoQCcuQO2pseZ8TYFORDasSY0BACSpMViRHQrQjRtQc2qsNV9SAOAMNQYwDUtPWJIagwX5zQY6cgVqTY015isKAJyixgDmYe0JK1JjsB6/2EBX7kCNqTEAgCQ11pZxAejK4hMWpMZgOX6vgc7sHtpSYwAASWqsKcMC0JnVJ6xHjcFq/FoD3dk+NKXGAACS1FhLRgWgO8tPWI4ag8X4rQYGsH9oSY0BACSpsYYMCsAA1p+wGjUGa/FLDQxhA9GQGgMASFJj7RgTgCEsQGExagyW4ncaGMQOoh01BgCQpMaaMSQAg1iBwlrUGKzErzQwjC1EM2oMACBJjbViRACGsQSFpagxWIjfaGAge4hW1BgAQJIaa8SAAAxkDQorUWOwDr/QADNSYwDAJe5CjaixNnwhgaEsQmEhagyW4fcZYEpqDAC4xmWoDTXWhK8jMJhVKKxDjcEq/DoDzEmNAQAXuQ01ocZa8GUEhrMMhWWoMViE32aASakxAOAq16EW1FgDvopAgHUorEKNwRr8MgPMSo0BAJe5DzWgxgAmZSEKi1Bj9xkLKMDvMsC01BgAcJ2dxH1qDGBWVqKwBjV2m6GAAvwqA8xLjQEAN9hK3KbGAKZlKQpLUGN3GQkAgDvUGCzAhgQIspe4S40BACSpsZsMBECQtSisQI3B/PwiA1E2EzepMQCAJDV2j3EAiLIYhQWoMZie32MgzG7iHjUGAJCkxm4xDABhVqMwPzUGs/NrDMTZTtyixgAAktTYHUYBIM5yFKanxmByfosBJqfGAIC7XIvuUGM3+OoBBViPwuzUGMzNLzHA7NQYAHCbe9ENauw6XzygBAtSmJwag6n5HQaYnhoDAO5zMbpOjV3mawcUYUUKc1NjMDO/wgDzU2MAQANuRpepsat86YAyLElhamoMJuY3GGABagwAaMHV6Co1dpGvHFCINSnMTI3BvPwCA6xAjQEATbgbXaTGABZgUQoTU2PXyH8K8PsLsAQ1BgC0YVdxjRoDWIFVKcxLjV0i/inAry/AGtQYANCIbcUlagxgCZalMC01doX0pwC/vQCLUGMAQCv2FVeoMYA1WJfCrNTYBcKfAvzyAqxCjQEAzdhYXKDGABZhYQqTUmPnyX4K8LsLsAw1BgC0Y2dxnhoDWIWVKcxJjZ0m+inAry7AOtQYANCQrcVpagxgGZamMCU1dpbkpwC/uQALUWMAAElqDGAd1qZU4Ip0lho7yVeMAvziAqxEjQEAJKkxAKApd6ST1Ng5vmAU4FDJa74dMCE1BgCQpMYAgLZcks5RY6f4elGAUxTv+H7AfNQYAECSGgMAGnNLOkWNneHLRQEOUbznGwLTUWMAAElqDABozTXpDDV2gq8WBThD8YnvCMxGjQEAJKkxAKA596QT1BhMxRGKz3xLYDJq7DiZDwC0p8YAgPbsMI5TYzATJyiO8D2Buaixw0Q+ANCBGgMAOrDFOEyNwUQcoDjGNwWmosaOkvgAQA9qDADowR7jKDUG83B+4ijfFZiJGjtI4AMAXagxAKALm4yD1BhMw/GJ43xbYCJq7Bh5DwD0ocYAgD7sMo5RYzALpyfO8H2BeaixQ8Q9ANCJGgMASFJjMAmHJ87xjaECt6VD1NgRvkwAQC9qDAAgSY0BrMmpkgpcl45QYwf4KlGAX1aAVakxAIAkNQawKAtVKnBfOkCNfeaLRAF+VwGWpcYAAJLUGMCqrFSpwIXpMzX2ka8RBfhVBViXGgMASFJjAMuyVKUCN6aP1NgnvkQU4DcVYGFqDAAgSY0BrMtalQpcmT5RYx/4ClGAX1SAlakxAIAkNQawMItVKnBn+kCNQXl+TwGWpsbek/MAQF9qDADoy27jPTUG1TlUcofvD9Snxt4S8wBAZ2oMAOjMduMtNQbFOTRxj28QlKfG3pHyAEBvagwA6M1+4x01BrU5M3GX7xBUp8beEPIAQHdqDADozobjDTUGpTkycZ9vERSnxl6T8QBAf2oMAOjPjuM1NQaVOTHRgu8R1KbGXhLxAMAAagwAIEmNQWEOTLThm0QFbk4vqbFXfGkAgBHUGABAkhqDupyXaMV3iQpcnV5RYy/4ygAAQ6gxAIAkNQZlOS7Rjm8TFbg7vaDGnvOFAQDGUGMAAElqDKpyWqIl3ycqcHl6To095esCAAyixgAAktQYFOWwRFu+UVTg9vSUGnvGlwUAGEWNAQAkqTGoyVmJ1nynqMD16Rk19oSvCgAwjBoDAEhSY1CSoxLt+VZRgfvTE2rsX74oAMA4agwAIEmNQUVOSvTge0UFLlD/UmMAAElq7B+iHQAYSI1BQQ5K9OGbRQW2Hv9QYwAASWrsb5IdABhJjUE9zkn04rtFBfYef1NjAABJauwvgh0AGEqNQTmOSfTj20UFNh9/UWMAAElq7Du5DgCMpcagGqckevL9gnrUGAAwlkvUd2rsG18PAGAwNQbFOCQBbEaNAWxF71OBW9Q3auwrXw4AYDQ1BrVYXADsRo0B7EXxU4Fr1Fdq7AtfDQBgODUGpVhbAGxHjQFsRvNTgXvUF2rsD18MAGA8NQaVWFoA7EeNAexG9VOBi9Qfauw3XwsAIECNQSFWFgAbUmMA29H9VOAm9Zsa+8WXAgBIUGMAAElqDOpwPmIU3zUqcJX6RY395CsBAESoMQCAJDUGZTgeMY5vGxW4S/2kxn7whQAAMtQYAECSGoMqnI4YyfeNClymflBjAABJauzxeIhzACBGjUERDkeM5RtHBbYhj8dDjQEAZKmxx0OaAwA5agxqcDZiNN85KrAPeTzUGABAlhp7CHMAIEiNQQmORoznW0cFNiIPNQYAkKXGZDkAkKTGoAInIxJ876AGNQYA5LhQqbGHrwEAEKXGoAAHIzJ886AENQYABLlRqTFfAgAgSo1BnnMRKb57UIEaAwCSXKm2rzFfAQAgavsagzzHInJ8+6AANQYARG1/p9q9xrb/AgAAYbvXGOQ5FZHk+wd5agwAyNr9UrV5je3+5wcA4javMchzKCLLNxDi1BgAELb5rWrvGtv8jw8AFLB3jUGeMxHA7tQYwN5MBFSw97Vq6xrb+08PAJSwdY1BnrUEwPbUGMDmzARUsPW9auca2/oPDwAUsXONQZ6lBABqDGB3pgIq2PlipcYAAJI2rrGdI5wqrCQA2LnGAPjBXEAFG29J1BgAQNK+NbZxglOGhQQAO9cYAL+YDKhg3z2JGgMASNq2xvYNcOqwjgDgsXGNAfCH2QCC1BgAUMK2d6tda2zbPziFWEYA8HjsW2MAfGU6gBw1BgDUsOvlatMa2/XPTSVWEQA8Ho9tawyA78wHEKPGAIAiNr1d7Vljm/6xKcUiAoAf9qwxAP5mQoAUNQYAVLHn9WrLGtvzT00t1hAA/LRljQHwLzMChKgxAKCMLe9XO9bYln9oirGEAOCXHWsMgGdMCZChxgCAOna8YG1YYzv+manGCgKA3zasMQCeMydAhBoDAArZ8Ia1X41t+EemHAsIAP7Yr8YAeMWkAAlqDACoZL8r1nY1tt+fmHqsHwD4YrsaA+A1swIEqDEAoJTt7li71dh2f2AKsnwA4KvdagyAd0wLMJ4aAwBq2e2SpcZgMKsHAL7ZrMZ2i22As8wLMNxmNQYA1LfZ9kSNAQAk7VVjm6U2JTkDUZ3vKIy2V40BADPYa3+ixgAAkraqsb1Cm5ocgQD4y1Y1BsBnZgYYTI0BAOVsdc/aqca2+sNSlKUDAH/bqcYAOMLUAGOpMQCgnp0uWhvV2E5/VqqycgDgHxvVGADHmBtgKDUGABS00U1rnxrb6I9KWRYOAPxrnxoD4CiTA4ykxgCAiva5am1TY/v8SanLugGAJ7apMQCOMzvAQGoMAChpm7vWLjW2zR+UwiwbAHhmlxoD4AzTA4yjxgCAmna5bG1SY7v8OanMqgGApzapMQDOMT/AMGoMAChqk9vWHjW2yR+T0iwaAHhujxoD4CwTBIyixgCAqva4bm1RY3v8KanNmgGAF7aoMQDOM0PAIGoMAChri/vWDjW2xR+S4iwZAHhlhxoD4ApTBIyhxgCAuna4cKkxGMCKAYCXNqixHaIaoAdzBAyxQY0BAPPaYKuixqA/CwYAXlu/xjZIaoBOTBIwwvo1BgBQmRqD7qwXAG5Y/8q1fI2t/ycE6McsAQMsX2MAAKWpMejNcgHgluXvXKvX2PJ/QICuTBPQ3+o1BgBQmxqDzqwWAG5a/dK1eI2t/ucD6M08Ad0tXmMAAMWpMejLYgHgtsVvXWvX2OJ/PIABTBTQ29o1BgBQnRqDrqwVABpY+9q1dI2t/acDGMNMAZ0tXWMAAOWpMejJUgGgiaXvXSvX2NJ/OABgESvXGAAt2PFCX2oMOvIjBtDIyhevhWts5T8bALCMhWsMgDZseaErNQb9+AkDaGbhm9e6NbbwHw0AWMi6NQZAK/a80JMag278gAE0tO7Va9kaW/dPBgAsZdkaA6Adm17oSI1BL36+AJpa9u61ao0t+wcDABazao0B0JJdL/SjxqATP14Aja16+VJjAABJi9bYqvEMkGLbC90sWmMQ56cLoLlFty1qDAAgac0aWzSdAYLse6GXNWsM4vxwAXCQGgMAZrHm9WvJGlvzTwWQZeMLnSxZYxDnZwuAo9QYADCNJe9fK9bYkn8ogDg7X+hjxRqDOD9aABymxgCAeax4AVuwxlb8MwFUYOsLXSxYYxDnJwuA49QYADCRBW9g69XYgn8kgCLsfaGH9WoMAGAmagyasz4A6Gi9K9hyNbbenwigDrMGdLBcjQEATEWNQWuWBwBdLXcHW63GlvsDAZRi2oD2VqsxAIC5qDFozOoAoLPVLmGL1dhqfx6Aaswb0NxiNQYAMBk1Bm1ZHAB0t9gtbK0aW+yPA1CQiQNaW6vGAABmo8agKWsDgAHWuoYtVWNr/WkAajJzQGNL1RgAwHTUGLRkaQAwxFL3sJVqbKk/DEBZpg5oa6UaAwCYjxqDhqwMAAZZ6SKmxgA4ydwBTS1UYytFMgCwjYVqDOIsDAA4T40BABNa6Ca2To0t9EcBKM4eGFpap8Ygzg8UABeoMQBgRutcxZapsXX+JAD12QRDQ8vUGMT5eQLgCjUGAExpmbvYKjW2zB8EYAp2wdDOKjUGcX6cALhEjQEAc1rlMrZIja3y5wCYhW0wNLNIjUGcnyYArlFjAMCkFrmNrVFji/wxACZiHwytrFFjEOeHCYCL1BgAMKs1rmNL1NgafwqAudgIQyNL1BjE+VkC4Co1BgBMa4n72Ao1tsQfAmA6dsLQxgo1BnF+lAC4TI0BAPNa4UK2QI2t8GcAmJGtMDSxQI1BnJ8kAK5TYwDAxBa4kc1fYwv8EQAmZS8MLcxfYxDnBwmAG9QYADCz+a9k09fY/H8CgHnZDEMD09cYxPk5AuAONQYATG36O9nsNTb9HwBganbDcN/sNQZxfowAuEWNAQBzm/1SpsYAuMF2GG6bvMZmj2EW4KcIgHsmrzEAgMmpMQDusB+mgMlvZXPX2OQfPivwQwTATXPXGADA7NQYALfYEFPA3NeyqWts7o+eJfgZAuCuqWsMAGB6agyAe+yIKWDqe9nMNTb1B88a/AgBcNvMNQYAMD81BsBNtsQUMPPFbOIam/ljZxF+ggC4b+IaAwBYgBoD4C57YgqY+GY2b41N/KGzCj9AADQwb40BAKxAjQEAK5j3ajZtjc37kbMMh0r4zeMAN0xbYwAAS1BjAMASpr2bzVpj037grMNlBr7wQMB1s9YYAMAa1BgAsIZZL2eT1tisHzcLcZeBbzwScNmkNQYAsIj/l/4PgElZ0M7AugY28785n/o5d2N+BwGqmfNXECqYs8YAAFahxoB12aPDbuZ86qessTk/aoC1OVXCRVPWGADAMtQYALCMKe9nM9bYlB80kOB1MZRTJVwzY40BAKxDjQEAJKkxYGVOlUM5VVLAjE/9hDU248cMAPDChDUGALAQNQYszTZ9KKdKCpjwqZ+vxib8kAEAXpqvxgAAVqLGgLXZpw/lVEkB8z3109XYfB8xAMAb09UYAMBS1BgA7ThVUsB0d7TZamy6DxhI89oAiputxgAA1qLGAGjIqZICZluJT1Zjs328QAFeHEBtk9UYAMBi1BgALTlVUsBkK/G5amyyDxeowasDKG2uGgMAWI0aA6App0oKmGslPlWNzfXRAmV4eQCVTVVjAADLUWMAtOVUSQFTrcRnqrGpPlgAgENmqjGAiwxzQGFqDIDGnCopYKYhbKIam+ljBQA4aKIaA7jMOAfUpcYAaM2pkgImGsLmqbGJPlQAgMPmqTGAGwx0QFlqDIDmnCopYJ4hbJoam+cjBQA4YZoaA7jFSAdUpcYAgCVNM4TNUmPTfKAAPPzDMThjlhoDAFiTGgM2YcUOFKXGAOjAqZICZhnCJqmxWT5OAICTJqkxgNuMdUBNagyAHpwqKWCSIWyOGpvkwwQAOG2OGgNowGAHlKTGAOjCqZIC5hjCpqixOT5KAIALpqgxAIBlqTFgHxbtYzlVUsAUj/0MNTbFBwkAcMkMNQYAsC41BmzEqn0sp0oKmOGxn6DGZvgYAQAumqDGAAAWpsaAnVi2j+VUSQETPPb1a2yCDxEA4LL6NQYAsDI1BmzFun0sp0oKqP/Yl6+x+h8hAMAN5WsMAGBpagyAfpwqKaD8na16jZX/AIHJeKsA1VSvMQCAtakxADpyqqSA6jvx4jVW/eMD5uO9AhRTvMYAABanxgDoyamSAorvxGvXWPEPD5iSNwtQS+0aAwBYnRoDoCunSgqovRMvXWO1PzpgVt4tQCmlawwAYHlqDIC+nCrhvco15pgAADRROioq1xhAH6Vfy8B21BgAnTlVwltqDABYX+WdeOEaq/yxAXPzfgEKKVxjACzCqRLeUWMAwAYK78Tr1ljhDw2YnjcMUEfdGgNgGU6V8IYaAwB2UHcnXrbG6n5kwAq8Y4AyytYYAAtxqoTX1BgAsIWyO/GqNVb2AwMAaKpqjQH0ZeYDqlBjAAzgH45RQNUprGiNVf24AAAaK1pjAL2Z+oAi1BgAIzhVUkDRKaxmjRX9sAAAmqtZYwD9mfuAGtQYAEM4VVJAzSmsZI3V/KgAADooWWMAI5j8gBLUGABjOFVSQMkprGKNlfygAAC6qFhjAAD7UGPAvmziB3OqpICKz33BGqv4MQEAdFKwxgAANqLGgI3ZxQ/mVEkBBZ/7ejVW8EMCAOimXo0BAOxEjQE7s40fzKmSAuo99+VqrN5HBADQUbkaAwDYihoDtmYfP5hTJfyrWo15MQIAXZWLjWo1BgCwFzUGwEBOlfAPNQbsrdzJAuiu2nNfrMaqfTwAAJ0VqzEAFudUCX9TY8Dm7ORhP8We+1o1VuzDAQDorlaNAbA8p0r4ixoDdmcrD/up9dyXqrFaHw0AwAClagyADThVwndqDNievTzsp9RzX6nGSn0wAABDVKoxALbgVAnfqDEAYD+VLnKFaqzSxwJsxesHSCpUYwBswqkSvlJjAMCGCi3F69RYoQ8F2I0XEBBUp8YA2IZTJXyhxgCAHdVZipepsTofCbAhryAgp0yNAbARp0r4Q40BAFsqsxSvUmNlPhBgT15CQEyVGgNgK06V8JsaAwD2VGUpXqTGqnwcAACDFakxgDBDIZCixgBI8A/HKKDIGFajxop8GAAAw9WoMYA4YyEQosYAiHCqhJ9K1JiJFAAIqJEgJWoMoIAab2VgP2oMgAynSvihQo2ZRwGAiBIRUqHGAAD2pcYAfioxI2/FqRIej4caAwB2VmEMK1BjFT4GAICQAjUGUIThcDSnSng81BgAsLUCY1i+xgp8CAAAMfkaAyjDeDiaUyU81BgAsLf8GBavsfxHAAAQFK8xgEIMiKM5VYIaAwA2Fx/D0jUW/wAAAKLSNQbA1pwqQY0BfGVhDxtKP/jhGkv/vw8AEGY3BkCSUyWoMYCvrOxhQ+EHP1tj3noAwO7sxgCIcqpke2oM4BtLe9hQ9sGP1ph3HgCwPbsxALKcKtmdGgP4ztoeNhR98JM15o0HAGA3BkCYUyWbU2MAAMmLXbDGHCqBmrydgKHsxgBIc6pkb2oMACC5Fc/VmFMAUJX3EzCS3RgAcU6VbE2NAQAkxWrMIQCoyxsKNpR78O3GAMhzqmRnagwAIClVY84AQGXeUbCh2INvNwZAAU6VbEyNAQAkqTEAgMcjd6oM1Zh/kgHU5i01nFMl+7IbAwBIUmMAAI/HI7YVz9SYEwBQnfcUMIrdGAAl+IdjbEuNAQD8kNmKR2rMAQCoz5sKGMRuDIAanCrZlRoDAPgpshVP1Jj1PzAD7ypgDLsxAIpwqmRTagwA4JfEVjxQY5b/AAC/2Y0BvGB2HM6pkj2pMQCA3wJz2PgaM2wCAPxhNwbwiulxOKdKtqTGAAD+GD+HDa8xoyYAwBd2YwAvmR+Hc6pkR2oMAOCL4XPY6BozaAIAfGU3BvCaCXI4p0o2pMYAAL4aPYcNrjFjJgDAN3ZjAFTiVMl+1BjAGzb6QHdja8xrDQAob3Cw2I0BUIpTJdtRYwDv2OkDvQ2tMS81AGACY5PFbgyAWpwq2Y0aA3jLVh/obGSNeaUBAFMYGi12YwAU41TJZtQYwHv2+kBfagwA4G8j57CBNWa8BOAQp0r2YjcGAJCkxgA+sNmHHQ188sfVmNcZAAc5VbIVuzEAgCQ1BvCJ3T7saNyTP6zGvMwAOMypkp3YjQEAJKkxgI9s92FHw578UTXmVQbACU6VbMRuDAAgSY0BfGa/Dzsa9eQPqjEvMgBOcapkH3ZjAABJagwA4KlBt70xNeZQCUzOa2w8p0q2YTcGAJCkxgAAnhuzFh9SYzb8wPS8yIBe7MYAqMk/HGMXagwA4IUha/ERNWa/DyzAqwzoxG4MgKKcKtmEGgMAeGXEWnxAjdnuA0vwMgP6sBsDoCqnSvagxgAAkvrXmN0+ADCtASFjNwZwkOFyPKdKtqDGAACSuteYWRIAmFj/lLEbAzjKeDmeUyU7UGMAAEm9a8wkCQBMrXvM2I0BHGbAHM+pkg2oMQCApM41Zo4EACbXO2fsxgCozKmS9akxgOMs/IH21BgAwFudB7G+NWaKBOAmp0qWZzcGcIIhE2hOjQEAvNd3EOtaY2ZIAG5zqmR1dmMAZxgzgdbUGADAB10HsZ41ZoIEoAGnShZnNwZwikETaEyNAQB80nMQ61hj5kcAmnCqZG12YwAASWoM4ByLf9hSx0e/X415XwHQiFMlS7MbAwBIUmMAJ1n9w5b6PfrdaszbCoBmnCpZmd0YAECSGgM4y/IfttTt0e9VY95VADTkVMnC7MYAAJLUGMBp1v9AQ51qzJsKgKacKsnrlTd2YwAASWoMACCpT405VAJr85YLcKokr9OjbzcGAJCkxgAAkrrUmBU+sDrvuQCnSvL6PPp2YwAASWoMACCpR41Z4APr86aDLXV59O3GAJiEfzjGotQYAEBShxqzvgd24F0HW+rx6NuNATALp0rWpMYAAJLUGADAYR1Ole1rzD+lAPbgbRfgVMmS7MYAAJLUGADAce334s1rzOoe2IX3XYBTJSuyGwMASFJjAAAnNN+Lt64xi3tgH954AU6VLMhuDAAgSY0BAJzRei/euMas7YGdeOcFOFWyHrsxAIAkNQYAcErjvXjbGrO0B6Azp0qWYzcGcJ0ZFLhPjQEAnNN2EmtaY4ZEALpzqmQ1dmMAN5hCgdvUGADASU0nsZY1ZkQEYACnShZjNwZwhzkUuEuNAQAkNawxAyIAQzhVktcye+zGAG4xiQI3qTEAgKR2NWY8BGAQp0ryGoaP3RgAQJIaA7jHZQC4p1mNeR0BMIxTJXnt0sduDAAgSY0B3OQ2ANzSqsa8jAAYyKmSvGbxYzcGAJCkxgDuch0A7mhUY15FAAzlVEleq/yxGwMASFJjALe5DwA3qDEApuRUSV6jSaxNjRkLAQCusRsDAEhSYwD3uRAkOFWS1+bZb1JjXkMAABfZjQEAJKkxgAbcCBKcKslr8uy3qDEvIQCAq+zGAACS1BhAC64EsKcWz36DGvMKAiDCPxxjDXZjAABJagygCXcC2FODZ/9+jXkBARDiVMkS7MYAAJLUGADAdfevhLdrzKES4PF4eB1mOFWyArsxAIAkNQYAcMPtxfjdGrOZB/jJCzHBqZIF2I0BACSpMQCApJs1Zi8P8JtXYoJTJXl3n327MQCAJDUGAJB0r8Zs5QEIc6ok72YQ2Y0BNGNEBS5QYwAASbdqzBQIQJxTJXn3kshuDKAdQypwnhoDAEi6U2NmQAAKcKok71YU2Y0BNGRMBU5TYwAASTdqzAQIQAlOleTdySK7MYCWDKrAWWoMACBJjQEwPadK8m4sxq/XmG08AMB9dmMATRlVgZPUGADzc6ok7/oodrnGTH8AAA3YjQG0ZVgFzlFjACzAqZK8y6PY1Roz+wEAtGA3BtCYcRU4RY0BsAKnSvKujmIXa8zkBwDQhN0YQGsGVuAMNQbAEpwqybs4il2rMXMfAEAbdmMAAElqDKA5B4QIp0ryrj38l2rMewYAoBG7MQCAJDUG0J4TQoRTJZO6UmPeMgAAT1yKJLsxAIAkNQbQgSNChFMlc7pQY94xAABPXckkuzEAgCQ1BtCDM0KEUyVTOl9j3jAAAC9cCCW7MQCAJDUGAJB0usYcKgGO8LaM8A/HyDv/8NuNAQAkqTEAgKSzNWb1DnCM92WEUyV5px9+uzEAgCQ1BgCQdLLGLN4BjvLGjHCqJO/sw283BgCQpMYAAJLUGEAvTpURTpXknXz4z9WYNwsAQFt2YwAASWoMgLU4VZJ37pp4qsYcKgHO8NYEDrAbAwBIUmMALMapkrxTm/EzNWblDnCO9ybwmd0YAECSGgNgNU6V5J3ZjJ+oMQt3gLO8OYGP7MYAAJLUGADLcaok78Rm/HiNWbcDnOfdCXxiNwYAkKTGAFiPUyV5xzfjh2vMsh0AoAO7MYCuzLLAB2oMgAU5VTKRozVmuAMAOOFwPNmNAfRlmgXeU2MArMipknkcrDGjHQDAKUfzyW4MoDPzLPCWGgNgSU6VTONYjRnsAABOOhhQdmMAvZlogXfUGABrcqpkFodqzFgHAHDasYSyGwMASFJjAN25MGQ4VTKJIzXmNQIAcMGhiLIbAwBIUmMA/bkxZDhVMocDNeYlAgBwyZGMshsDAEhSYwADuDJkOFUyBTUGANDNgVnsc40Z6AAA+rEbAxjBZJvhVMkM1BgAQD+fZ7GPNWacAwDoyG4MACBJjQEM4dKQ4R+Okffx6f9UY14fAAA92Y0BACSpMYAx3BoynCrJ+/T0f6gxLw8AgK7sxgAAktQYwCCuDRlOleR9ePrf15hXBwBAX3ZjAABJagyAtTlVUt3bGnOoBGjISxV29f7ptxsDAEhSYwAszqmS4t7VmJ06QFNeq7Crt0+/3RgAQJIaA2B1TpXU9qbGbNQBGvNihV29e/rtxgAAktQYAMtzqqS01zVmnw7QnFcr7OrN0283BgCQpMYAWJ9TJZW9rDHbdACAZl6nld0YwEhGXeBvagyADThVUtirGjO9AQA09DKu7MYAhjLsAn9RYwDswKmSul7UmNkNAKCpV3llNwYwlnEX+E6NAbAFp0rKUmMAAEO8WI0/rzF7dIBuvGKBb+zGANiDUyVVqTEAgDGer8af1pgtOgDAIHZjAKMZeUOcKilKjQEADPJ0GHtWY6Y2AIBR7MYAhjP0hjhVUpMaAwAY5dkw9qTGzGwAAMPYjQGMZ+wNcaqkJDUGADDMk2Hs3xozsQEAjGM3BhBg8A1xqqQiNQYAkPRPjZnXAAC6+Te17MYA2IhTJQWpMYAEhwjgl79rzPsBAKCjf2LLbgwAIEmNAUQ4RYT4h2PU81eNeTsAAHT1d27ZjQEAJKkxgAzHiBCnSsr5XmPeDQAAnf0VXHZjAABJagwgxDkixKmSar7VmDcDAEB335PLbgwAIEmNAbAZp0qK+VpjDpUAI3nrwra+Pf52YwAASWoMgN04VVLLlxqzMgcYy3sXtvX18bcbAwBIUmMAbMepklLUGECOUyVs68vj/9+z/xEAgEHsxgDYj1MllagxgCBnCdjWn8f/v3//JwAAhrEbA2BDTpUUosYAAAJ+3yX/+/t/AGAgb1/AbgyAHTlVUocaAwBI+LUb/+/7/wnAWN6/sD27MQC25FRJGWoMACDpR41ZlAOkeAPDtn4+/nZjAOzJqZIq1BgAQNJ/j4c1OUCSdzBs68fjbzcGwKacKilCjQEAJP33sCQHAIj43+NhNwaQZyZOcaqkBjUGAJD0n6EMACDkfw+7MYACTMUpTpWUoMYAAJL+M5IBAKT8z24MoAJzcYpTJRWoMQCApP8MZAAAMf+zGwOowGQMG/v/tzzn64E0wQUAAAAASUVORK5CYII=;" parent="1" vertex="1">
          <mxGeometry x="316.18" y="622" width="48.63" height="55.47" as="geometry" />
        </mxCell>
        <mxCell id="DJmAjpg9EcjPcaGh0rcK-1" value="" style="sketch=0;pointerEvents=1;shadow=0;dashed=0;html=1;strokeColor=none;fillColor=#505050;labelPosition=center;verticalLabelPosition=bottom;verticalAlign=top;outlineConnect=0;align=center;shape=mxgraph.office.devices.mac_client;" parent="1" vertex="1">
          <mxGeometry x="22" y="131.53" width="58" height="48" as="geometry" />
        </mxCell>
        <mxCell id="DJmAjpg9EcjPcaGh0rcK-2" value="" style="sketch=0;pointerEvents=1;shadow=0;dashed=0;html=1;strokeColor=none;fillColor=#505050;labelPosition=center;verticalLabelPosition=bottom;verticalAlign=top;outlineConnect=0;align=center;shape=mxgraph.office.devices.mac_client;" parent="1" vertex="1">
          <mxGeometry x="22" y="310" width="58" height="48" as="geometry" />
        </mxCell>
        <mxCell id="DJmAjpg9EcjPcaGh0rcK-3" value="" style="sketch=0;pointerEvents=1;shadow=0;dashed=0;html=1;strokeColor=none;fillColor=#505050;labelPosition=center;verticalLabelPosition=bottom;verticalAlign=top;outlineConnect=0;align=center;shape=mxgraph.office.devices.mac_client;" parent="1" vertex="1">
          <mxGeometry x="22" y="460" width="58" height="48" as="geometry" />
        </mxCell>
        <mxCell id="DJmAjpg9EcjPcaGh0rcK-4" value="" style="sketch=0;pointerEvents=1;shadow=0;dashed=0;html=1;strokeColor=none;fillColor=#505050;labelPosition=center;verticalLabelPosition=bottom;verticalAlign=top;outlineConnect=0;align=center;shape=mxgraph.office.devices.mac_client;" parent="1" vertex="1">
          <mxGeometry x="22" y="619" width="58" height="48" as="geometry" />
        </mxCell>
      </root>
    </mxGraphModel>
  </diagram>
</mxfile>
